<svg xmlns="http://www.w3.org/2000/svg" xmlns:xlink="http://www.w3.org/1999/xlink" viewBox="0 0 320.65 396.39"><defs><style>.cls-1{fill:#fff;}.cls-2{fill:url(#linear-gradient);}.cls-3{fill:#f5f3f7;}.cls-4{fill:none;stroke:#42145f;stroke-miterlimit:10;stroke-width:3px;}.cls-5{fill:#06b3bb;}.cls-6{fill:#32bdc7;}.cls-7{fill:#00adb9;}.cls-8{fill:#38c2c9;}.cls-9{fill:#516cb4;}</style><linearGradient id="linear-gradient" x1="251.09" y1="240.42" x2="309.48" y2="404.61" gradientUnits="userSpaceOnUse"><stop offset="0.3" stop-color="#42145f" stop-opacity="0.25"/><stop offset="1" stop-color="#42145f" stop-opacity="0.75"/></linearGradient></defs><title>bag_strike_light</title><g id="Layer_2" data-name="Layer 2"><g id="Layer_3" data-name="Layer 3"><path class="cls-1" d="M320.65,277.72C320.92,183.15,254.41,68,172.11,20.44,130.73-3.45,93.24-5.68,66.15,10L43.35,23.15l3.13,3.59c-15,18.05-23.79,44.81-23.88,78.9-.27,94.58,66.23,209.77,148.54,257.29C200.66,380,228.21,386,251.41,382.34l3.32,3.91s14.29-8.42,20.34-11.78C302.84,359.06,320.51,325.92,320.65,277.72Z"/><path class="cls-2" d="M251.41,382.34l3.32,3.91s14.29-8.42,20.34-11.78c27.77-15.41,45.44-48.55,45.58-96.75a244.58,244.58,0,0,0-7.8-59.91L278.68,237.4,232.06,383.17A88.71,88.71,0,0,0,251.41,382.34Z"/><path class="cls-3" d="M149.51,33.46C231.82,81,298.32,196.17,298.05,290.74S230.84,423.47,148.54,376-.27,213.24,0,118.66,67.21-14.06,149.51,33.46Z"/><path class="cls-4" d="M215.41,377c-17.19,0-37-6.17-57.18-17.85-36.91-21.3-71.76-58.2-98.14-103.9S19.26,161.09,19.38,118.72c.15-54,23.8-86.32,63.27-86.32,17.18,0,36.95,6.17,57.17,17.84,36.91,21.31,71.77,58.21,98.15,103.9s40.83,94.18,40.71,136.55C278.52,344.75,254.87,377,215.41,377Z"/><path class="cls-5" d="M109.52,76.53a24.45,24.45,0,0,0-3.3,1,28.44,28.44,0,0,0-7.34,3.94l7.33-1.16,2-2.26c5,.14,13.09,2.52,13.09,16.73l0,38.92,4,2.3s0-32,0-41.34C125.36,82.18,118.8,74.36,109.52,76.53Z"/><path class="cls-6" d="M103.11,280l3.26-1.87a30.11,30.11,0,0,0,14.95-25.41V123.86L87.55,143.28l-.19,127.56A10.5,10.5,0,0,0,103.11,280Z"/><polygon class="cls-7" points="210.7 175.69 210.7 304.51 120.89 269.63 121.32 123.83 210.7 175.69"/><polygon class="cls-8" points="177.35 195.13 177.01 321.31 181.75 331.52 93.05 280.21 87.36 269.61 87.55 143.28 177.35 195.13"/><path class="cls-9" d="M192.74,331.83,196,330a29.37,29.37,0,0,0,14.7-25.44V175.69l-33.35,19.44L177,322.69A10.52,10.52,0,0,0,192.74,331.83Z"/><polygon class="cls-9" points="121.32 123.83 121.32 162.71 87.55 143.28 121.32 123.83"/><path class="cls-8" d="M191.61,131.29c-9.57,4-18.26,14.17-18.26,32.33l4.56-7.4s4.25-16.65,10.72-21.38Z"/><path class="cls-9" d="M181.35,204.61h-4V160.74c0-15,4.68-23.88,13.39-29a13.63,13.63,0,0,1,13.43-.25,12.83,12.83,0,0,1,6.53,11.26V184h-4V142.77a8.88,8.88,0,0,0-4.52-7.79,9.67,9.67,0,0,0-9.42.23c-7.49,4.39-11.41,12.32-11.41,21Z"/><polyline class="cls-8" points="177.35 156.22 177.35 204.61 173.35 204.61 173.35 163.13"/><path class="cls-9" d="M91.54,145.58l-4-2.3,0-39A28.68,28.68,0,0,1,101.72,79.6a13,13,0,0,1,19.55,11.2l0,33.29-4,2.27,0-35.56a9,9,0,0,0-13.53-7.75,24.66,24.66,0,0,0-12.15,21.2Z"/><path class="cls-8" d="M87.59,104.25l0,39,4,2.3s0-31.64,0-41.33,1.79-18.38,13-25.9a15.28,15.28,0,0,0-4.89,2.56C94.79,84.53,87.59,91.86,87.59,104.25Z"/><line class="cls-4" x1="74.94" y1="278.79" x2="223.11" y2="130.62"/></g></g></svg>