<svg xmlns="http://www.w3.org/2000/svg" xmlns:xlink="http://www.w3.org/1999/xlink" viewBox="0 0 347.07 300.66"><defs><style>.cls-1{fill:none;}.cls-2{fill:#f5f3f7;}.cls-3{fill:url(#linear-gradient);}.cls-4{fill:#fff;}.cls-5{fill:#06b3bb;}.cls-6{fill:#516cb4;}.cls-7{clip-path:url(#clip-path);}.cls-8{fill:url(#linear-gradient-2);}.cls-9{clip-path:url(#clip-path-2);}.cls-10{fill:url(#linear-gradient-3);}.cls-11{clip-path:url(#clip-path-3);}.cls-12{fill:url(#linear-gradient-4);}.cls-13{clip-path:url(#clip-path-4);}.cls-14{fill:#38c2c9;}</style><linearGradient id="linear-gradient" x1="228.33" y1="233.68" x2="352.77" y2="346.59" gradientUnits="userSpaceOnUse"><stop offset="0" stop-color="#d0c4d7"/><stop offset="0.89" stop-color="#714f87"/></linearGradient><clipPath id="clip-path" transform="translate(0 -25.09)"><path class="cls-1" d="M62.22,158.94c26.72-15.54,62.43-24.09,100.53-24.09s73.91,8.55,100.82,24.09v-48.7H62.22Z"/></clipPath><linearGradient id="linear-gradient-2" x1="154.05" y1="130.4" x2="177.94" y2="148.53" gradientTransform="matrix(0.94, 0.33, -0.33, 0.94, 56, -62.02)" gradientUnits="userSpaceOnUse"><stop offset="0" stop-color="#d0c4d7"/><stop offset="1" stop-color="#714f87"/></linearGradient><clipPath id="clip-path-2" transform="translate(0 -25.09)"><path class="cls-1" d="M270.91,222c-28.49,16.56-66.55,25.68-107.17,25.68V183.56H270.91Z"/></clipPath><linearGradient id="linear-gradient-3" x1="266.67" y1="192.05" x2="290.57" y2="210.18" gradientTransform="translate(-80.31 144.2) rotate(-24.59)" xlink:href="#linear-gradient-2"/><clipPath id="clip-path-3" transform="translate(0 -25.09)"><path class="cls-1" d="M50.69,189.72c30.18,17.42,70.34,27,113.08,27V170.62H52.26Z"/></clipPath><linearGradient id="linear-gradient-4" x1="145.23" y1="99.82" x2="169.13" y2="117.95" gradientTransform="translate(-82.05 205.44) rotate(-44.61)" xlink:href="#linear-gradient-2"/><clipPath id="clip-path-4" transform="translate(0 -25.09)"><path class="cls-1" d="M202,164.22s42.91,3.44,42.91,17.22L375.71,36.29,280.09,0Z"/></clipPath></defs><title>bowl_light</title><g id="Layer_2" data-name="Layer 2"><g id="Layer_3" data-name="Layer 3"><path class="cls-2" d="M0,162.52a163.23,163.23,0,1,0,326.45,0Z" transform="translate(0 -25.09)"/><path class="cls-3" d="M152.88,325.41c3.42.22,6.87.34,10.35.34A163.23,163.23,0,0,0,326.45,162.52H310.13l-118,81.62C192.08,293,169.23,315.56,152.88,325.41Z" transform="translate(0 -25.09)"/><path class="cls-4" d="M278.26,95.67c63.95,36.92,64.3,96.78.76,133.71s-166.89,36.92-230.83,0-64.3-96.79-.77-133.71S214.32,58.75,278.26,95.67Z" transform="translate(0 -25.09)"/><path class="cls-5" d="M163.77,252.07c-42.74,0-82.9-9.6-113.08-27C21.26,208.05,5,185.76,5,162.28,5,139,20.93,116.85,49.94,100c30-17.42,70-27,112.75-27s82.89,9.59,113.07,27c29.43,17,45.66,39.28,45.69,62.77,0,23.3-15.93,45.43-44.95,62.29C246.53,242.48,206.5,252.07,163.77,252.07Z" transform="translate(0 -25.09)"/><path class="cls-6" d="M275.76,125.22c-30.18-17.43-70.34-27-113.07-27s-82.78,9.6-112.75,27c-23.69,13.77-38.68,31-43.36,49.61,4.73,18.79,20,36.29,44.11,50.23,30.18,17.42,70.34,27,113.08,27s82.76-9.59,112.73-27c23.7-13.77,38.69-31.05,43.37-49.62C315.14,156.65,299.9,139.15,275.76,125.22Z" transform="translate(0 -25.09)"/><g class="cls-7"><polygon class="cls-2" points="156.83 113.67 149.59 134.09 135.4 117.51 142.69 97.11 156.83 113.67"/><polygon class="cls-4" points="142.69 97.11 156.83 113.67 178.29 109.73 164.1 93.15 142.69 97.11"/><polygon class="cls-8" points="156.83 113.67 149.59 134.09 171.05 130.15 178.23 109.71 156.83 113.67"/></g><g class="cls-9"><polygon class="cls-2" points="242.43 209.4 251.45 229.1 229.72 227.07 220.76 207.34 242.43 209.4"/><polygon class="cls-4" points="220.76 207.34 242.43 209.4 255.1 191.63 233.37 189.6 220.76 207.34"/><polygon class="cls-10" points="242.43 209.4 251.45 229.1 264.12 211.33 255.05 191.65 242.43 209.4"/></g><g class="cls-11"><polygon class="cls-2" points="92.28 175.81 107.5 191.24 86.39 196.77 71.21 181.3 92.28 175.81"/><polygon class="cls-4" points="71.21 181.3 92.28 175.81 98.1 154.78 76.99 160.31 71.21 181.3"/><polygon class="cls-12" points="92.28 175.81 107.5 191.24 113.32 170.2 98.06 154.82 92.28 175.81"/></g><g class="cls-13"><polygon class="cls-14" points="234.24 151.09 344.53 13.53 347.07 16.08 238.04 152.07 234.24 151.09"/><polygon class="cls-2" points="227.61 145.53 321.22 0 344.53 13.53 234.24 151.09 227.61 145.53"/></g></g></g></svg>