<svg xmlns="http://www.w3.org/2000/svg" viewBox="0 0 433.25 268.97"><defs><style>.cls-1{fill:#06b3bb;}.cls-2{fill:#516cb4;}.cls-3{fill:#2bbec5;}.cls-4{fill:#fff;}.cls-5{fill:none;stroke:#fff;stroke-miterlimit:10;stroke-width:1.3px;}.cls-6{fill:#42145f;}</style></defs><title>smatphone_light</title><g id="Layer_2" data-name="Layer 2"><g id="Layer_3" data-name="Layer 3"><path class="cls-1" d="M433.24,190.19h0V172.35l-36.74-7.17L147,21.09c-6.52-3.76-17.05-3.76-23.52,0L18.76,82,0,78.3V96.86H0c0,2.47,1.65,4.94,4.91,6.82L286.22,266.15c6.52,3.77,17,3.76,23.53,0l118.67-69C431.74,195.26,433.33,192.71,433.24,190.19Z"/><path class="cls-2" d="M298.15,108.37V269a23.79,23.79,0,0,0,11.6-2.82l118.67-69c3.32-1.93,4.91-4.48,4.82-7h0V172.35l-36.74-7.18Z"/><path class="cls-3" d="M428.34,165.29c6.52,3.77,6.56,9.86.08,13.63l-118.67,69c-6.48,3.76-17,3.77-23.53,0L4.91,85.41c-6.52-3.76-6.55-9.86-.07-13.63l118.67-69c6.47-3.76,17-3.76,23.52,0Z"/><polygon class="cls-4" points="390.96 154.44 267.21 226.35 32.15 90.5 155.9 18.59 390.96 154.44"/><ellipse class="cls-5" cx="345.36" cy="201.72" rx="9.46" ry="16.33" transform="translate(142.66 546.51) rotate(-89.84)"/><path class="cls-6" d="M79.35,39.83c1.73,1,1.75,2.62,0,3.63a7,7,0,0,1-6.27,0c-1.73-1-1.73-2.63,0-3.63A6.9,6.9,0,0,1,79.35,39.83Z"/><path class="cls-6" d="M383,213.67v2.91a1,1,0,0,1-.5.85l-26.21,15.21a.48.48,0,0,1-.72-.41v-3a.72.72,0,0,1,.36-.62l26.38-15.31A.46.46,0,0,1,383,213.67Z"/></g></g></svg>