<svg xmlns="http://www.w3.org/2000/svg" viewBox="0 0 340.93 420.15"><defs><style>.cls-1{fill:#2bbec5;}.cls-2{fill:#06b3bb;}.cls-3{fill:#fff;}.cls-4{fill:#42145f;}.cls-5{fill:#516cb4;}</style></defs><title>target_light</title><g id="Layer_2" data-name="Layer 2"><g id="Layer_3" data-name="Layer 3"><path class="cls-1" d="M340.93,293.08c.28-99.52-69.7-220.74-156.32-270.74C143.24-1.55,104.54-6.76,77.46,9.05,69.08,13.94,43.9,28.41,43.9,28.41l7.42,1.91C36.19,49.29,27.38,77,27.28,112,27,211.52,97,332.74,183.59,382.75c30.17,17.42,58.38,23.88,82.34,20.72v7.19l28.41-16.51C323,378,340.79,343,340.93,293.08Z"/><path class="cls-2" d="M157.33,38.22C244,88.23,313.93,209.45,313.65,309s-70.73,139.67-157.34,89.66S-.28,227.41,0,127.89,70.72-11.78,157.33,38.22Z"/><path class="cls-1" d="M226.68,376.14c-13.75,0-30.93-5.54-48.37-15.61-35.3-20.38-68.91-56.15-94.63-100.7S43.89,168.5,44,128c.07-22.75,4.61-41,13.13-52.68C64.29,65.49,74.05,60.71,87,60.71c13.74,0,30.92,5.55,48.36,15.62C170.64,96.71,204.25,132.47,230,177s39.79,91.33,39.68,131.82c-.07,22.75-4.61,41-13.14,52.68C249.35,371.37,239.6,376.14,226.68,376.14Z"/><path class="cls-2" d="M195.22,305.23c-7.57,0-43.53-14.19-73.74-66.53-30.49-52.82-24.27-92.59-19.57-99,3.94-5.41,9.31-8,16.42-8,7.56,0,43.84,9.42,74.74,66.36s23.26,92.76,18.57,99.21C207.7,302.6,202.33,305.23,195.22,305.23Z"/><polygon class="cls-3" points="157.09 175.68 167.08 205.53 190.07 222.37 173.24 231.1 177.32 259.74 156.92 235.29 136.46 236.15 140.69 212.31 123.95 184.19 146.97 193.92 157.09 175.68"/><path class="cls-4" d="M265.93,410.65h0l.47-.27Z"/><path class="cls-5" d="M335.86,243.93l-27.29,15.81h0A248.16,248.16,0,0,1,313.65,309c-.14,48.42-16.89,82.77-44,99.54l24.7-14.36C323,378,340.79,343,340.93,293.08A248.12,248.12,0,0,0,335.86,243.93Z"/></g></g></svg>