<svg viewBox="0 0 240.49 501.23" xmlns="http://www.w3.org/2000/svg"><path d="m43.22.71a45.35 45.35 0 0 0 -6.43 2 55.61 55.61 0 0 0 -14.33 7.69l14.31-2.25 3.82-4.41c9.68.26 25.54 4.92 25.54 32.61l.09 75.89 7.78 4.49s.1-62.46.1-80.6c.01-24.41-12.78-39.67-30.88-35.42z" fill="#06b3bb"/><path d="m30.72 397.37 6.35-3.66a58.65 58.65 0 0 0 29.14-49.54v-251.17l-65.84 37.85-.37 248.7a20.49 20.49 0 0 0 30.72 17.82z" fill="#32bdc7"/><path d="m240.49 194.03v251.18l-175.1-68.01.83-284.27z" fill="#00adb9"/><path d="m175.48 231.94-.67 246.02 9.24 19.91-172.94-100.04-11.11-20.66.37-246.32z" fill="#38c2c9"/><path d="m205.47 498.47 6.35-3.66a57.24 57.24 0 0 0 28.67-49.59v-251.22l-65 37.91-.73 248.71a20.49 20.49 0 0 0 30.71 17.85z" fill="#516cb3"/><path d="m66.22 92.93v75.81l-65.85-37.89z" fill="#516cb3"/><path d="m203.27 107.47c-18.66 7.72-35.6 27.62-35.6 63l8.9-14.43s8.28-32.45 20.9-41.67z" fill="#38c2c9"/><path d="m183.26 250.42h-7.79v-85.54c0-29.19 9.12-46.54 26.1-56.5 7.93-4.64 18.22-5 26.19-.48a25 25 0 0 1 12.73 22v80.45h-7.79v-80.49a17.34 17.34 0 0 0 -8.81-15.2c-5.52-3.16-12.89-2.76-18.38.45-14.61 8.56-22.25 24-22.25 41z" fill="#516cb4"/><path d="m175.47 156.07v94.35h-7.8v-80.87" fill="#38c2c9"/><path d="m8.17 135.33-7.8-4.48.1-76.11a55.88 55.88 0 0 1 27.53-48.05 25.32 25.32 0 0 1 38.12 21.84l.09 64.9-7.79 4.43-.09-69.33a17.53 17.53 0 0 0 -26.33-15.12 48.08 48.08 0 0 0 -23.74 41.33z" fill="#516cb4"/><path d="m.47 54.74-.1 76.11 7.8 4.48s.09-61.69.09-80.59 3.49-35.84 25.33-50.5a29.75 29.75 0 0 0 -9.54 5c-9.56 7.05-23.58 21.34-23.58 45.5z" fill="#38c2c9"/><path d="m52.56 279.82 9 23.57-.02 6.8-7.72 4.4-11.94-20.69-2.85 1.62 1.89 3.27-4.48 2.55-9.13-15.81 17.02-10.47z" fill="#516cb3"/><g fill="#33bdc7"><path d="m45.25 212.02-.05 14.81-2.07-1.2-3.24-16.7z"/><path d="m54.87 215.18 3.02 1.88-.04 12.88 3.78 2.19v1.8l-3.51 2-9.82-17.01z"/><path d="m57.3 196.51-.03 11.32-9.7 5.53-3.13-5.42.01-6.44 10.6-6.28z"/></g><path d="m90.59 212.48-8.23 12.97-.02 6.85 27.18 15.69-.02 6.27-10 17.36-.03 7.61-13.41-2.83 20.32 11.74-.02 6.69-16.41 12.18-8.28-4.78-5.58 3.17-9.36-16.21 8.01-4.57.02-5.67-3.23-5.59-7.22-4.17-.03 13.2-2.07-1.19.07-24.45-7.25-4.19.03-12.06 7.72-4.4.02-5.5-2.95-1.7.02-6.61 10.83-21.29z" fill="#fff"/><path d="m106.36 294.83 28.74 79.1-3.96 2.25 21.79 12.58-.05 17.45-15.65 8.92 15.21 8.78-.01 2.08-13.19 7.51-51.55-29.76-.02 5.92-13.11-7.57-5.4 3.67-8.61-4.98 18.55-13.7 13.63 7.87 5.33-7.94-11.62 2.4-9.66-16.72-5.09 1.29-5.43-10.42 14.99-4.91-6.89-23.72 19.54 11.28-4-19.69.05-19.51z" fill="#f5f3f7"/></svg>