<svg viewBox="0 0 320.65 396.39" xmlns="http://www.w3.org/2000/svg" xmlns:xlink="http://www.w3.org/1999/xlink"><linearGradient id="a" gradientUnits="userSpaceOnUse" x1="251.09" x2="309.48" y1="240.42" y2="404.61"><stop offset=".3" stop-color="#42145f" stop-opacity=".25"/><stop offset="1" stop-color="#42145f" stop-opacity=".75"/></linearGradient><path d="m320.65 277.72c.27-94.57-66.24-209.72-148.54-257.28-41.38-23.89-78.87-26.12-105.96-10.44l-22.8 13.15 3.13 3.59c-15 18.05-23.79 44.81-23.88 78.9-.27 94.58 66.23 209.77 148.54 257.29 29.52 17.07 57.07 23.07 80.27 19.41l3.32 3.91s14.29-8.42 20.34-11.78c27.77-15.41 45.44-48.55 45.58-96.75z" fill="#fff"/><path d="m251.41 382.34 3.32 3.91s14.29-8.42 20.34-11.78c27.77-15.41 45.44-48.55 45.58-96.75a244.58 244.58 0 0 0 -7.8-59.91l-34.17 19.59-46.62 145.77a88.71 88.71 0 0 0 19.35-.83z" fill="url(#a)"/><path d="m149.51 33.46c82.31 47.54 148.81 162.71 148.54 257.28s-67.21 132.73-149.51 85.26-148.81-162.76-148.54-257.34 67.21-132.72 149.51-85.2z" fill="#f5f3f7"/><path d="m215.41 377c-17.19 0-37-6.17-57.18-17.85-36.91-21.3-71.76-58.2-98.14-103.9s-40.83-94.16-40.71-136.53c.15-54 23.8-86.32 63.27-86.32 17.18 0 36.95 6.17 57.17 17.84 36.91 21.31 71.77 58.21 98.15 103.9s40.83 94.18 40.71 136.55c-.16 54.06-23.81 86.31-63.27 86.31z" fill="none" stroke="#42145f" stroke-miterlimit="10" stroke-width="3"/><path d="m109.52 76.53a24.45 24.45 0 0 0 -3.3 1 28.44 28.44 0 0 0 -7.34 3.94l7.33-1.16 2-2.26c5 .14 13.09 2.52 13.09 16.73v38.92l4 2.3s0-32 0-41.34c.06-12.48-6.5-20.3-15.78-18.13z" fill="#06b3bb"/><path d="m103.11 280 3.26-1.87a30.11 30.11 0 0 0 14.95-25.41v-128.86l-33.77 19.42-.19 127.56a10.5 10.5 0 0 0 15.75 9.16z" fill="#32bdc7"/><path d="m210.7 175.69v128.82l-89.81-34.88.43-145.8z" fill="#00adb9"/><path d="m177.35 195.13-.34 126.18 4.74 10.21-88.7-51.31-5.69-10.6.19-126.33z" fill="#38c2c9"/><path d="m192.74 331.83 3.26-1.83a29.37 29.37 0 0 0 14.7-25.44v-128.87l-33.35 19.44-.35 127.56a10.52 10.52 0 0 0 15.74 9.14z" fill="#516cb4"/><path d="m121.32 123.83v38.88l-33.77-19.43z" fill="#516cb4"/><path d="m191.61 131.29c-9.57 4-18.26 14.17-18.26 32.33l4.56-7.4s4.25-16.65 10.72-21.38z" fill="#38c2c9"/><path d="m181.35 204.61h-4v-43.87c0-15 4.68-23.88 13.39-29a13.63 13.63 0 0 1 13.43-.25 12.83 12.83 0 0 1 6.53 11.26v41.25h-4v-41.23a8.88 8.88 0 0 0 -4.52-7.79 9.67 9.67 0 0 0 -9.42.23c-7.49 4.39-11.41 12.32-11.41 21z" fill="#516cb4"/><path d="m177.35 156.22v48.39h-4v-41.48" fill="#38c2c9"/><path d="m91.54 145.58-4-2.3v-39a28.68 28.68 0 0 1 14.18-24.68 13 13 0 0 1 19.55 11.2v33.29l-4 2.27v-35.56a9 9 0 0 0 -13.53-7.75 24.66 24.66 0 0 0 -12.15 21.2z" fill="#516cb4"/><path d="m87.59 104.25v39l4 2.3s0-31.64 0-41.33 1.79-18.38 13-25.9a15.28 15.28 0 0 0 -4.89 2.56c-4.91 3.65-12.11 10.98-12.11 23.37z" fill="#38c2c9"/><path d="m74.94 278.79 148.17-148.17" fill="none" stroke="#42145f" stroke-miterlimit="10" stroke-width="3"/></svg>