<svg viewBox="0 0 347.07 300.66" xmlns="http://www.w3.org/2000/svg" xmlns:xlink="http://www.w3.org/1999/xlink"><linearGradient id="a" gradientUnits="userSpaceOnUse" x1="228.33" x2="352.77" y1="233.68" y2="346.59"><stop offset="0" stop-color="#d0c4d7"/><stop offset=".89" stop-color="#714f87"/></linearGradient><clipPath id="b" transform="translate(0 -25.09)"><path d="m62.22 158.94c26.72-15.54 62.43-24.09 100.53-24.09s73.91 8.55 100.82 24.09v-48.7h-201.35z"/></clipPath><linearGradient id="c" gradientTransform="matrix(.94 .33 -.33 .94 56 -62.02)" gradientUnits="userSpaceOnUse" x1="154.05" x2="177.94" y1="130.4" y2="148.53"><stop offset="0" stop-color="#d0c4d7"/><stop offset="1" stop-color="#714f87"/></linearGradient><clipPath id="d" transform="translate(0 -25.09)"><path d="m270.91 222c-28.49 16.56-66.55 25.68-107.17 25.68v-64.12h107.17z"/></clipPath><linearGradient id="e" gradientTransform="matrix(.90930875 -.41612209 .41612209 .90930875 -80.31 144.2)" x1="266.67" x2="290.57" xlink:href="#c" y1="192.05" y2="210.18"/><clipPath id="f" transform="translate(0 -25.09)"><path d="m50.69 189.72c30.18 17.42 70.34 27 113.08 27v-46.1h-111.51z"/></clipPath><linearGradient id="g" gradientTransform="matrix(.71190349 -.70227731 .70227731 .71190349 -82.05 205.44)" x1="145.23" x2="169.13" xlink:href="#c" y1="99.82" y2="117.95"/><clipPath id="h" transform="translate(0 -25.09)"><path d="m202 164.22s42.91 3.44 42.91 17.22l130.8-145.15-95.62-36.29z"/></clipPath><g transform="translate(0 -25.09)"><path d="m0 162.52a163.23 163.23 0 1 0 326.45 0z" fill="#f5f3f7"/><path d="m152.88 325.41c3.42.22 6.87.34 10.35.34a163.23 163.23 0 0 0 163.22-163.23h-16.32l-118 81.62c-.05 48.86-22.9 71.42-39.25 81.27z" fill="url(#a)"/><path d="m278.26 95.67c63.95 36.92 64.3 96.78.76 133.71s-166.89 36.92-230.83 0-64.3-96.79-.77-133.71 166.9-36.92 230.84 0z" fill="#fff"/><path d="m163.77 252.07c-42.74 0-82.9-9.6-113.08-27-29.43-17.02-45.69-39.31-45.69-62.79 0-23.28 15.93-45.43 44.94-62.28 30-17.42 70-27 112.75-27s82.89 9.59 113.07 27c29.43 17 45.66 39.28 45.69 62.77 0 23.3-15.93 45.43-44.95 62.29-29.97 17.42-70 27.01-112.73 27.01z" fill="#06b3bb"/><path d="m275.76 125.22c-30.18-17.43-70.34-27-113.07-27s-82.78 9.6-112.75 27c-23.69 13.77-38.68 31-43.36 49.61 4.73 18.79 20 36.29 44.11 50.23 30.18 17.42 70.34 27 113.08 27s82.76-9.59 112.73-27c23.7-13.77 38.69-31.05 43.37-49.62-4.73-18.79-19.97-36.29-44.11-50.22z" fill="#516cb4"/></g><g clip-path="url(#b)"><path d="m156.83 113.67-7.24 20.42-14.19-16.58 7.29-20.4z" fill="#f5f3f7"/><path d="m142.69 97.11 14.14 16.56 21.46-3.94-14.19-16.58z" fill="#fff"/><path d="m156.83 113.67-7.24 20.42 21.46-3.94 7.18-20.44z" fill="url(#c)"/></g><g clip-path="url(#d)"><path d="m242.43 209.4 9.02 19.7-21.73-2.03-8.96-19.73z" fill="#f5f3f7"/><path d="m220.76 207.34 21.67 2.06 12.67-17.77-21.73-2.03z" fill="#fff"/><path d="m242.43 209.4 9.02 19.7 12.67-17.77-9.07-19.68z" fill="url(#e)"/></g><g clip-path="url(#f)"><path d="m92.28 175.81 15.22 15.43-21.11 5.53-15.18-15.47z" fill="#f5f3f7"/><path d="m71.21 181.3 21.07-5.49 5.82-21.03-21.11 5.53z" fill="#fff"/><path d="m92.28 175.81 15.22 15.43 5.82-21.04-15.26-15.38z" fill="url(#g)"/></g><g clip-path="url(#h)"><path d="m234.24 151.09 110.29-137.56 2.54 2.55-109.03 135.99z" fill="#38c2c9"/><path d="m227.61 145.53 93.61-145.53 23.31 13.53-110.29 137.56z" fill="#f5f3f7"/></g></svg>