<svg xmlns="http://www.w3.org/2000/svg" viewBox="0 0 214.34 309.74"><defs><style>.cls-1{fill:#06b3bb}.cls-2{fill:#fff}.cls-3{fill:#516cb4}.cls-4{fill:#2bbec5}.cls-5{fill:#42145f}</style></defs><g id="Layer_2" data-name="Layer 2"><g id="Layer_3" data-name="Layer 3"><path class="cls-1" d="M71.37 242.88L71.37 309.74 0 268.54 0 201.68 71.37 242.88z"/><path class="cls-2" d="M214.34 159.72L71.37 242.88 0 201.68 142.97 118.52 214.34 159.72z"/><path class="cls-3" d="M71.37 309.74L71.37 242.88 214.34 159.72 214.34 226.58 71.37 309.74z"/><path class="cls-4" d="M180.87 199c5.83-3.37 10.58-.66 10.6 6s-4.7 14.87-10.53 18.24-10.58.66-10.6-6S175 202.37 180.87 199z"/><path class="cls-1" d="M180.87 199a21.43 21.43 0 0 0-7.35 7.69l14.93 8.62a21.36 21.36 0 0 0 3-10.27c0-6.7-4.75-9.41-10.58-6.04z"/><path class="cls-4" d="M142.82 222.59c5.83-3.36 10.58-.66 10.59 6s-4.69 14.87-10.52 18.24-10.58.66-10.6-6S137 226 142.82 222.59z"/><path class="cls-1" d="M142.82 222.59a21.51 21.51 0 0 0-7.35 7.69l14.93 8.62a21.32 21.32 0 0 0 3-10.27c0-6.7-4.75-9.41-10.58-6.04z"/><path class="cls-4" d="M104.76 246.19c5.84-3.37 10.58-.67 10.6 6s-4.69 14.87-10.53 18.24-10.57.67-10.59-6 4.69-14.88 10.52-18.24z"/><path class="cls-1" d="M104.76 246.19a21.38 21.38 0 0 0-7.34 7.68l14.93 8.62a21.32 21.32 0 0 0 3-10.27c-.01-6.7-4.75-9.4-10.59-6.03z"/><path class="cls-3" d="M71.37 183.64L71.37 242.97 0 201.77 0 142.44 71.37 183.64z"/><path class="cls-2" d="M214.34 100.48L71.37 183.64 0 142.44 142.97 59.28 214.34 100.48z"/><path class="cls-5" d="M71.37 242.97L71.37 183.64 214.34 100.48 214.34 159.81 71.37 242.97z"/><path class="cls-5" d="M163.84 88.55c6.69 3.87 6.73 10.14.06 14s-17.5 3.87-24.2 0-6.74-10.15-.07-14 17.5-3.87 24.21 0z"/><path class="cls-3" d="M163.84 88.55c-4-2.28-9.33-3.21-14.44-2.8v19.61c5.14.42 10.55-.5 14.5-2.79 6.67-3.88 6.63-10.15-.06-14.02z"/><path class="cls-5" d="M119.24 114.45c6.7 3.87 6.73 10.14.07 14s-17.51 3.87-24.2 0-6.75-10.15-.08-14 17.5-3.87 24.21 0z"/><path class="cls-3" d="M119.24 114.45c-3.95-2.28-9.32-3.21-14.44-2.8v19.62c5.15.42 10.56-.51 14.51-2.8 6.69-3.88 6.63-10.15-.07-14.02z"/><path class="cls-5" d="M74.64 140.35c6.7 3.87 6.73 10.15.07 14s-17.5 3.88-24.2 0-6.74-10.15-.08-14 17.5-3.87 24.21 0z"/><path class="cls-3" d="M74.64 140.35c-4-2.28-9.32-3.2-14.44-2.8v19.62c5.15.42 10.56-.5 14.51-2.8 6.66-3.87 6.63-10.15-.07-14.02z"/><path class="cls-1" d="M71.37 124.37L71.37 183.7 0 142.49 0 83.16 71.37 124.37z"/><path class="cls-4" d="M214.34 41.2L71.37 124.37 0 83.16 142.97 0 214.34 41.2z"/><path class="cls-3" d="M71.37 183.7L71.37 124.37 214.34 41.2 214.34 100.53 71.37 183.7z"/><path class="cls-3" d="M163.84 29.27c6.69 3.87 6.73 10.15.06 14s-17.5 3.87-24.2 0-6.74-10.15-.07-14 17.5-3.87 24.21 0z"/><path class="cls-1" d="M163.84 29.27c-4-2.28-9.33-3.2-14.44-2.8v19.62c5.14.42 10.55-.51 14.5-2.8 6.67-3.87 6.63-10.15-.06-14.02z"/><path class="cls-3" d="M119.24 55.17c6.7 3.87 6.73 10.15.07 14s-17.51 3.88-24.2 0-6.75-10.15-.08-14 17.5-3.87 24.21 0z"/><path class="cls-1" d="M119.24 55.17c-3.95-2.27-9.32-3.2-14.44-2.8V72c5.15.42 10.56-.5 14.51-2.8 6.69-3.88 6.63-10.2-.07-14.03z"/><path class="cls-3" d="M74.64 81.08c6.7 3.86 6.73 10.14.07 14s-17.5 3.88-24.2 0-6.74-10.15-.08-14 17.5-3.88 24.21 0z"/><path class="cls-1" d="M74.64 81.08c-4-2.28-9.32-3.21-14.44-2.81v19.62c5.15.42 10.56-.5 14.51-2.8 6.66-3.87 6.63-10.15-.07-14.01z"/></g></g></svg>