<svg viewBox="0 0 482.19 366.94" xmlns="http://www.w3.org/2000/svg"><path d="m305.41 364.69s13.18-7.64 16.59-9.54c5.55-3.1 9.08-9.74 9.11-19.38.05-19-13.29-42.06-29.78-51.58-8.38-4.84-15.93-5.21-21.4-2-3.61 2.12-17.54 10.11-17.54 10.11z" fill="#516cb4"/><path d="m284 294.19c16.49 9.52 29.83 32.62 29.78 51.58s-13.48 26.6-30 17.08-29.85-32.62-29.78-51.58 13.46-26.61 30-17.08z" fill="#06b3bb"/><path d="m297.18 356.73c-1.63 0-4.4-.47-8.3-2.73-13.42-7.74-24.73-27.3-24.68-42.7 0-9.57 4-11 6.36-11 1.63 0 4.39.47 8.3 2.73 13.42 7.75 24.72 27.31 24.68 42.71-.03 9.57-4 10.99-6.36 10.99z" fill="#f5f3f7"/><path d="m71.79 230.3s13.18-7.65 16.59-9.55c5.55-3.1 9.08-9.74 9.11-19.38.05-19-13.29-42.06-29.78-51.58-8.38-4.84-15.94-5.21-21.4-2-3.61 2.12-17.54 10.11-17.54 10.11z" fill="#516cb4"/><path d="m50.34 159.79c16.5 9.52 29.84 32.62 29.79 51.58s-13.49 26.6-30 17.08-29.84-32.62-29.78-51.58 13.49-26.61 29.99-17.08z" fill="#06b3bb"/><path d="m63.56 222.33c-1.63 0-4.4-.47-8.31-2.73-13.42-7.74-24.72-27.3-24.67-42.7 0-9.57 4-11 6.36-11 1.63 0 4.39.47 8.3 2.73 13.42 7.75 24.72 27.31 24.68 42.71-.03 9.57-4 10.99-6.36 10.99z" fill="#f5f3f7"/><path d="m467.3 226.35-134.91-134.67-113.39-65.56-80.21-11.78-26.12-14.34-90.14 51.47v22.53a47 47 0 0 0 -12.8 32.23v12.07l-3 1.82a13.93 13.93 0 0 0 -6.73 11.94v38.23l14.61 8.47c0-.64 0-1.28 0-1.91 0-16.12 9-26.95 22.36-26.95 5.21 0 10.7 1.64 16.3 4.88 18.35 10.61 32.73 35.48 32.65 56.61a38.27 38.27 0 0 1 -.88 8.15l163.25 94.54c-.06-.95-.09-1.89-.09-2.83.05-16.12 9-26.95 22.36-26.95 5.21 0 10.7 1.64 16.3 4.87 18.38 10.62 32.74 35.49 32.68 56.62a37.63 37.63 0 0 1 -1.07 8.94l6.89 4a61.07 61.07 0 0 0 61.15 0l81.92-47.34a27.56 27.56 0 0 0 13.76-23.85v-25.26a50.75 50.75 0 0 0 -14.89-35.93z" fill="#2bbec5"/><path d="m380.66 310.89 56.77-20.66 34.29-31.54-29.62 37.99z" fill="#42145f"/><path d="m471.72 258.69 9.84-4.35a50.78 50.78 0 0 0 -14.26-28l-26.44-26.34 14.23 34a44.36 44.36 0 0 0 5.26 9.29z" fill="#f5f3f7"/><path d="m316.28 269.63 25.78 5.5a44.44 44.44 0 0 1 28.12 19.45l10.48 16.31-39.31 9.11z" fill="#f5f3f7"/><path d="m356 366.94a61 61 0 0 0 30.55-8.19l81.92-47.34a27.56 27.56 0 0 0 13.76-23.85v-25.28a50.76 50.76 0 0 0 -2.07-14.35l-38 48.75-100.81 23.32-8.89 42.25a61 61 0 0 0 23.54 4.69z" fill="#516cb4"/><path d="m334.32 296.73-100.52-151.03-109.09-65-76.08-13.97-26.1-15.26v22.53a47 47 0 0 0 -12.8 32.23v12.07l-3 1.82a13.93 13.93 0 0 0 -6.73 11.94v38.23l14.61 8.47c0-.64 0-1.28 0-1.91 0-16.12 9-26.95 22.36-26.95 5.21 0 10.7 1.64 16.3 4.88 18.35 10.61 32.73 35.48 32.65 56.61a38.27 38.27 0 0 1 -.88 8.15l163.25 94.54c-.06-.95-.09-1.89-.09-2.83.05-16.12 9-26.95 22.36-26.95 5.21 0 10.7 1.64 16.3 4.87 18.38 10.62 32.74 35.49 32.68 56.62a37.63 37.63 0 0 1 -1.07 8.94l6.89 4a60.79 60.79 0 0 0 16 6.44v-45.17a41.93 41.93 0 0 0 -7.04-23.27z" fill="#06b3bb"/><g fill="#fff"><path d="m238.79 146.93 92.99-50.96 79.08 78.95-110.86 63.97z"/><path d="m58.51 65.01 80.98-47.06 69.09 10.16-84.5 48.91z"/><path d="m164 108.13-40.53-24.16-62.59-11.46 13.65 49.09 89.47 51.52z"/><path d="m231.34 148.28-53.99-32.19v64.71l103.92 59.84v-17.35z"/></g></svg>