<svg viewBox="0 0 211.2 254.08" xmlns="http://www.w3.org/2000/svg"><path d="m78 12.81-24.32 14.09 5.57.53c-22.18 22.5-35.31 58.23-35.44 105l163 121.68 23.81-13.84.61-214.63c-52.12-30.1-99.29-32.78-133.23-12.83z" fill="#2bbec5"/><path d="m187.39 39.45-.61 214.63-186.78-107.84c.34-118.54 84.23-166.35 187.39-106.79z" fill="#06b3bb"/><path d="m211.2 25.61-23.81 13.84-.61 214.62 23.81-13.83z" fill="#516cb4"/><g fill="#fff"><path d="m37.38 167.82c0-8.81-6.17-19.55-13.84-24s-13.9-.82-13.93 7.97l27.77 16z"/><path d="m45.7 62.67a25.21 25.21 0 0 1 6.92 6.14c6.63 8.24 8.88 19.32 5 24.73-2.58 3.64-7.26 3.8-12.06 1a25.7 25.7 0 0 1 -6.93-6.14c-6.62-8.24-8.87-19.31-5-24.74 2.59-3.6 7.27-3.76 12.07-.99z"/><path d="m105.63 28.48c4.8 2.77 9.46 8.33 12 14.93 3.81 9.85 1.51 18.3-5.15 18.87a12.1 12.1 0 0 1 -6.93-1.86c-4.8-2.77-9.46-8.33-12-14.93-3.81-9.86-1.55-18.3 5.15-18.87a12 12 0 0 1 6.93 1.86z"/><path d="m187.36 50.49c-7.67-4.43-13.9-.87-13.93 7.94s6.17 19.55 13.84 24l.09-31.92z"/></g><path d="m179.2 249.67 7.58 4.4v-151.91l-7.58-4.41z" fill="#42145f"/><path d="m147.13 124.36 30.55 124.46 9.1 5.25-32.19-131.15z" fill="#42145f"/></svg>