<svg enable-background="new 0 0 64 30" viewBox="0 0 64 30" xmlns="http://www.w3.org/2000/svg"><g fill="#3b579d"><path d="m14.7 22.2v-7h2.4l.4-2.7h-2.7v-1.8c0-.8.2-1.3 1.4-1.3h1.5v-2.5c-.7-.1-1.4-.1-2.1-.1-2-.2-3.6 1.2-3.7 3v.6 2h-2.4v2.7h2.4v7h2.8z"/><path d="m58.6 0-.4.4 3.6.9-3.9 3.9.7.7 3.8-3.9.9 3.6.4-.5v-5.1z"/><path d="m28.5 14h-.1c-.4-.3-.8-.5-1.3-.5-.6 0-1 .2-1 .7s.3.7 1.2 1c1.2.4 1.9.7 1.9 1.8s-.7 1.8-2.2 1.8c-.8 0-1.5-.2-2.1-.7l.4-.7h.1c.5.4 1.1.6 1.7.6.7 0 1.1-.3 1.1-.8 0-.6-.3-.8-1.5-1.1-1.2-.4-1.6-.9-1.6-1.8 0-1.1.9-1.7 2-1.7.7 0 1.3.2 1.9.6z"/><path d="m31.4 13.7c.6-.6 1.4-.9 2.1-.9 1.2 0 1.7.6 1.7 1.7v4.3h-1.1v-4c0-.8-.3-1.1-1-1.1-.6 0-1.2.3-1.6.7v4.4h-1.1v-8.4l.9-.1h.2z"/><path d="m36.5 13.2c.7-.3 1.4-.5 2.2-.5 1.4 0 2.1.6 2.1 1.7v3.2c0 .4.2.5.4.5.1 0 .2 0 .3-.1h.1l.1.6c-.3.1-.5.2-.8.2-.6 0-1-.2-1.1-.9h-.1c-.4.6-1 .9-1.7.9-1 0-1.7-.5-1.7-1.5s.5-1.3 1.6-1.7l1.7-.5v-.5c0-.8-.2-1.1-1.2-1.1-.5 0-1.1.2-1.6.4h-.1zm3.2 4.3v-1.7l-1.3.4c-.7.2-.9.5-.9 1 0 .7.4.9.9.9.4 0 .9-.3 1.3-.6z"/><path d="m43.7 13.7c.3-.6.8-.9 1.5-.9.2 0 .4 0 .6.1l-.2 1h-.1c-.2-.1-.3-.1-.5-.1-.5 0-1 .3-1.2.7v4.3h-1.1v-5.9l.8-.1h.2z"/><path d="m49.1 18.8c-1.8 0-2.9-1.2-2.9-3.1s1.2-3 2.6-3c1.7 0 2.5 1.1 2.5 3.3h-3.9c.1 1.2.6 2.1 1.9 2.1.6 0 1.1-.2 1.6-.6h.1l.3.6c-.7.5-1.4.8-2.2.7zm1.1-3.6c0-1.1-.4-1.8-1.4-1.8s-1.4.7-1.5 1.9h2.9z"/><path d="m61.6 7.3-.7.7c3.9 6.7 1.5 15.3-5.2 19.2-2.1 1.2-4.5 1.8-6.9 1.9h-33.8c-7.8 0-14.1-6.3-14.1-14.1s6.3-14.1 14.1-14.1h33.7c2.5 0 5 .7 7.2 2l.7-.7c-2.4-1.4-5.1-2.2-7.9-2.2h-33.7c-8.3 0-15 6.7-15 15s6.7 15 15 15h33.7c8.3 0 15-6.7 15-15 0-2.7-.7-5.3-2.1-7.7z"/></g></svg>