<svg viewBox="0 0 258.12 347.04" xmlns="http://www.w3.org/2000/svg" xmlns:xlink="http://www.w3.org/1999/xlink"><linearGradient id="a" gradientUnits="userSpaceOnUse" x1="167" x2="212.51" y1="322.77" y2="353.14"><stop offset="0" stop-color="#d0c4d7"/><stop offset=".94" stop-color="#714f87"/></linearGradient><path d="m61.57 308c.06 10 6.71 20 19.93 27.64 26.44 15.26 69.17 15.26 95.43 0 13.14-7.64 19.67-17.64 19.62-27.64v-5.9h-135z" fill="#f5f3f7"/><path d="m141.83 346.35c12.87-1.4 25.17-5 35.1-10.76 13.14-7.59 19.67-17.59 19.62-27.59v-5.9h-54.72z" fill="url(#a)"/><path d="m176.62 274.46c26.45 15.26 26.58 40 .31 55.28s-69 15.27-95.43 0-26.59-40-.32-55.28 69-15.27 95.44 0z" fill="#fff"/><path d="m23.81 202.39c.19 66.79 47.47 93.73 105.59 60.17v30" fill="none" stroke="#516cb4" stroke-miterlimit="10"/><circle cx="129.06" cy="141.63" fill="#fff" r="129.06"/><g fill="#06b3bb"><path d="m239.78 208.55-10.84-10.84-35.49 31.78 14.55 14.51a129.87 129.87 0 0 0 31.78-35.45z"/><path d="m98.72 249.1-9.29 9.29h-15.07a129.51 129.51 0 0 0 87.3 8.23v-4.93h-50.35z"/><path d="m35.61 230.64-6.85-31.19 5.84-23.61v-31.79l-31.34-31.35a129.26 129.26 0 0 0 32.35 117.94z"/><path d="m9.81 92.1 53.19-40.1v-14.85h15.72v7.85l37.56-19.4-17.49-9.47a129.34 129.34 0 0 0 -88.98 75.97z"/></g><path d="m128.72 15.58c-58.13 33.56-105.1 120.02-104.91 186.81.14 49.28 25.92 76.87 62.78 74.46" fill="none" stroke="#516cb4" stroke-miterlimit="10"/><path d="m128.72 0v20.69" fill="none" stroke="#516cb4" stroke-miterlimit="10"/><path d="m246.67 89.16-15.67-12.53v-3.82l7.18-.07a129 129 0 0 0 -39.68-40.13h-57.06l-26.44 16.51v7.43h-20l-11.35 19.81h40.45l14.9 23.53h-23.7l-9.3-14.45h-26.48l-24.76 38.36v11.76h36.05v80.31h7.58l46.35-70.71v-15l-5.74-14.59h8.26l14.86 35.09 21.88-21.47 7.84 6.37-8.16 9.44 17.19 17.65v-15.3l6.86-9.49h5.53v9.91l15.27 12v-20.67h15.17v-14l-10-23.87h13z" fill="#06b3bb"/></svg>