<svg viewBox="0 0 430.64 304.68" xmlns="http://www.w3.org/2000/svg" xmlns:xlink="http://www.w3.org/1999/xlink"><linearGradient id="a" gradientUnits="userSpaceOnUse" x1="15.86" x2="159.03" y1="215.59" y2="318.04"><stop offset="0" stop-color="#d0c4d7"/><stop offset="1" stop-color="#714f87"/></linearGradient><linearGradient id="b" x1="373.77" x2="465.35" xlink:href="#a" y1="52.69" y2="119.72"/><path d="m341.33 131a12.68 12.68 0 0 1 11.52 18l-41.92 91a27.54 27.54 0 0 1 -25.77 16l-112.81-3z" fill="#06b3bb"/><path d="m430.62 34-47.27-31-126.73 73.48-56.36 16.74 28.39 21.27-57.65 128.51a15.65 15.65 0 0 1 -15.42 9.2 15.79 15.79 0 0 0 14.5 15.74l88.28 6.91a25.08 25.08 0 0 0 24.59-14.2l66.67-139.52 81-44.84z" fill="#516cb4"/><path d="m2.6 222.92 120.11-68 67.15-61.72h121a21.27 21.27 0 0 1 -21.27 21.27h-60.94l-58.87 131.19a11.42 11.42 0 0 1 -11.25 6.71l-28.53-1.93-83.32 48.56z" fill="#06b3bb"/><path d="m46.82 248.3-.14 56.37-46.68-26.64.14-56.37z" fill="#f5f3f7"/><g fill="#fff"><path d="m107.35 214.02-60.53 34.28-46.69-26.72 60.68-34.36z"/><path d="m430.63 26.8-60.53 34.28-46.69-26.73 60.68-34.35z"/><path d="m107.35 214.02-60.53 34.28-.14 56.38 60.53-34.29z"/></g><path d="m107.35 214.02-60.53 34.28-.14 56.38 60.53-34.29z" fill="url(#a)"/><path d="m430.64 26.79-60.53 34.28-.14 56.38 60.53-34.29z" fill="url(#b)"/><path d="m93 242c3-1.75 5.51-.34 5.52 3.16a12.1 12.1 0 0 1 -5.49 9.5c-3 1.76-5.52.35-5.53-3.15a12.1 12.1 0 0 1 5.5-9.51z" fill="#42145f"/><path d="m382.37 74.77c3-1.75 5.51-.34 5.52 3.16a12.09 12.09 0 0 1 -5.48 9.5c-3.05 1.76-5.52.35-5.53-3.14a12.12 12.12 0 0 1 5.49-9.52z" fill="#42145f"/><path d="m323.41 34.35v3.27l2.86-1.63z" fill="#516cb4"/><path d="m369.97 117.45-6.41-3.88 6.41-3.57z" fill="#fff"/></svg>