<svg xmlns="http://www.w3.org/2000/svg" xmlns:xlink="http://www.w3.org/1999/xlink" viewBox="0 0 506.3 576.85"><defs><style>.cls-1,.cls-18{fill:none;stroke:#516cb3;stroke-miterlimit:10;}.cls-1{stroke-width:2px;}.cls-2{fill:#00b0bc;}.cls-3{fill:#fff;}.cls-4{fill:#c9c5c5;}.cls-5{isolation:isolate;}.cls-6{fill:#6f2c91;}.cls-7{fill:#516cb3;}.cls-8{fill:url(#linear-gradient);}.cls-9{fill:#f6f3f7;}.cls-10{fill:url(#linear-gradient-2);}.cls-11{fill:url(#linear-gradient-3);}.cls-12{fill:url(#linear-gradient-4);}.cls-13{fill:url(#linear-gradient-5);}.cls-14{fill:#33c0c9;}.cls-15{fill:url(#linear-gradient-6);}.cls-16{fill:url(#linear-gradient-7);}.cls-17{fill:url(#linear-gradient-8);}</style><linearGradient id="linear-gradient" x1="276.02" y1="62.18" x2="298.42" y2="85.57" gradientUnits="userSpaceOnUse"><stop offset="0" stop-color="#d1c2d8"/><stop offset="1" stop-color="#77488a"/></linearGradient><linearGradient id="linear-gradient-2" x1="337.79" y1="91.95" x2="351.49" y2="106.89" xlink:href="#linear-gradient"/><linearGradient id="linear-gradient-3" x1="279.58" y1="124.06" x2="322.05" y2="166.52" xlink:href="#linear-gradient"/><linearGradient id="linear-gradient-4" x1="245.73" y1="195.64" x2="309.71" y2="229.47" xlink:href="#linear-gradient"/><linearGradient id="linear-gradient-5" x1="372.4" y1="232.73" x2="462.81" y2="232.73" xlink:href="#linear-gradient"/><linearGradient id="linear-gradient-6" x1="377.29" y1="140.72" x2="458.39" y2="165.33" xlink:href="#linear-gradient"/><linearGradient id="linear-gradient-7" x1="268.08" y1="74.72" x2="395.8" y2="74.72" xlink:href="#linear-gradient"/><linearGradient id="linear-gradient-8" x1="242.57" y1="89.11" x2="276.94" y2="89.11" xlink:href="#linear-gradient"/></defs><title>main_illo_desktop</title><g id="Layer_2" data-name="Layer 2"><g id="NatWest-longform_1-sustainability-desktop"><g id="illo"><line class="cls-1" x1="133.16" y1="451.34" x2="133.16" y2="463.25"/><path class="cls-2" d="M138.52,448.73a5.36,5.36,0,0,1-10.71,0c0-3,3.45-30.47,5.35-30.47S138.52,445.77,138.52,448.73Z"/><line class="cls-1" x1="418.01" y1="531.57" x2="418.01" y2="543.48"/><path class="cls-2" d="M423.37,529a5.36,5.36,0,1,1-10.71,0c0-3,3.45-30.46,5.35-30.46S423.37,526,423.37,529Z"/><line class="cls-1" x1="194.3" y1="564.94" x2="194.3" y2="576.85"/><path class="cls-2" d="M199.66,562.33a5.36,5.36,0,1,1-10.72,0c0-3,3.46-30.47,5.36-30.47S199.66,559.37,199.66,562.33Z"/><line class="cls-1" x1="312.75" y1="531.77" x2="312.75" y2="543.68"/><path class="cls-2" d="M318.11,529.16a5.36,5.36,0,0,1-10.72,0c0-3,3.46-30.47,5.36-30.47S318.11,526.2,318.11,529.16Z"/><line class="cls-1" x1="294.03" y1="501.3" x2="294.03" y2="513.21"/><path class="cls-2" d="M299.39,498.69a5.36,5.36,0,1,1-10.71,0c0-3,3.45-30.47,5.35-30.47S299.39,495.73,299.39,498.69Z"/><line class="cls-1" x1="338.55" y1="333.82" x2="338.55" y2="345.73"/><path class="cls-2" d="M343.91,331.21a5.36,5.36,0,0,1-10.72,0c0-3,3.46-30.47,5.36-30.47S343.91,328.25,343.91,331.21Z"/><line class="cls-1" x1="71.56" y1="359.4" x2="71.56" y2="371.31"/><path class="cls-2" d="M76.92,356.78a5.36,5.36,0,0,1-10.72,0c0-3,3.46-30.46,5.36-30.46S76.92,353.82,76.92,356.78Z"/><line class="cls-1" x1="5.36" y1="415.71" x2="5.36" y2="427.63"/><path class="cls-2" d="M10.72,413.1A5.36,5.36,0,0,1,0,413.1c0-3,3.46-30.47,5.36-30.47S10.72,410.14,10.72,413.1Z"/><path class="cls-3" d="M95.2,259.7H89.08l-5.8,167.48c0,1.31.85,2.63,2.57,3.63a13.94,13.94,0,0,0,12.58,0c1.73-1,2.59-2.32,2.58-3.63Z"/><path class="cls-4" d="M91,268l2.92,164.24a11.81,11.81,0,0,0,4.52-1.4c1.73-1,2.59-2.32,2.58-3.63l-5.68-163.8Z"/><path class="cls-3" d="M102.44,241c4.6,2.66,8.32,9.1,8.3,14.39s-3.76,7.43-8.36,4.77-8.33-9.1-8.31-14.4S97.83,238.37,102.44,241Z"/><polygon class="cls-3" points="93.8 269.05 108.31 260.77 96.34 240.55 81.75 248.88 93.8 269.05"/><circle class="cls-3" cx="87.67" cy="259.04" r="11.76"/><path class="cls-2" d="M87.67,270.79a11.65,11.65,0,0,0,6.13-1.74h0l14.47-8.26h0c1.5-.87,2.43-2.71,2.43-5.35a13.71,13.71,0,0,0-.47-3.47c-4.3,2.52-16.11,9.45-20.91,12.19-5.91,3.37-9.47,0-9.47,0l-1.39,2.25A11.75,11.75,0,0,0,87.67,270.79Z"/><g class="cls-5"><path class="cls-3" d="M77.74,262.82A20.06,20.06,0,0,1,80,264.29c-2,2.5-4.64,5.7-10.72,6.24s-39.5,1.29-41.28,1.18c1.58-.4,31.58-10,38.23-11.37C70,259.6,75.37,261.46,77.74,262.82Z"/><path class="cls-3" d="M82.23,265.42a36.59,36.59,0,0,1,10.07,8.83c6,7.52,36,49.92,37.57,52.15-1.78-1.94-35.59-38.94-41.64-46.47A47,47,0,0,1,80,264.29,15.92,15.92,0,0,1,82.23,265.42Z"/><path class="cls-3" d="M80.17,197.92c.2,2.35,3.91,47,3.88,55S80.19,264.12,80,264.29c-.2-.4-4-8-4-16S80,200,80.17,197.92Z"/></g><path class="cls-2" d="M82.87,265.86a6.53,6.53,0,0,0-3-5.15,2.08,2.08,0,0,0-2.16-.18h0c-4.37,2.86-4.32,6.5-3.83,7.24s3.8,2,8.09,0h0A2.07,2.07,0,0,0,82.87,265.86Z"/><path class="cls-3" d="M264.73,381.91h-6.12L252.8,549.39c0,1.31.85,2.63,2.58,3.63A13.92,13.92,0,0,0,268,553c1.73-1,2.59-2.32,2.58-3.63Z"/><path class="cls-4" d="M260.52,390.18l2.92,164.24A11.59,11.59,0,0,0,268,553c1.73-1,2.59-2.32,2.58-3.63l-5.68-163.8Z"/><path class="cls-3" d="M272,363.24c4.6,2.66,8.33,9.11,8.31,14.39s-3.76,7.43-8.36,4.77-8.33-9.1-8.32-14.39S267.35,360.58,272,363.24Z"/><polygon class="cls-3" points="263.33 391.27 277.83 382.99 265.87 362.76 251.28 371.1 263.33 391.27"/><circle class="cls-3" cx="257.19" cy="381.25" r="11.76"/><path class="cls-2" d="M257.19,393a11.69,11.69,0,0,0,6.14-1.74h0L277.8,383l0,0h0c1.5-.87,2.43-2.72,2.44-5.36a13.74,13.74,0,0,0-.48-3.47c-4.29,2.52-16.1,9.45-20.9,12.19-5.92,3.38-9.47,0-9.47,0L248,388.6A11.73,11.73,0,0,0,257.19,393Z"/><g class="cls-5"><path class="cls-3" d="M247.26,385a20.06,20.06,0,0,1,2.25,1.46c-2,2.5-4.65,5.71-10.72,6.24s-39.5,1.3-41.29,1.19c1.59-.41,31.58-10.06,38.23-11.38C239.5,381.81,244.9,383.67,247.26,385Z"/><path class="cls-3" d="M251.76,387.63a36.76,36.76,0,0,1,10.06,8.83c6.05,7.53,36,49.92,37.57,52.15-1.78-1.94-35.59-38.94-41.63-46.47a46.55,46.55,0,0,1-8.25-15.64A16.58,16.58,0,0,1,251.76,387.63Z"/><path class="cls-3" d="M249.7,320.13c.19,2.35,3.9,47,3.88,55s-3.87,11.18-4.07,11.35c-.2-.4-4-8-4-16S249.49,322.24,249.7,320.13Z"/></g><path class="cls-2" d="M252.4,388.07a6.59,6.59,0,0,0-3-5.15,2.08,2.08,0,0,0-2.16-.18h0c-4.38,2.86-4.32,6.5-3.83,7.24s3.8,2,8.09,0h0A2.11,2.11,0,0,0,252.4,388.07Z"/><path class="cls-3" d="M471.63,319.05h-6.12L459.7,486.53c0,1.31.86,2.63,2.58,3.63a13.86,13.86,0,0,0,12.58,0c1.72-1,2.58-2.32,2.58-3.63Z"/><path class="cls-4" d="M467.42,327.32l2.92,164.24a11.64,11.64,0,0,0,4.52-1.4c1.72-1,2.58-2.32,2.58-3.63l-5.68-163.8Z"/><path class="cls-3" d="M478.86,300.38c4.61,2.66,8.33,9.11,8.31,14.39s-3.76,7.43-8.36,4.78-8.33-9.11-8.31-14.4S474.26,297.72,478.86,300.38Z"/><polygon class="cls-3" points="470.23 328.41 484.74 320.13 472.77 299.9 458.18 308.24 470.23 328.41"/><circle class="cls-3" cx="464.1" cy="318.39" r="11.76"/><path class="cls-2" d="M464.1,330.15a11.74,11.74,0,0,0,6.13-1.74h0l14.47-8.26,0,0h0c1.5-.87,2.44-2.72,2.44-5.36a13.71,13.71,0,0,0-.47-3.47c-4.3,2.53-16.11,9.45-20.91,12.19-5.92,3.38-9.47,0-9.47,0l-1.39,2.25A11.76,11.76,0,0,0,464.1,330.15Z"/><g class="cls-5"><path class="cls-3" d="M454.16,322.18a21.92,21.92,0,0,1,2.25,1.46c-2,2.5-4.65,5.71-10.72,6.24s-39.5,1.3-41.28,1.19C406,330.66,436,321,442.64,319.7,446.4,319,451.8,320.81,454.16,322.18Z"/><path class="cls-3" d="M458.66,324.77a36.76,36.76,0,0,1,10.07,8.83c6,7.53,36,49.92,37.57,52.16-1.78-1.95-35.59-38.95-41.64-46.48a46.55,46.55,0,0,1-8.25-15.64A17.43,17.43,0,0,1,458.66,324.77Z"/><path class="cls-3" d="M456.6,257.27c.2,2.35,3.91,47,3.88,55s-3.86,11.18-4.07,11.35c-.2-.4-4-8-4-16S456.39,259.39,456.6,257.27Z"/></g><path class="cls-2" d="M459.3,325.21a6.55,6.55,0,0,0-3-5.15,2.08,2.08,0,0,0-2.16-.18h0c-4.37,2.86-4.32,6.5-3.83,7.24s3.8,2,8.09,0h0A2.09,2.09,0,0,0,459.3,325.21Z"/><g id="city"><polygon class="cls-6" points="387.62 123.82 297.21 176.45 297.21 172.41 387.62 119.79 387.62 123.82"/><polygon class="cls-3" points="387.62 119.79 297.21 172.41 209.19 121.89 299.6 69.27 387.62 119.79"/><polygon class="cls-7" points="209.19 121.89 209.19 125.92 297.21 176.45 297.21 172.41 209.19 121.89"/><path class="cls-8" d="M291,37.71,272.94,27.23l-2.21,1.2V96.78l18.06,10.48,2.2-1.19ZM274.6,61.56V39.73L288.79,48V69.84Z"/><path class="cls-9" d="M288.79,38.91,270.73,28.43V96.78l18.06,10.48Zm-16.4,23.84V49.89l14.76,8.6V71.36Z"/><polygon class="cls-3" points="272.39 62.75 274.6 61.56 287.15 68.88 287.15 71.36 272.39 62.75"/><path class="cls-10" d="M352.55,67.47,334.49,57l-2.21,1.19v68.35l18,10.48,2.21-1.19ZM336.14,91.31V69.48l14.2,8.28V99.59Z"/><path class="cls-9" d="M350.34,68.66,332.28,58.18v68.35l18,10.48Zm-16.4,23.85V79.64l14.76,8.61v12.86Z"/><polygon class="cls-3" points="333.94 92.51 336.14 91.31 348.7 98.63 348.7 101.11 333.94 92.51"/><path class="cls-11" d="M294.78,99.59,276.72,89.11l-2.21,1.2v68.35l18.06,10.48,2.2-1.19Zm-16.41,23.85V101.61l14.2,8.28v21.83Z"/><path class="cls-9" d="M292.57,100.79,274.51,90.31v68.35l18.06,10.48Zm-16.4,23.84V111.77l14.76,8.6v12.87Z"/><polygon class="cls-3" points="276.17 124.63 278.38 123.44 290.93 130.76 290.93 133.24 276.17 124.63"/><polygon class="cls-12" points="315.91 184.55 225.5 237.18 225.5 233.14 315.91 180.52 315.91 184.55"/><polygon class="cls-3" points="315.91 180.52 225.5 233.14 107 164.73 197.41 112.11 315.91 180.52"/><polygon class="cls-9" points="107 164.73 107 168.76 225.5 237.18 225.5 233.14 107 164.73"/><polygon class="cls-13" points="462.81 208.43 372.4 261.06 372.4 257.02 462.81 204.4 462.81 208.43"/><polygon class="cls-3" points="462.81 204.4 372.4 257.02 287.44 207.88 377.85 155.25 462.81 204.4"/><polygon class="cls-9" points="287.44 207.88 287.44 211.91 372.4 261.06 372.4 257.02 287.44 207.88"/><polygon class="cls-3" points="377.22 113.66 348.27 130.5 322.07 115.42 351.03 98.58 377.22 113.66"/><polygon class="cls-3" points="368.88 97 348.27 108.98 330.02 98.35 350.63 86.48 368.88 97"/><polygon class="cls-14" points="334.76 98.46 350.63 89.23 364.14 97.01 348.26 106.24 334.76 98.46"/><polygon class="cls-7" points="350.63 91.97 361.77 98.39 364.14 97.01 350.63 89.23 334.76 98.46 337.13 99.82 350.63 91.97"/><polygon class="cls-7" points="350.63 89.23 350.63 91.97 337.13 99.82 334.76 98.46 350.63 89.23"/><polygon class="cls-7" points="348.27 126.62 348.27 108.98 368.88 97 368.88 114.63 348.27 126.62"/><polygon class="cls-2" points="330.02 98.35 330.02 115.99 348.27 126.62 348.27 108.98 330.02 98.35"/><polygon class="cls-2" points="348.27 130.5 348.27 233.14 322.07 218.06 322.07 115.42 348.27 130.5"/><polygon class="cls-7" points="348.27 130.5 348.27 233.14 377.22 216.3 377.22 113.66 348.27 130.5"/><polygon class="cls-7" points="423.85 32.73 423.85 217.34 451.89 200.98 451.89 16.36 423.85 32.73"/><polygon class="cls-2" points="423.85 32.73 423.85 217.34 395.8 200.98 395.8 16.36 423.85 32.73"/><polygon class="cls-2" points="398.18 199.62 398.18 20.5 421.47 34.09 421.47 213.21 398.18 199.62"/><polygon class="cls-3" points="403.37 197.08 403.37 23.53 398.18 20.5 398.18 199.62 421.47 213.21 421.47 207.64 403.37 197.08"/><polygon class="cls-7" points="403.37 197.08 398.18 199.62 398.18 20.5 403.37 23.53 403.37 197.08"/><path class="cls-2" d="M377,123.85v21.73h0a9.25,9.25,0,0,0,4.64,8.08,28.19,28.19,0,0,0,28.41,0l13.83-8.08v-22.3Z"/><path class="cls-7" d="M394.45,157.47A28.25,28.25,0,0,0,410,153.66l13.83-8.08v-22.3l-29.4.36Z"/><path class="cls-3" d="M423.85,123.28,410,131.35a28.17,28.17,0,0,1-28.41,0h0a9.36,9.36,0,0,1,0-16.17l14.18-8.28Z"/><path class="cls-14" d="M395.81,132.82a25.86,25.86,0,0,1-13-3.51,7,7,0,0,1,0-12.07l15.38-8.94,23.29,13.59-12.65,7.41A25.87,25.87,0,0,1,395.81,132.82Z"/><path class="cls-7" d="M382.8,123.29l20.57-12-1-1.77-4.15-1.26-15.38,8.94a6.92,6.92,0,0,0-3.46,6,7,7,0,0,0,.68,3A7,7,0,0,1,382.8,123.29Z"/><polygon class="cls-14" points="451.89 16.37 423.86 32.73 395.8 16.36 423.84 0 451.89 16.37"/><path class="cls-2" d="M377,81.94v21.74h0a9.24,9.24,0,0,0,4.64,8.07,28.19,28.19,0,0,0,28.41,0l13.83-8.07V81.37Z"/><path class="cls-7" d="M394.45,115.56A28.25,28.25,0,0,0,410,111.75l13.83-8.07V81.37l-29.4.36Z"/><path class="cls-3" d="M423.85,81.37,410,89.44a28.17,28.17,0,0,1-28.41,0h0a9.36,9.36,0,0,1,0-16.17L395.79,65Z"/><path class="cls-14" d="M395.81,90.91a25.86,25.86,0,0,1-13-3.51,7,7,0,0,1,0-12.06l15.38-9L421.47,80l-12.65,7.41A25.76,25.76,0,0,1,395.81,90.91Z"/><path class="cls-7" d="M382.8,81.38l20.57-12-1-1.77-4.15-1.26-15.38,9a6.9,6.9,0,0,0-3.46,6,7.07,7.07,0,0,0,.68,3A7,7,0,0,1,382.8,81.38Z"/><polygon class="cls-14" points="403.37 182.38 389.88 190.21 363.69 175.13 377.17 167.3 403.37 182.38"/><polygon class="cls-2" points="389.88 190.21 389.88 238.97 363.69 223.89 363.69 175.13 389.88 190.21"/><polygon class="cls-7" points="389.88 190.21 389.88 238.97 403.37 231.13 403.37 182.38 389.88 190.21"/><path class="cls-15" d="M480.62,114.41h-.76a8.75,8.75,0,0,0-3.63-4L451.89,96.23v20.32l2.4,1.39L344.61,180.73,193.26,93.25l-8.79,15.21L330.56,192.9a28.1,28.1,0,0,0,28.05.06l117.57-67.3a8.46,8.46,0,0,0,4.43-7.25C480.61,117.38,480.62,114.41,480.62,114.41Z"/><path class="cls-9" d="M184.47,108.46,330.56,192.9a28.11,28.11,0,0,0,14.05,3.78v-16L193.26,93.25Z"/><path class="cls-3" d="M330.56,189.56,184.47,105.11l8.79-15.21,151.35,87.48L454.29,114.6l-2.4-1.4V92.88L476.23,107a8.83,8.83,0,0,1-.05,15.29l-117.57,67.3A28.13,28.13,0,0,1,330.56,189.56Z"/><path class="cls-7" d="M283.59,150.57v-1.26a3.85,3.85,0,0,0-.59-1.85c-1.53-2.79-3.21-5.08-5.92-9.21a9.11,9.11,0,0,0-3.27-3.13l-83.33-47.3-1.34,7.89,88.36,58.43Z"/><path class="cls-14" d="M190.48,87.82l83.33,47.3a7.25,7.25,0,0,1,.77.49l-8.51,4.46-50-27.45-27-16.91Z"/><path class="cls-3" d="M279.82,142.36,272.89,146l-3.07-3.78,7.35-3.82C278.18,139.93,279.05,141.21,279.82,142.36Z"/><path class="cls-2" d="M277.5,154.14v-1.26a3,3,0,0,0-.6-1.84c-1.71-2.25-7.08-8.82-7.08-8.82a11.38,11.38,0,0,0-3.11-2.48l-77.57-44v8.37Z"/><polygon class="cls-6" points="263.39 139.45 263.39 142.85 189.14 100.76 189.14 97.3 263.39 139.45"/><polygon class="cls-6" points="267.91 142.01 267.91 148.72 264.6 146.84 264.6 140.13 267.91 142.01"/><path class="cls-2" d="M193.5,168.63c0,4.21-2.73,8.43-8.26,11.65-11.07,6.43-29.08,6.43-40.22,0-5.58-3.22-8.38-7.44-8.4-11.65V85.27H193.5Z"/><path class="cls-7" d="M159.06,184.72c9.15,1.15,19.09-.32,26.18-4.44,5.53-3.22,8.29-7.44,8.26-11.65V85.27H159.06Z"/><ellipse class="cls-3" cx="165.06" cy="85.27" rx="16.47" ry="28.44" transform="translate(79.33 250.09) rotate(-89.84)"/><path class="cls-14" d="M165.15,99.84c-7.26,0-14.08-1.62-19.18-4.57-4.8-2.77-7.45-6.34-7.45-10s2.59-7.21,7.32-10c5.07-3,11.86-4.57,19.13-4.57s14.08,1.63,19.19,4.57c4.79,2.77,7.44,6.34,7.44,10s-2.59,7.22-7.32,10C179.21,98.22,172.42,99.84,165.15,99.84Z"/><path class="cls-7" d="M145.84,77.16c5.07-3,11.86-4.57,19.13-4.57s14.08,1.63,19.19,4.57c4.39,2.54,7,5.74,7.38,9.11a7.73,7.73,0,0,0,.06-1c0-3.71-2.65-7.28-7.44-10-5.11-2.94-11.92-4.57-19.19-4.57s-14.06,1.62-19.13,4.57c-4.73,2.75-7.33,6.29-7.32,10,0,.32,0,.63.06.94C139,82.83,141.53,79.67,145.84,77.16Z"/><path class="cls-2" d="M147,81.09c0,2.68,1.79,5.35,5.33,7.39,7.06,4.08,18.49,4.08,25.51,0,3.51-2,5.26-4.71,5.24-7.39V63.22H147Z"/><path class="cls-7" d="M161.16,91.28c5.83.76,12.18-.17,16.7-2.8,3.51-2,5.26-4.71,5.24-7.39V63.22H161.16Z"/><path class="cls-3" d="M177.78,55.83c7.06,4.08,7.1,10.7.08,14.78s-18.45,4.08-25.51,0-7.11-10.7-.09-14.78S170.71,51.75,177.78,55.83Z"/><path class="cls-14" d="M165.12,71.77A24,24,0,0,1,153.3,69c-2.82-1.63-4.38-3.68-4.38-5.77s1.52-4.11,4.29-5.72a26.31,26.31,0,0,1,23.62,0c2.82,1.63,4.37,3.68,4.37,5.78s-1.52,4.1-4.29,5.72A24,24,0,0,1,165.12,71.77Z"/><path class="cls-7" d="M153.21,59.37a26.22,26.22,0,0,1,23.62,0c2.39,1.38,3.87,3.07,4.26,4.83a4.4,4.4,0,0,0,.11-1c0-2.1-1.55-4.15-4.37-5.78a26.31,26.31,0,0,0-23.62,0c-2.77,1.61-4.3,3.64-4.29,5.72a4.31,4.31,0,0,0,.11.94C149.42,62.4,150.87,60.73,153.21,59.37Z"/><polygon class="cls-14" points="251.66 147.01 238.18 154.85 201.55 133.79 215.03 125.96 251.66 147.01"/><polygon class="cls-7" points="238.18 154.85 238.18 191.61 201.55 170.56 201.55 133.79 238.18 154.85"/><polygon class="cls-7" points="238.18 154.85 238.18 191.61 251.66 183.78 251.66 147.01 238.18 154.85"/><polygon class="cls-14" points="238.2 128.59 224.71 136.42 188.08 115.36 201.56 107.53 238.2 128.59"/><polygon class="cls-2" points="224.71 136.42 224.71 199.45 188.08 178.39 188.08 115.36 224.71 136.42"/><polygon class="cls-7" points="224.71 136.42 224.71 199.45 238.2 191.62 238.2 128.59 224.71 136.42"/><path class="cls-9" d="M346.66,52a30.22,30.22,0,0,0-15-23.57,55.7,55.7,0,0,0-55.44-.48L222.17,58.5C211.51,64.7,205.41,74.37,205.43,85s6.18,20.39,16.91,26.59c7.77,4.49,17.7,7,28,7A56.81,56.81,0,0,0,277.55,112L395.8,44.92V24.18ZM322.37,65.74,269.17,96c-10.4,6-27.33,6-37.81,0s-10.53-15.85-.12-21.89l53.88-30.46a37.6,37.6,0,0,1,37.43.32,12.57,12.57,0,0,1-.18,21.77Z"/><path class="cls-16" d="M268.08,108.3V116a49.31,49.31,0,0,0,9.47-4L395.8,44.92V33.46Z"/><path class="cls-3" d="M346.66,49.34a30.25,30.25,0,0,0-15-23.57,55.68,55.68,0,0,0-55.44-.47L222.17,55.86c-10.66,6.19-16.76,15.86-16.74,26.53s6.18,20.4,16.91,26.59c7.77,4.49,17.7,7,28,7,10,0,19.61-2.34,27.25-6.6L395.8,42.27V21.54ZM322.37,63.09l-53.2,30.27c-10.4,6-27.33,6-37.81,0s-10.53-15.86-.12-21.9L285.12,41a37.6,37.6,0,0,1,37.43.32,12.57,12.57,0,0,1-.18,21.76Z"/><path class="cls-9" d="M276.93,80.34c.08,4-2.5,8-7.76,11.08-10.4,6-27.33,6-37.81,0-5.23-3-7.87-7-7.89-11h0v2h0c.06,3.93,2.69,7.86,7.89,10.87,10.48,6,27.41,6,37.81,0,5-2.9,7.57-6.66,7.75-10.46l0,0V80.33Z"/><path class="cls-17" d="M269.17,91.42c-7.18,4.17-17.47,5.46-26.6,3.87v1.94c9.13,1.59,19.42.3,26.6-3.87,5-2.9,7.57-6.66,7.75-10.46l0,0V80.33h0C277,84.34,274.43,88.36,269.17,91.42Z"/><path class="cls-3" d="M269.05,69.51c10.47,6,10.53,15.86.12,21.91s-27.33,6-37.81,0-10.53-15.85-.12-21.9S258.57,63.47,269.05,69.51Z"/><line class="cls-18" x1="235.53" y1="71.46" x2="235.53" y2="77.38"/><path class="cls-2" d="M238.2,70.16a2.67,2.67,0,0,1-5.33,0c0-1.47,1.72-15.14,2.66-15.14S238.2,68.69,238.2,70.16Z"/><line class="cls-18" x1="241.57" y1="85.59" x2="241.57" y2="91.51"/><path class="cls-2" d="M244.23,84.29a2.66,2.66,0,1,1-5.32,0c0-1.47,1.72-15.14,2.66-15.14S244.23,82.82,244.23,84.29Z"/><line class="cls-18" x1="270.73" y1="71.72" x2="270.73" y2="77.64"/><path class="cls-2" d="M273.4,70.42a2.67,2.67,0,0,1-5.33,0c0-1.47,1.72-15.14,2.66-15.14S273.4,69,273.4,70.42Z"/><line class="cls-18" x1="264.54" y1="82.09" x2="264.54" y2="88.01"/><path class="cls-2" d="M267.2,80.79a2.66,2.66,0,1,1-5.32,0c0-1.47,1.72-15.14,2.66-15.14S267.2,79.32,267.2,80.79Z"/><line class="cls-18" x1="253.06" y1="70.91" x2="253.06" y2="76.83"/><path class="cls-2" d="M255.72,69.61a2.67,2.67,0,0,1-5.33,0c0-1.47,1.72-15.15,2.67-15.15S255.72,68.14,255.72,69.61Z"/><polygon class="cls-7" points="328.64 72.82 328.64 20.79 296.99 20.79 296.99 91.36 328.64 72.82"/><path class="cls-7" d="M298.31,100.22a11.06,11.06,0,0,0,3.35,2.84c6.2,3.58,16.22,3.58,22.38,0,3.06-1.77,4.59-4.09,4.6-6.42h0V83Z"/><path class="cls-2" d="M298.31,100.22a11.06,11.06,0,0,0,3.35,2.84,23.72,23.72,0,0,0,13.06,2.62V90.91Z"/><polygon class="cls-2" points="314.72 80.97 314.72 20.79 296.99 20.79 296.99 91.36 314.72 80.97"/><path class="cls-3" d="M324,14.31c6.2,3.58,6.23,9.38.07,13s-16.18,3.58-22.38,0-6.23-9.38-.07-13S317.77,10.73,324,14.31Z"/><path class="cls-14" d="M312.87,27.58a20.64,20.64,0,0,1-10-2.37c-2.21-1.27-3.48-2.9-3.49-4.45s1.25-3.14,3.42-4.4a22.37,22.37,0,0,1,20,0c2.22,1.28,3.49,2.9,3.49,4.45S325,24,322.85,25.22A20.51,20.51,0,0,1,312.87,27.58Z"/><path class="cls-2" d="M302.78,18.73a22.32,22.32,0,0,1,20,0A7.23,7.23,0,0,1,326,22a3.12,3.12,0,0,0,.24-1.19c0-1.55-1.27-3.17-3.49-4.45a22.37,22.37,0,0,0-20,0c-2.17,1.26-3.42,2.87-3.42,4.4a3.43,3.43,0,0,0,.25,1.19A7.09,7.09,0,0,1,302.78,18.73Z"/><path class="cls-7" d="M314.68,14.08C314,14,313.41,14,312.76,14a20.53,20.53,0,0,0-10,2.36c-2.17,1.26-3.42,2.87-3.42,4.4a3.43,3.43,0,0,0,.25,1.19,7.09,7.09,0,0,1,3.17-3.22,20.53,20.53,0,0,1,10-2.36c.65,0,1.28,0,1.92.08Z"/><polygon class="cls-3" points="346.66 49.34 285.47 84.08 288.24 103.28 354.02 65.97 346.66 49.34"/><path class="cls-2" d="M315.94,77.17V75.91a3.88,3.88,0,0,1,.59-1.85c1.53-2.79,3.21-5.08,5.92-9.2a9.39,9.39,0,0,1,3.27-3.14L395.8,22V30.6L322,80.74Z"/><path class="cls-14" d="M395.8,22,325.72,61.72a8.25,8.25,0,0,0-.76.49l8.5,4.47,50-27.46L395.8,30.6Z"/><path class="cls-3" d="M319.71,69l6.93,3.64,3.08-3.77L322.36,65C321.35,66.53,320.48,67.82,319.71,69Z"/><path class="cls-7" d="M322,80.74V79.48a3,3,0,0,1,.59-1.84c1.71-2.25,7.09-8.81,7.09-8.81a11.23,11.23,0,0,1,3.1-2.49l63-35.74V39Z"/><polygon class="cls-6" points="336.14 66.05 336.14 69.46 395.8 35.67 395.8 32.21 336.14 66.05"/><polygon class="cls-6" points="331.62 68.61 331.62 75.32 334.94 73.44 334.94 66.73 331.62 68.61"/><polygon class="cls-2" points="350.63 89.23 350.63 91.97 361.77 98.39 364.14 97.01 350.63 89.23"/></g></g></g></g></svg>