<svg viewBox="0 0 506.3 576.85" xmlns="http://www.w3.org/2000/svg" xmlns:xlink="http://www.w3.org/1999/xlink"><linearGradient id="a" gradientUnits="userSpaceOnUse" x1="276.02" x2="298.42" y1="62.18" y2="85.57"><stop offset="0" stop-color="#d1c2d8"/><stop offset="1" stop-color="#77488a"/></linearGradient><linearGradient id="b" x1="337.79" x2="351.49" xlink:href="#a" y1="91.95" y2="106.89"/><linearGradient id="c" x1="279.58" x2="322.05" xlink:href="#a" y1="124.06" y2="166.52"/><linearGradient id="d" x1="245.73" x2="309.71" xlink:href="#a" y1="195.64" y2="229.47"/><linearGradient id="e" x1="372.4" x2="462.81" xlink:href="#a" y1="232.73" y2="232.73"/><linearGradient id="f" x1="377.29" x2="458.39" xlink:href="#a" y1="140.72" y2="165.33"/><linearGradient id="g" x1="268.08" x2="395.8" xlink:href="#a" y1="74.72" y2="74.72"/><linearGradient id="h" x1="242.57" x2="276.94" xlink:href="#a" y1="89.11" y2="89.11"/><path d="m133.16 451.34v11.91" fill="none" stroke="#516cb3" stroke-miterlimit="10" stroke-width="2"/><path d="m138.52 448.73a5.36 5.36 0 0 1 -10.71 0c0-3 3.45-30.47 5.35-30.47s5.36 27.51 5.36 30.47z" fill="#00b0bc"/><path d="m418.01 531.57v11.91" fill="none" stroke="#516cb3" stroke-miterlimit="10" stroke-width="2"/><path d="m423.37 529a5.36 5.36 0 1 1 -10.71 0c0-3 3.45-30.46 5.35-30.46s5.36 27.46 5.36 30.46z" fill="#00b0bc"/><path d="m194.3 564.94v11.91" fill="none" stroke="#516cb3" stroke-miterlimit="10" stroke-width="2"/><path d="m199.66 562.33a5.36 5.36 0 1 1 -10.72 0c0-3 3.46-30.47 5.36-30.47s5.36 27.51 5.36 30.47z" fill="#00b0bc"/><path d="m312.75 531.77v11.91" fill="none" stroke="#516cb3" stroke-miterlimit="10" stroke-width="2"/><path d="m318.11 529.16a5.36 5.36 0 0 1 -10.72 0c0-3 3.46-30.47 5.36-30.47s5.36 27.51 5.36 30.47z" fill="#00b0bc"/><path d="m294.03 501.3v11.91" fill="none" stroke="#516cb3" stroke-miterlimit="10" stroke-width="2"/><path d="m299.39 498.69a5.36 5.36 0 1 1 -10.71 0c0-3 3.45-30.47 5.35-30.47s5.36 27.51 5.36 30.47z" fill="#00b0bc"/><path d="m338.55 333.82v11.91" fill="none" stroke="#516cb3" stroke-miterlimit="10" stroke-width="2"/><path d="m343.91 331.21a5.36 5.36 0 0 1 -10.72 0c0-3 3.46-30.47 5.36-30.47s5.36 27.51 5.36 30.47z" fill="#00b0bc"/><path d="m71.56 359.4v11.91" fill="none" stroke="#516cb3" stroke-miterlimit="10" stroke-width="2"/><path d="m76.92 356.78a5.36 5.36 0 0 1 -10.72 0c0-3 3.46-30.46 5.36-30.46s5.36 27.5 5.36 30.46z" fill="#00b0bc"/><path d="m5.36 415.71v11.92" fill="none" stroke="#516cb3" stroke-miterlimit="10" stroke-width="2"/><path d="m10.72 413.1a5.36 5.36 0 0 1 -10.72 0c0-3 3.46-30.47 5.36-30.47s5.36 27.51 5.36 30.47z" fill="#00b0bc"/><path d="m95.2 259.7h-6.12l-5.8 167.48c0 1.31.85 2.63 2.57 3.63a13.94 13.94 0 0 0 12.58 0c1.73-1 2.59-2.32 2.58-3.63z" fill="#fff"/><path d="m91 268 2.92 164.24a11.81 11.81 0 0 0 4.52-1.4c1.73-1 2.59-2.32 2.58-3.63l-5.68-163.8z" fill="#c9c5c5"/><g fill="#fff"><path d="m102.44 241c4.6 2.66 8.32 9.1 8.3 14.39s-3.76 7.43-8.36 4.77-8.33-9.1-8.31-14.4 3.76-7.39 8.37-4.76z"/><path d="m93.8 269.05 14.51-8.28-11.97-20.22-14.59 8.33z"/><circle cx="87.67" cy="259.04" r="11.76"/></g><path d="m87.67 270.79a11.65 11.65 0 0 0 6.13-1.74l14.47-8.26c1.5-.87 2.43-2.71 2.43-5.35a13.71 13.71 0 0 0 -.47-3.47c-4.3 2.52-16.11 9.45-20.91 12.19-5.91 3.37-9.47 0-9.47 0l-1.39 2.25a11.75 11.75 0 0 0 9.21 4.38z" fill="#00b0bc"/><path d="m77.74 262.82a20.06 20.06 0 0 1 2.26 1.47c-2 2.5-4.64 5.7-10.72 6.24s-39.5 1.29-41.28 1.18c1.58-.4 31.58-10 38.23-11.37 3.77-.74 9.14 1.12 11.51 2.48z" fill="#fff"/><path d="m82.23 265.42a36.59 36.59 0 0 1 10.07 8.83c6 7.52 36 49.92 37.57 52.15-1.78-1.94-35.59-38.94-41.64-46.47a47 47 0 0 1 -8.23-15.64 15.92 15.92 0 0 1 2.23 1.13z" fill="#fff"/><path d="m80.17 197.92c.2 2.35 3.91 47 3.88 55s-3.86 11.2-4.05 11.37c-.2-.4-4-8-4-16s4-48.29 4.17-50.37z" fill="#fff"/><path d="m82.87 265.86a6.53 6.53 0 0 0 -3-5.15 2.08 2.08 0 0 0 -2.16-.18c-4.37 2.86-4.32 6.5-3.83 7.24s3.8 2 8.09 0a2.07 2.07 0 0 0 .9-1.91z" fill="#00b0bc"/><path d="m264.73 381.91h-6.12l-5.81 167.48c0 1.31.85 2.63 2.58 3.63a13.92 13.92 0 0 0 12.62-.02c1.73-1 2.59-2.32 2.58-3.63z" fill="#fff"/><path d="m260.52 390.18 2.92 164.24a11.59 11.59 0 0 0 4.56-1.42c1.73-1 2.59-2.32 2.58-3.63l-5.68-163.8z" fill="#c9c5c5"/><path d="m272 363.24c4.6 2.66 8.33 9.11 8.31 14.39s-3.76 7.43-8.36 4.77-8.33-9.1-8.32-14.39 3.72-7.43 8.37-4.77z" fill="#fff"/><path d="m263.33 391.27 14.5-8.28-11.96-20.23-14.59 8.34z" fill="#fff"/><circle cx="257.19" cy="381.25" fill="#fff" r="11.76"/><path d="m257.19 393a11.69 11.69 0 0 0 6.14-1.74l14.47-8.26c1.5-.87 2.43-2.72 2.44-5.36a13.74 13.74 0 0 0 -.48-3.47c-4.29 2.52-16.1 9.45-20.9 12.19-5.92 3.38-9.47 0-9.47 0l-1.39 2.24a11.73 11.73 0 0 0 9.19 4.4z" fill="#00b0bc"/><path d="m247.26 385a20.06 20.06 0 0 1 2.25 1.46c-2 2.5-4.65 5.71-10.72 6.24s-39.5 1.3-41.29 1.19c1.59-.41 31.58-10.06 38.23-11.38 3.77-.7 9.17 1.16 11.53 2.49z" fill="#fff"/><path d="m251.76 387.63a36.76 36.76 0 0 1 10.06 8.83c6.05 7.53 36 49.92 37.57 52.15-1.78-1.94-35.59-38.94-41.63-46.47a46.55 46.55 0 0 1 -8.25-15.64 16.58 16.58 0 0 1 2.25 1.13z" fill="#fff"/><path d="m249.7 320.13c.19 2.35 3.9 47 3.88 55s-3.87 11.18-4.07 11.35c-.2-.4-4-8-4-16s3.98-48.24 4.19-50.35z" fill="#fff"/><path d="m252.4 388.07a6.59 6.59 0 0 0 -3-5.15 2.08 2.08 0 0 0 -2.16-.18c-4.38 2.86-4.32 6.5-3.83 7.24s3.8 2 8.09 0a2.11 2.11 0 0 0 .9-1.91z" fill="#00b0bc"/><path d="m471.63 319.05h-6.12l-5.81 167.48c0 1.31.86 2.63 2.58 3.63a13.86 13.86 0 0 0 12.58 0c1.72-1 2.58-2.32 2.58-3.63z" fill="#fff"/><path d="m467.42 327.32 2.92 164.24a11.64 11.64 0 0 0 4.52-1.4c1.72-1 2.58-2.32 2.58-3.63l-5.68-163.8z" fill="#c9c5c5"/><path d="m478.86 300.38c4.61 2.66 8.33 9.11 8.31 14.39s-3.76 7.43-8.36 4.78-8.33-9.11-8.31-14.4 3.76-7.43 8.36-4.77z" fill="#fff"/><path d="m470.23 328.41 14.51-8.28-11.97-20.23-14.59 8.34z" fill="#fff"/><circle cx="464.1" cy="318.39" fill="#fff" r="11.76"/><path d="m464.1 330.15a11.74 11.74 0 0 0 6.13-1.74l14.47-8.26c1.5-.87 2.44-2.72 2.44-5.36a13.71 13.71 0 0 0 -.47-3.47c-4.3 2.53-16.11 9.45-20.91 12.19-5.92 3.38-9.47 0-9.47 0l-1.39 2.25a11.76 11.76 0 0 0 9.2 4.39z" fill="#00b0bc"/><path d="m454.16 322.18a21.92 21.92 0 0 1 2.25 1.46c-2 2.5-4.65 5.71-10.72 6.24s-39.5 1.3-41.28 1.19c1.59-.41 31.59-10.07 38.23-11.37 3.76-.7 9.16 1.11 11.52 2.48z" fill="#fff"/><path d="m458.66 324.77a36.76 36.76 0 0 1 10.07 8.83c6 7.53 36 49.92 37.57 52.16-1.78-1.95-35.59-38.95-41.64-46.48a46.55 46.55 0 0 1 -8.25-15.64 17.43 17.43 0 0 1 2.25 1.13z" fill="#fff"/><path d="m456.6 257.27c.2 2.35 3.91 47 3.88 55s-3.86 11.18-4.07 11.35c-.2-.4-4-8-4-16s3.98-48.23 4.19-50.35z" fill="#fff"/><path d="m459.3 325.21a6.55 6.55 0 0 0 -3-5.15 2.08 2.08 0 0 0 -2.16-.18c-4.37 2.86-4.32 6.5-3.83 7.24s3.8 2 8.09 0a2.09 2.09 0 0 0 .9-1.91z" fill="#00b0bc"/><path d="m387.62 123.82-90.41 52.63v-4.04l90.41-52.62z" fill="#6f2c91"/><path d="m387.62 119.79-90.41 52.62-88.02-50.52 90.41-52.62z" fill="#fff"/><path d="m209.19 121.89v4.03l88.02 50.53v-4.04z" fill="#516cb3"/><path d="m291 37.71-18.06-10.48-2.21 1.2v68.35l18.06 10.48 2.2-1.19zm-16.4 23.85v-21.83l14.19 8.27v21.84z" fill="url(#a)"/><path d="m288.79 38.91-18.06-10.48v68.35l18.06 10.48zm-16.4 23.84v-12.86l14.76 8.6v12.87z" fill="#f6f3f7"/><path d="m272.39 62.75 2.21-1.19 12.55 7.32v2.48z" fill="#fff"/><path d="m352.55 67.47-18.06-10.47-2.21 1.19v68.35l18 10.48 2.21-1.19zm-16.41 23.84v-21.83l14.2 8.28v21.83z" fill="url(#b)"/><path d="m350.34 68.66-18.06-10.48v68.35l18 10.48zm-16.4 23.85v-12.87l14.76 8.61v12.86z" fill="#f6f3f7"/><path d="m333.94 92.51 2.2-1.2 12.56 7.32v2.48z" fill="#fff"/><path d="m294.78 99.59-18.06-10.48-2.21 1.2v68.35l18.06 10.48 2.2-1.19zm-16.41 23.85v-21.83l14.2 8.28v21.83z" fill="url(#c)"/><path d="m292.57 100.79-18.06-10.48v68.35l18.06 10.48zm-16.4 23.84v-12.86l14.76 8.6v12.87z" fill="#f6f3f7"/><path d="m276.17 124.63 2.21-1.19 12.55 7.32v2.48z" fill="#fff"/><path d="m315.91 184.55-90.41 52.63v-4.04l90.41-52.62z" fill="url(#d)"/><path d="m315.91 180.52-90.41 52.62-118.5-68.41 90.41-52.62z" fill="#fff"/><path d="m107 164.73v4.03l118.5 68.42v-4.04z" fill="#f6f3f7"/><path d="m462.81 208.43-90.41 52.63v-4.04l90.41-52.62z" fill="url(#e)"/><path d="m462.81 204.4-90.41 52.62-84.96-49.14 90.41-52.63z" fill="#fff"/><path d="m287.44 207.88v4.03l84.96 49.15v-4.04z" fill="#f6f3f7"/><path d="m377.22 113.66-28.95 16.84-26.2-15.08 28.96-16.84z" fill="#fff"/><path d="m368.88 97-20.61 11.98-18.25-10.63 20.61-11.87z" fill="#fff"/><path d="m334.76 98.46 15.87-9.23 13.51 7.78-15.88 9.23z" fill="#33c0c9"/><path d="m350.63 91.97 11.14 6.42 2.37-1.38-13.51-7.78-15.87 9.23 2.37 1.36z" fill="#516cb3"/><path d="m350.63 89.23v2.74l-13.5 7.85-2.37-1.36z" fill="#516cb3"/><path d="m348.27 126.62v-17.64l20.61-11.98v17.63z" fill="#516cb3"/><path d="m330.02 98.35v17.64l18.25 10.63v-17.64z" fill="#00b0bc"/><path d="m348.27 130.5v102.64l-26.2-15.08v-102.64z" fill="#00b0bc"/><path d="m348.27 130.5v102.64l28.95-16.84v-102.64z" fill="#516cb3"/><path d="m423.85 32.73v184.61l28.04-16.36v-184.62z" fill="#516cb3"/><path d="m423.85 32.73v184.61l-28.05-16.36v-184.62z" fill="#00b0bc"/><path d="m398.18 199.62v-179.12l23.29 13.59v179.12z" fill="#00b0bc"/><path d="m403.37 197.08v-173.55l-5.19-3.03v179.12l23.29 13.59v-5.57z" fill="#fff"/><path d="m403.37 197.08-5.19 2.54v-179.12l5.19 3.03z" fill="#516cb3"/><path d="m377 123.85v21.73a9.25 9.25 0 0 0 4.64 8.08 28.19 28.19 0 0 0 28.41 0l13.83-8.08v-22.3z" fill="#00b0bc"/><path d="m394.45 157.47a28.25 28.25 0 0 0 15.55-3.81l13.83-8.08v-22.3l-29.4.36z" fill="#516cb3"/><path d="m423.85 123.28-13.85 8.07a28.17 28.17 0 0 1 -28.41 0 9.36 9.36 0 0 1 0-16.17l14.18-8.28z" fill="#fff"/><path d="m395.81 132.82a25.86 25.86 0 0 1 -13-3.51 7 7 0 0 1 0-12.07l15.38-8.94 23.29 13.59-12.65 7.41a25.87 25.87 0 0 1 -13.02 3.52z" fill="#33c0c9"/><path d="m382.8 123.29 20.57-12-1-1.77-4.15-1.26-15.38 8.94a6.92 6.92 0 0 0 -3.46 6 7 7 0 0 0 .68 3 7 7 0 0 1 2.74-2.91z" fill="#516cb3"/><path d="m451.89 16.37-28.03 16.36-28.06-16.37 28.04-16.36z" fill="#33c0c9"/><path d="m377 81.94v21.74a9.24 9.24 0 0 0 4.64 8.07 28.19 28.19 0 0 0 28.41 0l13.83-8.07v-22.31z" fill="#00b0bc"/><path d="m394.45 115.56a28.25 28.25 0 0 0 15.55-3.81l13.83-8.07v-22.31l-29.4.36z" fill="#516cb3"/><path d="m423.85 81.37-13.85 8.07a28.17 28.17 0 0 1 -28.41 0 9.36 9.36 0 0 1 0-16.17l14.2-8.27z" fill="#fff"/><path d="m395.81 90.91a25.86 25.86 0 0 1 -13-3.51 7 7 0 0 1 0-12.06l15.38-9 23.28 13.66-12.65 7.41a25.76 25.76 0 0 1 -13.01 3.5z" fill="#33c0c9"/><path d="m382.8 81.38 20.57-12-1-1.77-4.15-1.26-15.38 9a6.9 6.9 0 0 0 -3.46 6 7.07 7.07 0 0 0 .68 3 7 7 0 0 1 2.74-2.97z" fill="#516cb3"/><path d="m403.37 182.38-13.49 7.83-26.19-15.08 13.48-7.83z" fill="#33c0c9"/><path d="m389.88 190.21v48.76l-26.19-15.08v-48.76z" fill="#00b0bc"/><path d="m389.88 190.21v48.76l13.49-7.84v-48.75z" fill="#516cb3"/><path d="m480.62 114.41h-.76a8.75 8.75 0 0 0 -3.63-4l-24.34-14.18v20.32l2.4 1.39-109.68 62.79-151.35-87.48-8.79 15.21 146.09 84.44a28.1 28.1 0 0 0 28.05.06l117.57-67.3a8.46 8.46 0 0 0 4.43-7.25c0-1.03.01-4 .01-4z" fill="url(#f)"/><path d="m184.47 108.46 146.09 84.44a28.11 28.11 0 0 0 14.05 3.78v-16l-151.35-87.43z" fill="#f6f3f7"/><path d="m330.56 189.56-146.09-84.45 8.79-15.21 151.35 87.48 109.68-62.78-2.4-1.4v-20.32l24.34 14.12a8.83 8.83 0 0 1 -.05 15.29l-117.57 67.3a28.13 28.13 0 0 1 -28.05-.03z" fill="#fff"/><path d="m283.59 150.57v-1.26a3.85 3.85 0 0 0 -.59-1.85c-1.53-2.79-3.21-5.08-5.92-9.21a9.11 9.11 0 0 0 -3.27-3.13l-83.33-47.3-1.34 7.89 88.36 58.43z" fill="#516cb3"/><path d="m190.48 87.82 83.33 47.3a7.25 7.25 0 0 1 .77.49l-8.51 4.46-50-27.45-27-16.91z" fill="#33c0c9"/><path d="m279.82 142.36-6.93 3.64-3.07-3.78 7.35-3.82c1.01 1.53 1.88 2.81 2.65 3.96z" fill="#fff"/><path d="m277.5 154.14v-1.26a3 3 0 0 0 -.6-1.84c-1.71-2.25-7.08-8.82-7.08-8.82a11.38 11.38 0 0 0 -3.11-2.48l-77.57-44v8.37z" fill="#00b0bc"/><path d="m263.39 139.45v3.4l-74.25-42.09v-3.46z" fill="#6f2c91"/><path d="m267.91 142.01v6.71l-3.31-1.88v-6.71z" fill="#6f2c91"/><path d="m193.5 168.63c0 4.21-2.73 8.43-8.26 11.65-11.07 6.43-29.08 6.43-40.22 0-5.58-3.22-8.38-7.44-8.4-11.65v-83.36h56.88z" fill="#00b0bc"/><path d="m159.06 184.72c9.15 1.15 19.09-.32 26.18-4.44 5.53-3.22 8.29-7.44 8.26-11.65v-83.36h-34.44z" fill="#516cb3"/><ellipse cx="165.06" cy="85.27" fill="#fff" rx="16.47" ry="28.44" transform="matrix(.00279252 -.9999961 .9999961 .00279252 79.33 250.09)"/><path d="m165.15 99.84c-7.26 0-14.08-1.62-19.18-4.57-4.8-2.77-7.45-6.34-7.45-10s2.59-7.21 7.32-10c5.07-3 11.86-4.57 19.13-4.57s14.08 1.63 19.19 4.57c4.79 2.77 7.44 6.34 7.44 10s-2.59 7.22-7.32 10c-5.07 2.95-11.86 4.57-19.13 4.57z" fill="#33c0c9"/><path d="m145.84 77.16c5.07-3 11.86-4.57 19.13-4.57s14.08 1.63 19.19 4.57c4.39 2.54 7 5.74 7.38 9.11a7.73 7.73 0 0 0 .06-1c0-3.71-2.65-7.28-7.44-10-5.11-2.94-11.92-4.57-19.19-4.57s-14.06 1.62-19.13 4.57c-4.73 2.75-7.33 6.29-7.32 10 0 .32 0 .63.06.94.42-3.38 2.95-6.54 7.26-9.05z" fill="#516cb3"/><path d="m147 81.09c0 2.68 1.79 5.35 5.33 7.39 7.06 4.08 18.49 4.08 25.51 0 3.51-2 5.26-4.71 5.24-7.39v-17.87h-36.08z" fill="#00b0bc"/><path d="m161.16 91.28c5.83.76 12.18-.17 16.7-2.8 3.51-2 5.26-4.71 5.24-7.39v-17.87h-21.94z" fill="#516cb3"/><path d="m177.78 55.83c7.06 4.08 7.1 10.7.08 14.78s-18.45 4.08-25.51 0-7.11-10.7-.09-14.78 18.45-4.08 25.52 0z" fill="#fff"/><path d="m165.12 71.77a24 24 0 0 1 -11.82-2.77c-2.82-1.63-4.38-3.68-4.38-5.77s1.52-4.11 4.29-5.72a26.31 26.31 0 0 1 23.62 0c2.82 1.63 4.37 3.68 4.37 5.78s-1.52 4.1-4.29 5.72a24 24 0 0 1 -11.79 2.76z" fill="#33c0c9"/><path d="m153.21 59.37a26.22 26.22 0 0 1 23.62 0c2.39 1.38 3.87 3.07 4.26 4.83a4.4 4.4 0 0 0 .11-1c0-2.1-1.55-4.15-4.37-5.78a26.31 26.31 0 0 0 -23.62 0c-2.77 1.61-4.3 3.64-4.29 5.72a4.31 4.31 0 0 0 .11.94c.39-1.68 1.84-3.35 4.18-4.71z" fill="#516cb3"/><path d="m251.66 147.01-13.48 7.84-36.63-21.06 13.48-7.83z" fill="#33c0c9"/><path d="m238.18 154.85v36.76l-36.63-21.05v-36.77z" fill="#516cb3"/><path d="m238.18 154.85v36.76l13.48-7.83v-36.77z" fill="#516cb3"/><path d="m238.2 128.59-13.49 7.83-36.63-21.06 13.48-7.83z" fill="#33c0c9"/><path d="m224.71 136.42v63.03l-36.63-21.06v-63.03z" fill="#00b0bc"/><path d="m224.71 136.42v63.03l13.49-7.83v-63.03z" fill="#516cb3"/><path d="m346.66 52a30.22 30.22 0 0 0 -15-23.57 55.7 55.7 0 0 0 -55.44-.48l-54.05 30.55c-10.66 6.2-16.76 15.87-16.74 26.5s6.18 20.39 16.91 26.59c7.77 4.49 17.7 7 28 7a56.81 56.81 0 0 0 27.21-6.59l118.25-67.08v-20.74zm-24.29 13.74-53.2 30.26c-10.4 6-27.33 6-37.81 0s-10.53-15.85-.12-21.89l53.88-30.46a37.6 37.6 0 0 1 37.43.32 12.57 12.57 0 0 1 -.18 21.77z" fill="#f6f3f7"/><path d="m268.08 108.3v7.7a49.31 49.31 0 0 0 9.47-4l118.25-67.08v-11.46z" fill="url(#g)"/><path d="m346.66 49.34a30.25 30.25 0 0 0 -15-23.57 55.68 55.68 0 0 0 -55.44-.47l-54.05 30.56c-10.66 6.19-16.76 15.86-16.74 26.53s6.18 20.4 16.91 26.59c7.77 4.49 17.7 7 28 7 10 0 19.61-2.34 27.25-6.6l118.21-67.11v-20.73zm-24.29 13.75-53.2 30.27c-10.4 6-27.33 6-37.81 0s-10.53-15.86-.12-21.9l53.88-30.46a37.6 37.6 0 0 1 37.43.32 12.57 12.57 0 0 1 -.18 21.76z" fill="#fff"/><path d="m276.93 80.34c.08 4-2.5 8-7.76 11.08-10.4 6-27.33 6-37.81 0-5.23-3-7.87-7-7.89-11v2c.06 3.93 2.69 7.86 7.89 10.87 10.48 6 27.41 6 37.81 0 5-2.9 7.57-6.66 7.75-10.46v-2.5z" fill="#f6f3f7"/><path d="m269.17 91.42c-7.18 4.17-17.47 5.46-26.6 3.87v1.94c9.13 1.59 19.42.3 26.6-3.87 5-2.9 7.57-6.66 7.75-10.46v-2.57c.08 4.01-2.49 8.03-7.75 11.09z" fill="url(#h)"/><path d="m269.05 69.51c10.47 6 10.53 15.86.12 21.91s-27.33 6-37.81 0-10.53-15.85-.12-21.9 27.33-6.05 37.81-.01z" fill="#fff"/><path d="m235.53 71.46v5.92" fill="none" stroke="#516cb3" stroke-miterlimit="10"/><path d="m238.2 70.16a2.67 2.67 0 0 1 -5.33 0c0-1.47 1.72-15.14 2.66-15.14s2.67 13.67 2.67 15.14z" fill="#00b0bc"/><path d="m241.57 85.59v5.92" fill="none" stroke="#516cb3" stroke-miterlimit="10"/><path d="m244.23 84.29a2.66 2.66 0 1 1 -5.32 0c0-1.47 1.72-15.14 2.66-15.14s2.66 13.67 2.66 15.14z" fill="#00b0bc"/><path d="m270.73 71.72v5.92" fill="none" stroke="#516cb3" stroke-miterlimit="10"/><path d="m273.4 70.42a2.67 2.67 0 0 1 -5.33 0c0-1.47 1.72-15.14 2.66-15.14s2.67 13.72 2.67 15.14z" fill="#00b0bc"/><path d="m264.54 82.09v5.92" fill="none" stroke="#516cb3" stroke-miterlimit="10"/><path d="m267.2 80.79a2.66 2.66 0 1 1 -5.32 0c0-1.47 1.72-15.14 2.66-15.14s2.66 13.67 2.66 15.14z" fill="#00b0bc"/><path d="m253.06 70.91v5.92" fill="none" stroke="#516cb3" stroke-miterlimit="10"/><path d="m255.72 69.61a2.67 2.67 0 0 1 -5.33 0c0-1.47 1.72-15.15 2.67-15.15s2.66 13.68 2.66 15.15z" fill="#00b0bc"/><path d="m328.64 72.82v-52.03h-31.65v70.57z" fill="#516cb3"/><path d="m298.31 100.22a11.06 11.06 0 0 0 3.35 2.84c6.2 3.58 16.22 3.58 22.38 0 3.06-1.77 4.59-4.09 4.6-6.42v-13.64z" fill="#516cb3"/><path d="m298.31 100.22a11.06 11.06 0 0 0 3.35 2.84 23.72 23.72 0 0 0 13.06 2.62v-14.77z" fill="#00b0bc"/><path d="m314.72 80.97v-60.18h-17.73v70.57z" fill="#00b0bc"/><path d="m324 14.31c6.2 3.58 6.23 9.38.07 13s-16.18 3.58-22.38 0-6.23-9.38-.07-13 16.15-3.58 22.38 0z" fill="#fff"/><path d="m312.87 27.58a20.64 20.64 0 0 1 -10-2.37c-2.21-1.27-3.48-2.9-3.49-4.45s1.25-3.14 3.42-4.4a22.37 22.37 0 0 1 20 0c2.22 1.28 3.49 2.9 3.49 4.45s-1.29 3.19-3.44 4.41a20.51 20.51 0 0 1 -9.98 2.36z" fill="#33c0c9"/><path d="m302.78 18.73a22.32 22.32 0 0 1 20 0 7.23 7.23 0 0 1 3.22 3.27 3.12 3.12 0 0 0 .24-1.19c0-1.55-1.27-3.17-3.49-4.45a22.37 22.37 0 0 0 -20 0c-2.17 1.26-3.42 2.87-3.42 4.4a3.43 3.43 0 0 0 .25 1.19 7.09 7.09 0 0 1 3.2-3.22z" fill="#00b0bc"/><path d="m314.68 14.08c-.68-.08-1.27-.08-1.92-.08a20.53 20.53 0 0 0 -10 2.36c-2.17 1.26-3.42 2.87-3.42 4.4a3.43 3.43 0 0 0 .25 1.19 7.09 7.09 0 0 1 3.17-3.22 20.53 20.53 0 0 1 10-2.36c.65 0 1.28 0 1.92.08z" fill="#516cb3"/><path d="m346.66 49.34-61.19 34.74 2.77 19.2 65.78-37.31z" fill="#fff"/><path d="m315.94 77.17v-1.26a3.88 3.88 0 0 1 .59-1.85c1.53-2.79 3.21-5.08 5.92-9.2a9.39 9.39 0 0 1 3.27-3.14l70.08-39.72v8.6l-73.8 50.14z" fill="#00b0bc"/><path d="m395.8 22-70.08 39.72a8.25 8.25 0 0 0 -.76.49l8.5 4.47 50-27.46 12.34-8.62z" fill="#33c0c9"/><path d="m319.71 69 6.93 3.64 3.08-3.77-7.36-3.87c-1.01 1.53-1.88 2.82-2.65 4z" fill="#fff"/><path d="m322 80.74v-1.26a3 3 0 0 1 .59-1.84c1.71-2.25 7.09-8.81 7.09-8.81a11.23 11.23 0 0 1 3.1-2.49l63-35.74v8.4z" fill="#516cb3"/><path d="m336.14 66.05v3.41l59.66-33.79v-3.46z" fill="#6f2c91"/><path d="m331.62 68.61v6.71l3.32-1.88v-6.71z" fill="#6f2c91"/><path d="m350.63 89.23v2.74l11.14 6.42 2.37-1.38z" fill="#00b0bc"/></svg>