<svg viewBox="0 0 566.3 347.05" xmlns="http://www.w3.org/2000/svg" xmlns:xlink="http://www.w3.org/1999/xlink"><linearGradient id="a" gradientUnits="userSpaceOnUse" x1="380.48" x2="400.82" y1="56.48" y2="77.72"><stop offset="0" stop-color="#d1c2d8"/><stop offset="1" stop-color="#77488a"/></linearGradient><linearGradient id="b" x1="436.58" x2="449.02" xlink:href="#a" y1="83.51" y2="97.08"/><linearGradient id="c" x1="383.72" x2="422.28" xlink:href="#a" y1="112.67" y2="151.24"/><linearGradient id="d" x1="352.97" x2="411.08" xlink:href="#a" y1="177.69" y2="208.41"/><linearGradient id="e" x1="468.01" x2="550.12" xlink:href="#a" y1="211.37" y2="211.37"/><linearGradient id="f" x1="472.46" x2="546.12" xlink:href="#a" y1="127.81" y2="150.16"/><linearGradient id="g" x1="373.27" x2="489.27" xlink:href="#a" y1="67.86" y2="67.86"/><linearGradient id="h" x1="350.1" x2="381.32" xlink:href="#a" y1="80.93" y2="80.93"/><path d="m116 286.7v10.82" fill="none" stroke="#516cb3" stroke-miterlimit="10" stroke-width="2"/><path d="m120.87 284.33a4.87 4.87 0 0 1 -9.74 0c0-2.69 3.14-27.67 4.87-27.67s4.87 24.98 4.87 27.67z" fill="#00b0bc"/><path d="m390.65 286.6v10.82" fill="none" stroke="#516cb3" stroke-miterlimit="10" stroke-width="2"/><path d="m395.52 284.23a4.87 4.87 0 0 1 -9.74 0c0-2.69 3.14-27.68 4.87-27.68s4.87 24.99 4.87 27.68z" fill="#00b0bc"/><path d="m300.66 316.81v10.82" fill="none" stroke="#516cb3" stroke-miterlimit="10" stroke-width="2"/><path d="m305.53 314.44a4.87 4.87 0 0 1 -9.73 0c0-2.69 3.14-27.67 4.86-27.67s4.87 24.98 4.87 27.67z" fill="#00b0bc"/><path d="m278.42 290.99v10.82" fill="none" stroke="#516cb3" stroke-miterlimit="10" stroke-width="2"/><path d="m283.28 288.62a4.87 4.87 0 0 1 -9.73 0c0-2.69 3.14-27.68 4.87-27.68s4.86 24.99 4.86 27.68z" fill="#00b0bc"/><path d="m44.3 199.18v10.82" fill="none" stroke="#516cb3" stroke-miterlimit="10" stroke-width="2"/><path d="m49.17 196.81a4.87 4.87 0 0 1 -9.74 0c0-2.69 3.14-27.67 4.87-27.67s4.87 24.98 4.87 27.67z" fill="#00b0bc"/><path d="m4.87 266.39v10.82" fill="none" stroke="#516cb3" stroke-miterlimit="10" stroke-width="2"/><path d="m9.73 264a4.87 4.87 0 0 1 -9.73 0c0-2.69 3.14-27.67 4.87-27.67s4.86 25 4.86 27.67z" fill="#00b0bc"/><path d="m86.46 70h-5.55l-5.28 152.1a4 4 0 0 0 2.34 3.3 12.58 12.58 0 0 0 11.42 0 4 4 0 0 0 2.35-3.3z" fill="#fff"/><path d="m82.64 77.54 2.65 149.17a10.67 10.67 0 0 0 4.1-1.28 4 4 0 0 0 2.35-3.3l-5.16-148.76z" fill="#c9c5c5"/><g fill="#fff"><path d="m93 53.07a16.66 16.66 0 0 1 7.55 13.07c0 4.81-3.41 6.75-7.6 4.34a16.67 16.67 0 0 1 -7.52-13.08c.02-4.8 3.42-6.74 7.57-4.33z"/><path d="m85.19 78.53 13.18-7.53-10.87-18.36-13.25 7.57z"/><circle cx="79.62" cy="69.43" r="10.68"/></g><path d="m79.62 80.1a10.55 10.55 0 0 0 5.57-1.58l13.14-7.52c1.36-.78 2.2-2.46 2.21-4.86a12.55 12.55 0 0 0 -.43-3.15c-3.91 2.29-14.63 8.58-19 11.07-5.37 3.07-8.6 0-8.6 0l-1.26 2a10.62 10.62 0 0 0 8.37 4.04z" fill="#00b0bc"/><path d="m70.6 72.87a21.31 21.31 0 0 1 2 1.32c-1.79 2.28-4.22 5.19-9.73 5.67s-35.87 1.14-37.46 1.08c1.44-.37 28.68-9.13 34.72-10.33 3.42-.67 8.32 1.02 10.47 2.26z" fill="#fff"/><path d="m74.69 75.23a33.15 33.15 0 0 1 9.14 8c5.49 6.84 32.69 45.34 34.12 47.37-1.62-1.77-32.33-35.37-37.82-42.21a42.29 42.29 0 0 1 -7.49-14.21 18.07 18.07 0 0 1 2.05 1.05z" fill="#fff"/><path d="m72.81 13.92c.18 2.13 3.55 42.66 3.53 50s-3.51 10.08-3.7 10.27c-.18-.36-3.64-7.19-3.64-14.53s3.63-43.82 3.81-45.74z" fill="#fff"/><path d="m75.27 75.62a6 6 0 0 0 -2.7-4.62 1.87 1.87 0 0 0 -2-.17c-4 2.6-3.91 5.91-3.47 6.58s3.45 1.81 7.34 0a1.9 1.9 0 0 0 .83-1.79z" fill="#00b0bc"/><path d="m207.63 190.28h-5.55l-5.28 152.11a4 4 0 0 0 2.34 3.29 12.58 12.58 0 0 0 11.42 0 4 4 0 0 0 2.35-3.29z" fill="#fff"/><path d="m203.81 197.79 2.65 149.21a10.67 10.67 0 0 0 4.1-1.28 4 4 0 0 0 2.35-3.29l-5.16-148.77z" fill="#c9c5c5"/><path d="m214.2 173.33a16.63 16.63 0 0 1 7.55 13.06c0 4.81-3.41 6.75-7.6 4.34a16.67 16.67 0 0 1 -7.55-13.08c.02-4.8 3.4-6.74 7.6-4.32z" fill="#fff"/><path d="m206.36 198.78 13.18-7.52-10.87-18.37-13.25 7.57z" fill="#fff"/><circle cx="200.79" cy="189.68" fill="#fff" r="10.68"/><path d="m200.79 200.35a10.55 10.55 0 0 0 5.57-1.58l13.14-7.51c1.36-.79 2.2-2.47 2.21-4.87a12.55 12.55 0 0 0 -.43-3.15c-3.91 2.29-14.63 8.58-19 11.07-5.37 3.07-8.6 0-8.6 0l-1.26 2.05a10.64 10.64 0 0 0 8.37 3.99z" fill="#00b0bc"/><path d="m191.77 193.12a21.31 21.31 0 0 1 2 1.32c-1.79 2.28-4.22 5.19-9.73 5.67s-35.88 1.18-37.5 1.08c1.44-.37 28.68-9.13 34.72-10.33 3.46-.67 8.36 1.02 10.51 2.26z" fill="#fff"/><path d="m195.86 195.48a33.5 33.5 0 0 1 9.14 8c5.49 6.84 32.69 45.34 34.12 47.37-1.62-1.77-32.33-35.37-37.82-42.21a42.29 42.29 0 0 1 -7.49-14.21 18.07 18.07 0 0 1 2.05 1.05z" fill="#fff"/><path d="m194 134.17c.18 2.13 3.55 42.66 3.53 50s-3.51 10.15-3.7 10.3c-.18-.36-3.65-7.23-3.63-14.53s3.6-43.85 3.8-45.77z" fill="#fff"/><path d="m196.44 195.87a6 6 0 0 0 -2.7-4.67 1.87 1.87 0 0 0 -2-.16c-4 2.59-3.91 5.9-3.47 6.57s3.45 1.81 7.34 0a1.9 1.9 0 0 0 .83-1.74z" fill="#00b0bc"/><path d="m481.84 112.46-82.11 47.79v-3.66l82.11-47.79z" fill="#6f2c91"/><path d="m481.84 108.8-82.11 47.79-79.94-45.89 82.11-47.79z" fill="#fff"/><path d="m319.79 110.7v3.67l79.94 45.88v-3.66z" fill="#516cb3"/><path d="m394.09 34.25-16.4-9.52-2 1.09v62.08l16.4 9.52 2-1.09zm-14.9 21.66v-19.83l12.9 7.52v19.83z" fill="url(#a)"/><path d="m392.08 35.34-16.4-9.52v62.08l16.4 9.52zm-14.9 21.66v-11.69l13.4 7.82v11.68z" fill="#f6f3f7"/><path d="m377.18 56.99 2.01-1.08 11.4 6.65v2.25z" fill="#fff"/><path d="m450 61.28-16.4-9.52-2 1.08v62.08l16.4 9.52 2-1.09zm-14.9 21.65v-19.82l12.9 7.52v19.82z" fill="url(#b)"/><path d="m448 62.36-16.4-9.52v62.08l16.4 9.52zm-14.92 21.64v-11.67l13.4 7.82v11.68z" fill="#f6f3f7"/><path d="m433.08 84.02 2.01-1.09 11.4 6.65v2.25z" fill="#fff"/><path d="m397.52 90.45-16.4-9.52-2 1.09v62.08l16.4 9.52 2-1.09zm-14.9 21.66v-19.82l12.89 7.52v19.82z" fill="url(#c)"/><path d="m395.51 91.54-16.4-9.54v62.1l16.4 9.52zm-14.89 21.65v-11.68l13.38 7.82v11.67z" fill="#f6f3f7"/><path d="m380.62 113.19 2-1.08 11.4 6.65v2.25z" fill="#fff"/><path d="m416.71 167.61-82.11 47.8v-3.67l82.11-47.79z" fill="url(#d)"/><path d="m416.71 163.95-82.11 47.79-107.62-62.13 82.11-47.79z" fill="#fff"/><path d="m226.98 149.61v3.67l107.62 62.13v-3.67z" fill="#f6f3f7"/><path d="m550.13 189.3-82.12 47.8v-3.67l82.12-47.79z" fill="url(#e)"/><path d="m550.13 185.64-82.12 47.79-77.15-44.63 82.11-47.8z" fill="#fff"/><path d="m390.86 188.8v3.66l77.15 44.64v-3.67z" fill="#f6f3f7"/><path d="m472.4 103.23-26.3 15.29-23.79-13.69 26.3-15.3z" fill="#fff"/><path d="m464.82 88.1-18.72 10.88-16.57-9.65 18.71-10.78z" fill="#fff"/><path d="m433.83 89.42 14.42-8.38 12.26 7.07-14.41 8.38z" fill="#33c0c9"/><path d="m448.25 83.53 10.11 5.83 2.15-1.25-12.26-7.07-14.42 8.38 2.15 1.24z" fill="#516cb3"/><path d="m448.25 81.04v2.49l-12.27 7.13-2.15-1.24z" fill="#516cb3"/><path d="m446.1 115v-16.02l18.72-10.88v16.01z" fill="#516cb3"/><path d="m429.53 89.33v16.01l16.57 9.66v-16.02z" fill="#00b0bc"/><path d="m446.1 118.52v93.22l-23.79-13.69v-93.22z" fill="#00b0bc"/><path d="m446.1 118.52v93.22l26.3-15.29v-93.22z" fill="#516cb3"/><path d="m514.74 29.72v167.68l25.47-14.87v-167.67z" fill="#516cb3"/><path d="m514.74 29.72v167.68l-25.47-14.87v-167.67z" fill="#00b0bc"/><path d="m491.43 181.29v-162.67l21.16 12.34v162.68z" fill="#00b0bc"/><path d="m496.14 178.99v-157.62l-4.71-2.75v162.67l21.16 12.35v-5.06z" fill="#fff"/><path d="m496.14 178.99-4.71 2.3v-162.67l4.71 2.75z" fill="#516cb3"/><path d="m472.16 112.48v19.74a8.43 8.43 0 0 0 4.22 7.34 25.6 25.6 0 0 0 25.8 0l12.56-7.34v-20.22z" fill="#00b0bc"/><path d="m488.05 143a25.52 25.52 0 0 0 14.13-3.45l12.56-7.34v-20.21l-26.69.33z" fill="#516cb3"/><path d="m514.74 112-12.56 7.34a25.6 25.6 0 0 1 -25.8 0 8.5 8.5 0 0 1 0-14.68l12.88-7.52z" fill="#fff"/><path d="m489.28 120.63a23.5 23.5 0 0 1 -11.82-3.19 6.35 6.35 0 0 1 0-11l14-8.12 21.16 12.35-11.5 6.72a23.37 23.37 0 0 1 -11.84 3.24z" fill="#33c0c9"/><path d="m477.46 112 18.68-10.86-.94-1.61-3.77-1.14-14 8.12a6.28 6.28 0 0 0 -3.14 5.48 6.37 6.37 0 0 0 .62 2.75 6.27 6.27 0 0 1 2.55-2.74z" fill="#516cb3"/><path d="m540.21 14.86-25.46 14.87-25.48-14.87 25.46-14.86z" fill="#33c0c9"/><path d="m472.16 74.42v19.74a8.43 8.43 0 0 0 4.22 7.34 25.58 25.58 0 0 0 25.8 0l12.56-7.33v-20.27z" fill="#00b0bc"/><path d="m488.05 105a25.61 25.61 0 0 0 14.13-3.46l12.56-7.33v-20.31l-26.69.33z" fill="#516cb3"/><path d="m514.74 73.9-12.56 7.33a25.58 25.58 0 0 1 -25.8 0 8.5 8.5 0 0 1 0-14.68l12.88-7.55z" fill="#fff"/><path d="m489.28 82.57a23.51 23.51 0 0 1 -11.82-3.2 6.34 6.34 0 0 1 0-11l14-8.12 21.16 12.34-11.5 6.73a23.47 23.47 0 0 1 -11.84 3.25z" fill="#33c0c9"/><path d="m477.46 73.91 18.68-10.86-.94-1.61-3.77-1.14-14 8.12a6.28 6.28 0 0 0 -3.14 5.48 6.37 6.37 0 0 0 .62 2.75 6.27 6.27 0 0 1 2.55-2.74z" fill="#516cb3"/><path d="m496.14 165.64-12.25 7.11-23.79-13.69 12.25-7.11z" fill="#33c0c9"/><path d="m483.89 172.75v44.28l-23.79-13.69v-44.28z" fill="#00b0bc"/><path d="m483.89 172.75v44.28l12.25-7.11v-44.28z" fill="#516cb3"/><path d="m566.3 103.91h-.69a7.82 7.82 0 0 0 -3.3-3.67l-22.1-12.84v18.45l2.18 1.27-99.61 57-137.46-79.43-8 13.81 132.68 76.7a25.54 25.54 0 0 0 25.47.05l106.78-61.12a7.68 7.68 0 0 0 4-6.59c.04-.93.05-3.63.05-3.63z" fill="url(#f)"/><path d="m297.33 98.5 132.67 76.7a25.58 25.58 0 0 0 12.76 3.43v-14.49l-137.44-79.45z" fill="#f6f3f7"/><path d="m430 172.16-132.67-76.7 8-13.81 137.45 79.45 99.61-57-2.18-1.27v-18.47l22.1 12.84a8 8 0 0 1 0 13.89l-106.82 61.12a25.54 25.54 0 0 1 -25.49-.05z" fill="#fff"/><path d="m387.36 136.75v-1.15a3.51 3.51 0 0 0 -.54-1.67c-1.39-2.53-2.92-4.62-5.38-8.37a8.53 8.53 0 0 0 -3-2.85l-75.65-42.95-1.21 7.16 80.24 53.08z" fill="#516cb3"/><path d="m302.79 79.76 75.69 42.95c.25.15.47.3.69.45l-7.72 4.06-45.38-24.94-24.49-15.36z" fill="#33c0c9"/><path d="m383.93 129.3-6.29 3.3-2.79-3.43 6.68-3.47z" fill="#fff"/><path d="m381.82 140v-1.14a2.74 2.74 0 0 0 -.54-1.68c-1.55-2-6.43-8-6.43-8a10.22 10.22 0 0 0 -2.83-2.26l-70.44-40v7.6z" fill="#00b0bc"/><path d="m369.01 126.65v3.09l-67.43-38.23v-3.14z" fill="#6f2c91"/><path d="m373.12 128.98v6.09l-3.01-1.7v-6.1z" fill="#6f2c91"/><path d="m305.54 153.15c0 3.83-2.48 7.66-7.51 10.58-10 5.84-26.41 5.84-36.53 0-5.06-2.92-7.6-6.75-7.62-10.58v-75.71h51.66z" fill="#00b0bc"/><path d="m274.25 167.76c8.32 1.05 17.34-.29 23.78-4 5-2.92 7.53-6.75 7.51-10.58v-75.74h-31.29z" fill="#516cb3"/><ellipse cx="279.71" cy="77.44" fill="#fff" rx="14.96" ry="25.83" transform="matrix(.00279252 -.9999961 .9999961 .00279252 201.47 356.93)"/><path d="m279.79 90.68a35.54 35.54 0 0 1 -17.43-4.15c-4.36-2.53-6.76-5.76-6.76-9.13s2.36-6.55 6.65-9.05c4.6-2.67 10.77-4.15 17.37-4.15a35.52 35.52 0 0 1 17.43 4.15c4.36 2.52 6.76 5.76 6.76 9.13s-2.35 6.56-6.64 9c-4.61 2.72-10.78 4.2-17.38 4.2z" fill="#33c0c9"/><path d="m262.25 70.08c4.6-2.68 10.77-4.15 17.37-4.15s12.79 1.47 17.43 4.15c4 2.3 6.33 5.21 6.7 8.27a6.36 6.36 0 0 0 .06-.87c0-3.37-2.4-6.61-6.76-9.13a35.52 35.52 0 0 0 -17.43-4.15c-6.6 0-12.77 1.48-17.37 4.15-4.29 2.5-6.65 5.71-6.65 9.05a6.22 6.22 0 0 0 .06.86c.34-3.03 2.67-5.91 6.59-8.18z" fill="#516cb3"/><path d="m263.32 73.65c0 2.43 1.63 4.86 4.84 6.71 6.42 3.71 16.79 3.71 23.17 0 3.19-1.85 4.78-4.28 4.76-6.71v-16.24h-32.77z" fill="#00b0bc"/><path d="m276.16 82.9c5.3.69 11.06-.15 15.17-2.54 3.19-1.85 4.78-4.28 4.76-6.71v-16.24h-19.93z" fill="#516cb3"/><path d="m291.26 50.7c6.41 3.71 6.45 9.72.07 13.43s-16.75 3.7-23.17 0-6.46-9.72-.08-13.43 16.75-3.7 23.18 0z" fill="#fff"/><path d="m279.76 65.18a21.79 21.79 0 0 1 -10.76-2.55c-2.56-1.48-4-3.34-4-5.24s1.38-3.73 3.9-5.19a23.81 23.81 0 0 1 21.44 0c2.56 1.48 4 3.34 4 5.24s-1.39 3.73-3.91 5.2a21.65 21.65 0 0 1 -10.67 2.54z" fill="#33c0c9"/><path d="m269 53.92a23.81 23.81 0 0 1 21.44 0c2.18 1.26 3.52 2.79 3.88 4.39a4.3 4.3 0 0 0 .1-.87c0-1.9-1.42-3.76-4-5.24a23.81 23.81 0 0 0 -21.44 0c-2.52 1.46-3.91 3.3-3.9 5.19a3.61 3.61 0 0 0 .1.86c.32-1.58 1.64-3.09 3.82-4.33z" fill="#516cb3"/><path d="m358.36 133.52-12.25 7.11-33.27-19.12 12.25-7.11z" fill="#33c0c9"/><path d="m346.11 140.63v33.4l-33.27-19.12v-33.4z" fill="#516cb3"/><path d="m346.11 140.63v33.4l12.25-7.12v-33.39z" fill="#516cb3"/><path d="m346.13 116.78-12.25 7.12-33.27-19.12 12.25-7.12z" fill="#33c0c9"/><path d="m333.88 123.9v57.24l-33.27-19.12v-57.24z" fill="#00b0bc"/><path d="m333.88 123.9v57.24l12.25-7.11v-57.25z" fill="#516cb3"/><path d="m444.64 47.22a27.46 27.46 0 0 0 -13.64-21.41 50.57 50.57 0 0 0 -50.35-.43l-49.08 27.75c-9.67 5.63-15.22 14.41-15.2 24.11s5.61 18.52 15.36 24.15c7 4.07 16.07 6.31 25.39 6.31a51.59 51.59 0 0 0 24.75-6l107.4-60.9v-18.8zm-22.06 12.49-48.32 27.49c-9.45 5.49-24.82 5.48-34.33 0s-9.57-14.39-.12-19.89l48.94-27.65a34.12 34.12 0 0 1 34 .29 11.41 11.41 0 0 1 -.16 19.77z" fill="#f6f3f7"/><path d="m373.27 98.36v7a44.52 44.52 0 0 0 8.6-3.63l107.4-60.93v-10.41z" fill="url(#g)"/><path d="m444.64 44.81a27.44 27.44 0 0 0 -13.64-21.4 50.54 50.54 0 0 0 -50.31-.41l-49.12 27.73c-9.67 5.62-15.22 14.41-15.2 24.1s5.63 18.52 15.36 24.17c7 4.07 16.07 6.32 25.39 6.32a51.59 51.59 0 0 0 24.75-6l107.4-60.92v-18.84zm-22.06 12.49-48.32 27.49c-9.45 5.49-24.82 5.49-34.33 0s-9.57-14.4-.12-19.89l48.94-27.66a34.19 34.19 0 0 1 34 .29 11.41 11.41 0 0 1 -.16 19.77z" fill="#fff"/><path d="m381.31 73c.07 3.64-2.27 7.29-7.05 10.07-9.45 5.49-24.82 5.48-34.33 0-4.76-2.74-7.15-6.34-7.17-9.94v1.83c.05 3.58 2.44 7.15 7.17 9.88 9.51 5.49 24.88 5.49 34.33 0 4.53-2.63 6.87-6.05 7-9.5v-2.34z" fill="#f6f3f7"/><path d="m374.26 83c-6.52 3.79-15.87 5-24.16 3.51v1.77c8.29 1.44 17.64.27 24.16-3.52 4.53-2.63 6.87-6.05 7-9.5v-2.26c.12 3.6-2.26 7.25-7 10z" fill="url(#h)"/><path d="m374.15 63.13c9.51 5.49 9.56 14.4.11 19.9s-24.82 5.48-34.33 0-9.57-14.39-.12-19.89 24.82-5.5 34.34-.01z" fill="#fff"/><path d="m343.71 64.9v5.38" fill="none" stroke="#516cb3" stroke-miterlimit="10"/><path d="m346.13 63.72a2.42 2.42 0 0 1 -4.84 0c0-1.34 1.56-13.75 2.42-13.75s2.42 12.41 2.42 13.75z" fill="#00b0bc"/><path d="m349.19 77.74v5.38" fill="none" stroke="#516cb3" stroke-miterlimit="10"/><path d="m351.61 76.56a2.42 2.42 0 1 1 -4.83 0c0-1.34 1.56-13.76 2.41-13.76s2.42 12.42 2.42 13.76z" fill="#00b0bc"/><path d="m375.68 65.14v5.37" fill="none" stroke="#516cb3" stroke-miterlimit="10"/><path d="m378.1 64a2.42 2.42 0 1 1 -4.84 0c0-1.34 1.56-13.76 2.42-13.76s2.42 12.38 2.42 13.76z" fill="#00b0bc"/><path d="m370.06 74.56v5.37" fill="none" stroke="#516cb3" stroke-miterlimit="10"/><path d="m372.48 73.38a2.42 2.42 0 0 1 -4.84 0c0-1.34 1.56-13.76 2.42-13.76s2.42 12.38 2.42 13.76z" fill="#00b0bc"/><path d="m359.63 64.4v5.38" fill="none" stroke="#516cb3" stroke-miterlimit="10"/><path d="m362 63.22a2.42 2.42 0 1 1 -4.83 0c0-1.34 1.56-13.75 2.42-13.75s2.41 12.41 2.41 13.75z" fill="#00b0bc"/><path d="m428.27 66.13v-47.25h-28.74v64.1z" fill="#516cb3"/><path d="m400.73 91a9.78 9.78 0 0 0 3 2.58c5.63 3.25 14.73 3.26 20.33 0 2.77-1.62 4.16-3.72 4.17-5.84v-12.35z" fill="#516cb3"/><path d="m400.73 91a9.78 9.78 0 0 0 3 2.58 21.47 21.47 0 0 0 11.9 2.42v-13.44z" fill="#00b0bc"/><path d="m415.63 73.54v-54.66h-16.1v64.1z" fill="#00b0bc"/><path d="m424 13c5.63 3.25 5.66 8.53.07 11.78s-14.7 3.25-20.33 0-5.66-8.53-.07-11.78 14.73-3.26 20.33 0z" fill="#fff"/><path d="m414 25.05a18.75 18.75 0 0 1 -9.1-2.15c-2-1.16-3.16-2.63-3.17-4s1.13-2.86 3.11-4a18.53 18.53 0 0 1 9.06-2.15 18.72 18.72 0 0 1 9.1 2.15c2 1.16 3.17 2.63 3.17 4s-1.13 2.86-3.11 4a18.53 18.53 0 0 1 -9.06 2.15z" fill="#33c0c9"/><path d="m404.79 17a20.29 20.29 0 0 1 18.21 0 6.52 6.52 0 0 1 2.95 3 3 3 0 0 0 .22-1.08c0-1.41-1.16-2.88-3.17-4a18.72 18.72 0 0 0 -9.1-2.15 18.53 18.53 0 0 0 -9.06 2.15c-2 1.14-3.11 2.6-3.11 4a3 3 0 0 0 .22 1.07 6.53 6.53 0 0 1 2.84-2.99z" fill="#00b0bc"/><path d="m415.59 12.79c-.57 0-1.15-.08-1.74-.08a18.53 18.53 0 0 0 -9.06 2.15c-2 1.14-3.11 2.6-3.11 4a3 3 0 0 0 .22 1.07 6.53 6.53 0 0 1 2.89-2.93 18.64 18.64 0 0 1 9.06-2.14c.59 0 1.17 0 1.74.07z" fill="#516cb3"/><path d="m444.64 44.81-55.57 31.56 2.51 17.43 59.74-33.88z" fill="#fff"/><path d="m416.74 70.09v-1.15a3.47 3.47 0 0 1 .54-1.67c1.39-2.54 2.91-4.62 5.37-8.37a8.47 8.47 0 0 1 3-2.85l63.65-36.11v7.85l-67 45.54z" fill="#00b0bc"/><path d="m489.27 19.94-63.65 36.11q-.37.23-.69.45l7.72 4.06 45.35-24.94 11.24-7.83z" fill="#33c0c9"/><path d="m420.17 62.63 6.29 3.31 2.79-3.43-6.68-3.51c-.92 1.43-1.71 2.59-2.4 3.63z" fill="#fff"/><path d="m422.27 73.33v-1.15a2.78 2.78 0 0 1 .54-1.67c1.56-2 6.44-8 6.44-8a10 10 0 0 1 2.82-2.26l57.2-32.46v7.6z" fill="#516cb3"/><path d="m435.08 59.99v3.09l54.19-30.68v-3.15z" fill="#6f2c91"/><path d="m430.98 62.32v6.08l3.01-1.7v-6.09z" fill="#6f2c91"/><path d="m448.25 81.04v2.49l10.11 5.83 2.15-1.25z" fill="#00b0bc"/></svg>