<svg viewBox="0 0 386.1 396.98" xmlns="http://www.w3.org/2000/svg"><path d="m0 169.5 128.7 74.31 257.4-148.63-64.35-95.18-64.35 20.87z" fill="#06b3bb"/><path d="m0 322.67 128.7 74.31v-153.17l-64.35-95.18-64.35 20.87z" fill="#06b3bb"/><path d="m128.7 243.81v153.17l257.4-148.62v-153.17z" fill="#516cb4"/><path d="m64.35 148.63 257.4-148.63 64.35 95.19-257.4 148.62z" fill="#2bbec5"/><path d="m13.03 274.18 102.64 59.26v-80.52l-102.64-59.26z" fill="#fff"/><path d="m207.51 224.53-42.71 24.66v68.79l42.71-24.66z" fill="#fff"/><path d="m130.61 154.65-12.71 7.34v28.38l12.71-7.34z" fill="#516cb4"/><path d="m105.2 154.65 12.7 7.34v28.38l-12.7-18.89z" fill="#06b3bb"/><path d="m117.9 147.31 12.71 7.34-12.71 7.34-12.7-7.34z" fill="#fff"/><path d="m350 141.36-42.71 24.66v68.78l42.71-24.66z" fill="#fff"/><path d="m226.59 340.34 61.62-35.59v-126.4l-61.62 35.58z" fill="#42145f"/></svg>