<svg id="Layer_1" xmlns="http://www.w3.org/2000/svg" viewBox="0 0 30 30"><style>.st0{fill:#075e7c}</style><path class="st0" d="M27.9 7.3l-.7.7c3.9 6.8 1.6 15.4-5.2 19.3S6.6 28.9 2.7 22.1 1.2 6.7 7.9 2.8c4.4-2.5 9.9-2.5 14.2.1l.7-.7C15.8-2.1 6.6.1 2.2 7.1S.1 23.4 7.1 27.8s16.3 2.1 20.6-4.9c3-4.8 3-10.8.2-15.6z"/><path class="st0" d="M24.9 0L24.4 0.5 28.1 1.3 24.2 5.2 24.9 5.9 28.7 2 29.6 5.6 30 5.1 30 0z"/><path class="st0" d="M24.4 11.5v-1.2l-1.2-1.2H6.8l-1.2 1.2v9.4l1.2 1.2h16.4l1.2-1.2v-8.2zm-1.2 7L20.5 13l2.7-1.3v6.8zM6.8 11.6L9.5 13l-2.7 5.6v-7zm8.2 4.1l4.4-2.2 3.2 6.2H7.4l3.2-6.2 4.4 2.2zm8.2-5.4l-8.2 4-8.2-4h16.4z"/></svg>