<svg xmlns="http://www.w3.org/2000/svg" xmlns:xlink="http://www.w3.org/1999/xlink" width="89.81" height="16.41"><defs><linearGradient id="a" x1="10" y1="8.08" x2="14" y2="10.39" gradientUnits="userSpaceOnUse"><stop offset="0" stop-color="#ed1b2f" stop-opacity=".1"/><stop offset=".15" stop-color="#ed1b2f" stop-opacity=".14"/><stop offset=".39" stop-color="#ed1b2f" stop-opacity=".24"/><stop offset=".7" stop-color="#ed1b2f" stop-opacity=".41"/><stop offset="1" stop-color="#ed1b2f" stop-opacity=".6"/></linearGradient><linearGradient id="b" x1="16642.32" y1="6430.79" x2="16640.83" y2="6426.71" gradientTransform="rotate(-120 6470.974 8019.015)" xlink:href="#a"/><linearGradient id="c" x1="2767.3" y1="17609" x2="2768.33" y2="17603.15" gradientTransform="rotate(120 6466.766 8012.03)" xlink:href="#a"/></defs><g data-name="Layer 2"><g data-name="Loading...[auto]"><path d="M89.81 14.08v2h-.11a7.77 7.77 0 0 1-2.13.23A2.42 2.42 0 0 1 85 13.64V7.85h-1.42v-.14-1.9H85V3.19l2.29-.8v3.42h2.48v2h-2.44v5.31c0 .95.45 1.13 1.28 1.13a3.37 3.37 0 0 0 1-.15zm-8.88-3.85c1.76.77 2.43 1.59 2.43 3s-1.36 3.18-3.93 3.18a7.88 7.88 0 0 1-3.27-.72h-.08v-2.26l.21.12a7 7 0 0 0 3.08.82c1 0 1.63-.37 1.63-1s-.36-.8-1.26-1.2l-.36-.17-1.45-.65a2.93 2.93 0 0 1-2-2.79c0-1 .78-2.94 3.71-2.94a7.64 7.64 0 0 1 2.87.56h.09V8.4l-.22-.09a5.66 5.66 0 0 0-2.66-.68c-.34 0-1.44.07-1.44.84 0 .59.69.89 1.26 1.15h.11l1 .44zM73.7 7a6.17 6.17 0 0 1 1.17 4.8v.11h-6.62A2.45 2.45 0 0 0 71 14.33a5.57 5.57 0 0 0 2.8-.73l.22-.13v2.17h-.08a6.58 6.58 0 0 1-3.24.7c-.81 0-4.86-.25-4.86-5.34 0-4.28 3-5.42 4.7-5.42A4 4 0 0 1 73.7 7zm-5.45 2.91h4.32a2.18 2.18 0 0 0-2.12-2.25 2.27 2.27 0 0 0-2.2 2.25zm-2.38-7.43l-2.75 13.69h-2.33l-2.42-9.54-2.47 9.54h-2.29L50.74 2.48h2.39L55 11.77l2.3-9.29h2.24c.21.86 2.31 9.17 2.34 9.27 0-.11 1.64-9 1.7-9.27zm-15.4 11.6v2h-.11a7.85 7.85 0 0 1-2.14.23 2.42 2.42 0 0 1-2.53-2.74V7.85h-1.46v-2h1.46V3.19l2.31-.8v3.42h2.49v2H48v5.31c0 .94.45 1.13 1.28 1.13a3.25 3.25 0 0 0 1-.15zm-6.89-4.91v7h-2.27v-.81a3.73 3.73 0 0 1-2.65 1A3.46 3.46 0 0 1 35 12.88c0-1.65 1.29-3.44 4.14-3.44h2.15c0-1-.09-1.76-2.1-1.76a7.9 7.9 0 0 0-2.64.5l-.2.1V6.17h.09a8 8 0 0 1 3.09-.55c1.21-.03 4.05.32 4.05 3.55zm-2.29 4v-1.71h-2c-1.25 0-2 .52-2 1.42a1.43 1.43 0 0 0 1.61 1.44 3.1 3.1 0 0 0 2.39-1.18z" fill="#3f245d"/><path fill="#3f245d" d="M33.79 2.48L33.79 16.17 31.61 16.17 25.64 6.63 25.64 16.17 23.41 16.17 23.41 2.48 25.64 2.48 31.55 12.08 31.55 2.48 33.79 2.48z"/><g><path fill="#fff" opacity="0.1" d="M8 16.17L9.33 13.85 10.67 16.17 16 16.17 16 16.17 18.67 11.55 16 6.93 16 6.93 13.33 6.93 14.67 4.62 12 0 12 0 6.67 0 4 4.62 5.34 6.93 2.67 6.93 0 11.54 0 11.54 0 11.55 2.67 16.17 8 16.17 8 16.17"/><path fill="url(#a)" d="M13.33 6.93L12 9.24 9.34 9.24 9.34 9.24 8 11.55 13.34 11.55 16 6.93 13.33 6.93z"/><path fill="url(#b)" d="M5.34 6.93L8 6.93 9.34 9.24 9.34 9.24 12 9.24 9.34 4.62 4 4.62 5.34 6.93z"/><path fill="url(#c)" d="M9.33 13.85L8 11.55 9.34 9.24 9.34 9.24 8 6.93 5.33 11.54 8 16.17 9.33 13.85z"/><path fill="#ed1b2f" d="M18.67 11.55L16 6.93 13.34 11.55 8 11.55 10.67 16.17 16 16.17 16 16.17 16 16.17 18.67 11.55z"/><path fill="#ed1b2f" d="M5.33 11.54L5.33 11.54 8 6.93 2.67 6.93 0 11.54 0 11.54 0 11.55 2.67 16.17 8 16.17 8 16.17 5.33 11.54z"/><path fill="#ed1b2f" d="M14.67 4.62L12 0 12 0 6.67 0 4 4.62 9.34 4.62 9.34 4.62 12 9.24 14.67 4.62z"/><path fill="#d71925" d="M16 6.93L18.67 11.55 16 16.17 13.34 11.55 16 6.93z"/><path fill="#d71925" d="M8 16.17L8 16.17 2.67 16.17 0 11.55 0 11.54 5.33 11.54 8 16.17z"/><path fill="#d71925" d="M9.34 4.62L12 9.24 14.67 4.62 12 0 9.34 4.62z"/></g></g></g></svg>