<svg xmlns="http://www.w3.org/2000/svg" xmlns:xlink="http://www.w3.org/1999/xlink" width="89.81" height="16.41" viewBox="0 0 89.81 16.41">
  <defs>
    <linearGradient id="linear-gradient" x1="10" y1="8.08" x2="14" y2="10.39" gradientUnits="userSpaceOnUse">
      <stop offset="0" stop-color="#ed1b2f" stop-opacity="0.1"/>
      <stop offset="0.15" stop-color="#ed1b2f" stop-opacity="0.14"/>
      <stop offset="0.39" stop-color="#ed1b2f" stop-opacity="0.24"/>
      <stop offset="0.7" stop-color="#ed1b2f" stop-opacity="0.41"/>
      <stop offset="1" stop-color="#ed1b2f" stop-opacity="0.6"/>
    </linearGradient>
    <linearGradient id="linear-gradient-2" x1="16642.32" y1="6430.79" x2="16640.83" y2="6426.71" gradientTransform="translate(2761.79 17632.55) rotate(-120)" xlink:href="#linear-gradient"/>
    <linearGradient id="linear-gradient-3" x1="2767.3" y1="17609" x2="2768.33" y2="17603.15" gradientTransform="translate(16638.77 6417.66) rotate(120)" xlink:href="#linear-gradient"/>
  </defs>
  <title>NatWest</title>
  <g id="Layer_2" data-name="Layer 2">
    <g id="NatWest-longform_1-sustainability-desktop">
      <g id="Loading..._auto_" data-name="Loading...[auto]">
        <g id="Navbar">
          <g id="btyb">
            <g id="NatWest">
              <g>
                <path d="M89.81,14.08v2l-.11,0a7.77,7.77,0,0,1-2.13.23A2.42,2.42,0,0,1,85,13.64V7.85H83.58V7.71c0-.1,0-.8,0-1.45V5.81H85V3.19l2.29-.8V5.81h2.48v2H87.33v5.31c0,.95.45,1.13,1.28,1.13a3.37,3.37,0,0,0,1-.15Z" style="fill: #3f245d"/>
                <path d="M80.93,10.23c1.76.77,2.43,1.59,2.43,3S82,16.41,79.43,16.41a7.88,7.88,0,0,1-3.27-.72l-.08,0V13.43l.21.12a7,7,0,0,0,3.08.82c1,0,1.63-.37,1.63-1s-.36-.8-1.26-1.2L79.38,12l-1.45-.65a2.93,2.93,0,0,1-2-2.79c0-1,.78-2.94,3.71-2.94a7.64,7.64,0,0,1,2.87.56l.09,0V8.4l-.22-.09a5.66,5.66,0,0,0-2.66-.68c-.34,0-1.44.07-1.44.84,0,.59.69.89,1.26,1.15l.11,0,1,.44Z" style="fill: #3f245d"/>
                <path d="M73.7,7a6.17,6.17,0,0,1,1.17,4.8v.11H68.25A2.45,2.45,0,0,0,71,14.33a5.57,5.57,0,0,0,2.8-.73l.22-.13v2.17l-.08,0a6.58,6.58,0,0,1-3.24.7c-.81,0-4.86-.25-4.86-5.34,0-4.28,3-5.42,4.7-5.42A4,4,0,0,1,73.7,7ZM68.25,9.91h4.32a2.18,2.18,0,0,0-2.12-2.25A2.27,2.27,0,0,0,68.25,9.91Z" style="fill: #3f245d"/>
                <path d="M65.87,2.48,63.12,16.17H60.79L58.37,6.63,55.9,16.17H53.61L50.74,2.48h2.39L55,11.77,57.3,2.48h2.24c.21.86,2.31,9.17,2.34,9.27,0-.11,1.64-9,1.7-9.27Z" style="fill: #3f245d"/>
                <path d="M50.47,14.08v2l-.11,0a7.85,7.85,0,0,1-2.14.23,2.42,2.42,0,0,1-2.53-2.74V7.85H44.23v-2h1.46V3.19L48,2.39V5.81h2.49v2H48v5.31c0,.94.45,1.13,1.28,1.13a3.25,3.25,0,0,0,1-.15Z" style="fill: #3f245d"/>
                <path d="M43.58,9.17v7H41.31v-.81a3.73,3.73,0,0,1-2.65,1A3.46,3.46,0,0,1,35,12.88c0-1.65,1.29-3.44,4.14-3.44h2.15c0-1-.09-1.76-2.1-1.76a7.9,7.9,0,0,0-2.64.5l-.2.1V6.17l.09,0a8,8,0,0,1,3.09-.55C40.74,5.59,43.58,5.94,43.58,9.17Zm-2.29,4V11.46h-2c-1.25,0-2,.52-2,1.42a1.43,1.43,0,0,0,1.61,1.44A3.1,3.1,0,0,0,41.29,13.14Z" style="fill: #3f245d"/>
                <polygon points="33.79 2.48 33.79 16.17 31.61 16.17 25.64 6.63 25.64 16.17 23.41 16.17 23.41 2.48 25.64 2.48 31.55 12.08 31.55 2.48 33.79 2.48" style="fill: #3f245d"/>
              </g>
              <g>
                <polyline points="8 16.17 9.33 13.85 10.67 16.17 16 16.17 16 16.17 18.67 11.55 16 6.93 16 6.93 13.33 6.93 14.67 4.62 12 0 12 0 6.67 0 4 4.62 5.34 6.93 2.67 6.93 0 11.54 0 11.54 0 11.55 2.67 16.17 8 16.17 8 16.17" style="fill: #fff;opacity: 0.1"/>
                <polygon points="13.33 6.93 12 9.24 9.34 9.24 9.34 9.24 8 11.55 13.34 11.55 16 6.93 13.33 6.93" style="fill: url(#linear-gradient)"/>
                <polygon points="5.34 6.93 8 6.93 9.34 9.24 9.34 9.24 12 9.24 9.34 4.62 4 4.62 5.34 6.93" style="fill: url(#linear-gradient-2)"/>
                <polygon points="9.33 13.85 8 11.55 9.34 9.24 9.34 9.24 8 6.93 5.33 11.54 8 16.17 9.33 13.85" style="fill: url(#linear-gradient-3)"/>
                <polygon points="18.67 11.55 16 6.93 13.34 11.55 8 11.55 10.67 16.17 16 16.17 16 16.17 16 16.17 18.67 11.55" style="fill: #ed1b2f"/>
                <polygon points="5.33 11.54 5.33 11.54 8 6.93 2.67 6.93 0 11.54 0 11.54 0 11.55 2.67 16.17 8 16.17 8 16.17 5.33 11.54" style="fill: #ed1b2f"/>
                <polygon points="14.67 4.62 12 0 12 0 6.67 0 4 4.62 9.34 4.62 9.34 4.62 12 9.24 14.67 4.62" style="fill: #ed1b2f"/>
                <polygon points="16 6.93 18.67 11.55 16 16.17 13.34 11.55 16 6.93" style="fill: #d71925"/>
                <polygon points="8 16.17 8 16.17 2.67 16.17 0 11.55 0 11.54 5.33 11.54 8 16.17" style="fill: #d71925"/>
                <polygon points="9.34 4.62 12 9.24 14.67 4.62 12 0 9.34 4.62" style="fill: #d71925"/>
              </g>
            </g>
          </g>
        </g>
      </g>
    </g>
  </g>
</svg>
