<svg xmlns="http://www.w3.org/2000/svg" xmlns:xlink="http://www.w3.org/1999/xlink" viewBox="0 0 109.9 121.28"><defs><style>.cls-1{clip-path:url(#clip-path)}.cls-2{fill:none}.cls-3{fill:url(#linear-gradient)}.cls-4{clip-path:url(#clip-path-2)}.cls-5{fill:url(#linear-gradient-2)}.cls-6{clip-path:url(#clip-path-3)}.cls-7{fill:url(#linear-gradient-3)}.cls-8{clip-path:url(#clip-path-4)}.cls-9{fill:#401663}.cls-10{opacity:.1}.cls-11{clip-path:url(#clip-path-5)}.cls-12{clip-path:url(#clip-path-6)}.cls-13{fill:#fff}.cls-14{clip-path:url(#clip-path-7)}.cls-15{mask:url(#mask)}.cls-16{fill:url(#linear-gradient-4)}.cls-17{clip-path:url(#clip-path-8)}.cls-18{mask:url(#mask-2)}.cls-19{fill:url(#linear-gradient-5)}.cls-20{clip-path:url(#clip-path-9)}.cls-21{mask:url(#mask-3)}.cls-22{fill:url(#linear-gradient-6)}.cls-23{fill:#ed1b2f}.cls-24{fill:#d71925}</style><clipPath id="clip-path"><path class="cls-2" transform="rotate(-60 68.585 47.207)" d="M48.15 23.61H89.00999999999999V70.8H48.15z"/></clipPath><linearGradient id="linear-gradient" x1="5831.39" y1="1768.12" x2="5832.02" y2="1768.12" gradientTransform="matrix(0 37.76 37.76 0 -66695.82 -220158.29)" gradientUnits="userSpaceOnUse"><stop offset="0" stop-color="#1a1a1a"/><stop offset=".14" stop-color="#232323"/><stop offset=".37" stop-color="#3b3b3b"/><stop offset=".66" stop-color="#636363"/><stop offset="1" stop-color="#999"/></linearGradient><clipPath id="clip-path-2"><path class="cls-2" transform="rotate(-50 48.143 35.386)" d="M25.97 12.15H70.32V58.629999999999995H25.97z"/></clipPath><linearGradient id="linear-gradient-2" x1="6084.99" y1="1652.22" x2="6085.62" y2="1652.22" gradientTransform="matrix(-35.46 0 0 35.46 215840.93 -58553.91)" xlink:href="#linear-gradient"/><clipPath id="clip-path-3"><path class="cls-2" transform="rotate(-50 44.724 59.012)" d="M20.08 36.01H69.38V82.00999999999999H20.08z"/></clipPath><linearGradient id="linear-gradient-3" x1="5877.85" y1="1757.52" x2="5878.48" y2="1757.52" gradientTransform="matrix(0 48.53 48.53 0 -85245.83 -285200.15)" xlink:href="#linear-gradient"/><clipPath id="clip-path-4"><path class="cls-2" d="M0 0H109.9V121.28H0z"/></clipPath><clipPath id="clip-path-5"><path class="cls-2" d="M7.25 0H102.64V82.61H7.25z"/></clipPath><clipPath id="clip-path-6"><path class="cls-2" d="M7.25 0H102.64V82.61H7.25z"/></clipPath><clipPath id="clip-path-7"><path class="cls-2" d="M75.38 35.41L68.58 47.19 54.95 47.19 48.15 59 48.15 59 75.4 59 89.02 35.41 89.02 35.41 75.38 35.41z"/></clipPath><mask id="mask" x="12.4" y="-8.83" width="112.37" height="112.06" maskUnits="userSpaceOnUse"><g class="cls-1"><path class="cls-3" transform="rotate(-60 68.585 47.207)" d="M27.72 5.92H109.45V88.49H27.72z"/></g></mask><linearGradient id="linear-gradient-4" x1="5831.39" y1="1768.12" x2="5832.02" y2="1768.12" gradientTransform="matrix(0 37.76 37.76 0 -66695.79 -220158.3)" gradientUnits="userSpaceOnUse"><stop offset="0" stop-color="#ed1b2f"/><stop offset="1" stop-color="#ed1b2f"/></linearGradient><clipPath id="clip-path-8"><path class="cls-2" d="M27.71 23.59L27.71 23.59 34.55 35.41 48.13 35.41 54.95 47.19 68.58 47.19 68.58 47.19 54.96 23.59 27.71 23.59z"/></clipPath><mask id="mask-2" x="-15.36" y="-28.11" width="127" height="127" maskUnits="userSpaceOnUse"><g class="cls-4"><path class="cls-5" transform="rotate(-50 48.143 35.386)" d="M3.08 -9.69H93.21V80.47H3.08z"/></g></mask><linearGradient id="linear-gradient-5" x1="6084.99" y1="1652.22" x2="6085.62" y2="1652.22" gradientTransform="matrix(-35.46 0 0 35.46 215840.91 -58553.97)" xlink:href="#linear-gradient-4"/><clipPath id="clip-path-9"><path class="cls-2" d="M34.51 59L48.13 82.61 54.94 70.78 48.15 59 54.95 47.19 48.13 35.41 34.51 59z"/></clipPath><mask id="mask-3" x="-21.88" y="-7.61" width="133.23" height="133.24" maskUnits="userSpaceOnUse"><g class="cls-6"><path class="cls-7" transform="rotate(-50 44.724 59.012)" d="M-2.57 11.74H92.03V106.28999999999999H-2.57z"/></g></mask><linearGradient id="linear-gradient-6" x1="5877.85" y1="1757.52" x2="5878.48" y2="1757.52" gradientTransform="matrix(0 48.53 48.53 0 -85245.93 -285200.14)" xlink:href="#linear-gradient-4"/></defs><g id="Layer_2" data-name="Layer 2"><g id="NatWest-longform_1-sustainability-desktop"><g id="NatWest_stacked" data-name="NatWest stacked"><g class="cls-8"><path class="cls-9" d="M44.78 103.74v3.38h-4.11v8.78c0 1.57.75 1.88 2.12 1.88a5.7 5.7 0 0 0 1.69-.25l.3-.09v3.38h-.17a13.33 13.33 0 0 1-3.54.39c-1 0-4.19-.33-4.19-4.54v-9.59h-2.41v-.23-3.15h2.41v-4.28l3.79-1.33v5.65zm25.49-5.51l-4.54 22.66h-3.86l-4-15.78-4.08 15.78H50l-4.77-22.66h4l3.08 15.37 3.82-15.37h3.7c.36 1.44 3.83 15.18 3.87 15.35 0-.18 2.73-14.85 2.83-15.35zm3.93 12.31a3.77 3.77 0 0 1 3.65-3.73c2.62 0 3.42 2.32 3.51 3.73zm3.83-7.1c-2.9 0-7.78 1.88-7.78 9 0 8.42 6.7 8.85 8 8.85a10.83 10.83 0 0 0 5.37-1.18l.13-.06v-3.58l-.36.21a9.27 9.27 0 0 1-4.63 1.2c-4 0-4.55-2.84-4.6-4h11v-.2a10.28 10.28 0 0 0-1.93-7.93 6.59 6.59 0 0 0-5.23-2.31m21.18 12.67c0 2.57-2.24 5.17-6.5 5.17a13.16 13.16 0 0 1-5.41-1.18l-.13-.06v-3.68l.35.19a11.59 11.59 0 0 0 5.09 1.37c1.72 0 2.71-.62 2.71-1.69s-.61-1.33-2.1-2l-.59-.25c-.72-.31-1.36-.59-2.4-1.07a4.84 4.84 0 0 1-3.33-4.63c0-1.68 1.29-4.85 6.14-4.85a12.69 12.69 0 0 1 4.76.92l.13.07V108l-.35-.16a9.47 9.47 0 0 0-4.41-1.12c-.55 0-2.39.11-2.39 1.39 0 1 1.16 1.48 2.09 1.9l.18.08c.67.29 1.2.54 1.66.72l.48.21c2.92 1.27 4 2.64 4 5M13.48 98.23h3.71v22.66h-3.6L3.7 105.11v15.78H0V98.23h3.69l9.79 15.9zm92.31 8.89v8.78c0 1.58.74 1.88 2.11 1.88a6.38 6.38 0 0 0 1.69-.24l.31-.1v3.38h-.2a13.08 13.08 0 0 1-3.52.39c-1 0-4.18-.33-4.18-4.54v-9.59h-2.42v-.23-3.15H102v-4.28l3.79-1.33v5.65h4.11v3.38zm-76.19 8.76a5.18 5.18 0 0 1-3.92 2 2.38 2.38 0 0 1-2.68-2.43c0-1.49 1.19-2.35 3.26-2.35h3.34zm-2.92-12.5a13.55 13.55 0 0 0-5.12.91l-.15.06v3.49l.35-.18a13 13 0 0 1 4.36-.82c3.32 0 3.47 1.27 3.48 2.91H26c-4.71 0-6.86 3-6.86 5.7 0 3.81 3 5.8 6.06 5.8a6.23 6.23 0 0 0 4.39-1.69v1.33h3.75V109.3c0-5.34-4.69-5.92-6.7-5.92"/><g class="cls-10"><g class="cls-11"><g class="cls-12"><path class="cls-13" d="M48.13 82.61L54.94 70.78 61.77 82.61 89.02 82.61 89.03 82.61 102.64 59.01 89.02 35.41 89.02 35.41 75.38 35.41 82.2 23.6 68.57 0 68.57 0 41.32 0 27.71 23.59 34.55 35.41 20.88 35.41 7.26 58.99 7.26 58.99 7.25 59.01 20.88 82.61 48.13 82.61 48.13 82.61z"/></g></g></g></g><g class="cls-14"><g class="cls-15"><path class="cls-16" transform="rotate(-60 68.585 47.207)" d="M48.15 23.61H89.00999999999999V70.8H48.15z"/></g></g><g class="cls-17"><g class="cls-18"><path class="cls-19" transform="rotate(-50 48.143 35.386)" d="M25.97 12.15H70.32V58.629999999999995H25.97z"/></g></g><g class="cls-20"><g class="cls-21"><path class="cls-22" transform="rotate(-50 44.724 59.012)" d="M20.08 36.01H69.38V82.00999999999999H20.08z"/></g></g><path class="cls-23" d="M102.64 59.01L89.02 35.41 75.4 59 48.15 59 61.77 82.61 89.02 82.61 89.03 82.61 102.64 59.01z"/><path class="cls-23" d="M34.51 59L34.51 59 48.13 35.41 20.88 35.41 7.26 59 7.26 59 7.25 59.01 20.88 82.61 48.13 82.61 48.13 82.61 34.51 59z"/><path class="cls-23" d="M41.32 0L27.71 23.59 54.95 23.59 68.58 47.19 82.2 23.6 68.57 0 68.57 0 41.32 0z"/><path class="cls-24" d="M89.02 35.41L102.64 59.01 89.03 82.61 75.4 59 89.02 35.41z"/><path class="cls-24" d="M48.13 82.61L48.13 82.61 20.88 82.61 7.25 59.01 7.26 59 34.51 59 48.13 82.61z"/><path class="cls-24" d="M54.96 23.59L68.58 47.19 82.2 23.6 68.57 0 54.96 23.59z"/></g></g></g></svg>