<svg data-name="Layer 1" xmlns="http://www.w3.org/2000/svg" xmlns:xlink="http://www.w3.org/1999/xlink" width="1363.55" height="658.1"><defs><linearGradient id="c" x1="121.95" y1="433.92" x2="919.74" y2="-190.67" gradientTransform="matrix(1 0 0 -1 0 818)" gradientUnits="userSpaceOnUse"><stop offset="0" stop-color="#d1c2d8"/><stop offset="1" stop-color="#77488a"/></linearGradient><linearGradient id="a" x1="14855.81" y1="548.27" x2="15850.6" y2="-478.68" gradientTransform="rotate(180 8104.635 409)" gradientUnits="userSpaceOnUse"><stop offset="0" stop-color="#d1c2d8"/><stop offset=".06" stop-color="#ccbad3"/><stop offset="1" stop-color="#77488a"/></linearGradient><linearGradient id="d" x1="61.74" y1="742.13" x2="125.06" y2="685.38" gradientTransform="matrix(1 0 0 -1 0 818)" xlink:href="#a"/><linearGradient id="e" x1="1227.03" y1="641.74" x2="1391.84" y2="425.81" gradientTransform="matrix(1 0 0 -1 0 818)" xlink:href="#a"/><clipPath id="f"><path fill="none" d="M1172.89 291.1L1295.4 361.83 1296.03 294.04 1173.52 223.31 1172.89 291.1z"/></clipPath><clipPath id="g"><path fill="none" d="M1172.89 110.51L1295.4 181.24 1296.03 113.45 1173.52 42.72 1172.89 110.51z"/></clipPath><linearGradient id="h" x1="424.58" y1="344.47" x2="442.57" y2="344.47" gradientTransform="matrix(1 0 0 -1 0 818)" xlink:href="#a"/><linearGradient id="i" x1="423.11" y1="346.64" x2="442.37" y2="346.64" gradientTransform="matrix(1 0 0 -1 0 818)" xlink:href="#a"/><clipPath id="j"><path fill="none" d="M1087.66 489.5L1312.77 619.47 1312.77 702.97 1087.32 573.14 1087.66 489.5z"/></clipPath><linearGradient id="k" x1="1130.34" y1="270.5" x2="1168.4" y2="270.5" gradientTransform="matrix(1 0 0 -1 0 818)" xlink:href="#a"/><linearGradient id="l" x1="1172.98" y1="246.34" x2="1211.05" y2="246.34" gradientTransform="matrix(1 0 0 -1 0 818)" xlink:href="#a"/><linearGradient id="m" x1="1216.82" y1="221.96" x2="1254.88" y2="221.96" gradientTransform="matrix(1 0 0 -1 0 818)" xlink:href="#a"/><linearGradient id="n" x1="1259.47" y1="197.79" x2="1297.53" y2="197.79" gradientTransform="matrix(1 0 0 -1 0 818)" xlink:href="#a"/><linearGradient id="o" x1="1281.15" y1="185.25" x2="1319.22" y2="185.25" gradientTransform="matrix(1 0 0 -1 0 818)" xlink:href="#a"/><clipPath id="p"><path fill="none" d="M1088.14 391.53L1313 521.36 1312.77 609.43 1087.32 479.61 1088.14 391.53z"/></clipPath><linearGradient id="q" x1="1130.34" y1="364.04" x2="1168.4" y2="364.04" gradientTransform="matrix(1 0 0 -1 0 818)" xlink:href="#a"/><linearGradient id="r" x1="1172.98" y1="339.88" x2="1211.05" y2="339.88" gradientTransform="matrix(1 0 0 -1 0 818)" xlink:href="#a"/><linearGradient id="s" x1="1216.82" y1="315.49" x2="1254.88" y2="315.49" gradientTransform="matrix(1 0 0 -1 0 818)" xlink:href="#a"/><linearGradient id="t" x1="1259.47" y1="291.33" x2="1297.53" y2="291.33" gradientTransform="matrix(1 0 0 -1 0 818)" xlink:href="#a"/><linearGradient id="u" x1="1281.15" y1="278.79" x2="1319.22" y2="278.79" gradientTransform="matrix(1 0 0 -1 0 818)" xlink:href="#a"/><linearGradient id="b" x1="186.44" y1="293.56" x2="293.61" y2="135.69" gradientTransform="matrix(1 0 0 -1 0 818)" gradientUnits="userSpaceOnUse"><stop offset=".4" stop-color="#d1c2d8"/><stop offset="1" stop-color="#77488a"/></linearGradient><linearGradient id="v" x1="169.1" y1="283.44" x2="276.28" y2="125.57" xlink:href="#b"/><linearGradient id="w" x1="151.77" y1="273.32" x2="258.94" y2="115.45" xlink:href="#b"/><linearGradient id="x" x1="134.42" y1="263.21" x2="241.6" y2="105.33" xlink:href="#b"/><linearGradient id="y" x1="117.09" y1="253.09" x2="224.27" y2="95.21" xlink:href="#b"/><linearGradient id="z" x1="99.76" y1="242.97" x2="206.93" y2="85.09" xlink:href="#b"/><linearGradient id="A" x1="82.42" y1="232.85" x2="189.6" y2="74.98" xlink:href="#b"/><linearGradient id="B" x1="65.09" y1="222.73" x2="172.26" y2="64.86" xlink:href="#b"/><linearGradient id="C" x1="47.75" y1="212.61" x2="154.92" y2="54.74" xlink:href="#b"/></defs><g data-name="NatWest-longform 1-sustainability-desktop"><g data-name="5-Office toggle"><g data-name="office illo"><g data-name="new office"><path fill="#f6f3f7" d="M-1.27 1.06H1365.28V768.92H-1.27z"/><path fill="#fff" d="M1117.45 630.5L246.41 630.5 -1.41 769.68 1365.27 769.68 1117.45 630.5z"/><path fill="url(#c)" d="M247.55 1.01L247.55 630.5 -0.41 769.68 -0.41 0 247.55 1.01z"/><path fill="url(#a)" d="M1117.45 1.08L1117.45 630.5 1365.41 769.68 1365.41 0.07 1117.45 1.08z"/><path fill="#516cb3" d="M883.12 647.93L892.3 653.16 892.3 425.36 883.12 420.13 883.12 647.93z"/><path fill="#00b0bc" d="M892.31 425.37H901.4899999999999V653.16H892.31z"/><path fill="#516cb3" d="M481.07 647.93L471.89 653.16 471.89 425.36 481.07 420.13 481.07 647.93z"/><path fill="#00b0bc" d="M462.71 425.36H471.89V653.15H462.71z"/><path fill="#00adb9" d="M205.2 129.47L205.81 378.92 -71.39 538.96 -72 289.52 205.2 129.47z"/><path fill="#fff" d="M-65.58 293.21L198.82 140.55 199.39 375.23 -65.01 527.88 -65.58 293.21z"/><path fill="#516cb3" d="M198.82 140.55L189.64 145.85 190.18 369.79 -65.04 517.15 -65.01 527.88 199.39 375.23 198.82 140.55z"/><path fill="#33c0c9" d="M199.39 375.23L190.18 369.79 -65.04 517.15 -65.01 527.88 199.39 375.23z"/><path fill="#00b0bc" d="M221.72 395.63L221.72 388.25 -64.68 553.58 -64.68 560.95 221.72 395.63z"/><path fill="#33c0c9" d="M221.72 388.25L205.82 378.85 -71.39 538.87 -64.68 553.58 221.72 388.25z"/><path fill="#516cb3" d="M63.11 218.89L53.93 224.19 54.47 448.19 63.68 453.63 63.11 218.89z"/><path fill="#00b0bc" d="M63.68 460.96L70.67 456.92 70.3 213.08 63.11 217.75 63.68 460.96z"/><path d="M121.61 52.63l1.76-2.13-9.11-5.11c-7.74-4.53-18.46-3.91-30.3 2.93-23.48 13.55-42.45 46.41-42.37 73.39 0 13.36 4.74 22.77 12.33 27.22l.15.08.16.09 9.07 5.09 2.3-2.37c5.64-.09 12-2 18.63-5.82 23.48-13.55 42.45-46.41 42.38-73.39-.02-8.24-1.83-14.98-5-19.98z" fill="url(#d)"/><path d="M70.24 86.63l51.63-33.58c-.09-.14-.17-.29-.26-.42l1.76-2.13-9.11-5.11c-7.74-4.53-18.46-3.91-30.3 2.93-11.1 6.4-21.18 17.12-28.73 29.5z" fill="#fff"/><ellipse cx="92.95" cy="102.12" rx="59.93" ry="34.71" transform="rotate(-59.84 92.947 102.124)" fill="#f6f3f7"/><path fill="none" stroke="#6f2c91" stroke-miterlimit="10" d="M92.95 60.25L92.95 102.13 118.22 105.32"/><path fill="none" stroke="#6f2c91" stroke-miterlimit="10" d="M85.75 73.53L92.95 60.25 98.35 66.16"/><path fill="none" stroke="#6f2c91" stroke-miterlimit="10" d="M112.4 97.86L118.22 105.32 109.01 110.84"/><path fill="#33c0c9" d="M892.34 420.13L682 420.13 471.66 420.13 329.22 502.36 682 502.36 1034.77 502.36 892.34 420.13z"/><path fill="#516cb3" d="M347.58 724.92L338.4 730.15 338.4 502.36 347.58 502.36 347.58 724.92z"/><path fill="#00b0bc" d="M329.22 502.36H338.40000000000003V730.15H329.22z"/><path fill="#516cb3" d="M1016.41 724.92L1025.59 730.15 1025.59 502.36 1016.41 502.36 1016.41 724.92z"/><path fill="#00b0bc" d="M1025.6 502.36H1034.78V730.15H1025.6z"/><path fill="#00b0bc" d="M329.22 502.36H1034.77V511.54H329.22z"/><g><path fill="#00b0bc" d="M484.42 334.03H644.23V434.84H484.42z"/><path fill="#516cb3" d="M484.42 343.97H644.23V418.84000000000003H484.42z"/><circle cx="564.33" cy="339.25" r="1.2"/><circle cx="564.33" cy="426.4" r="4.12" fill="#516cb3"/><path d="M570.39 440.19v-5.34h-12.12v5.34a12 12 0 0 1-7.68 11.25h27.47a12.06 12.06 0 0 1-7.67-11.25z" fill="#00b0bc"/><path fill="none" stroke="#00b0bc" stroke-miterlimit="10" d="M538.42 451.44L590.23 451.44"/></g><path fill="#fff" d="M611.26 457.72L564.33 457.72 517.39 457.72 494.42 471.11 564.33 471.11 634.23 471.11 611.26 457.72z"/><g><path fill="#fff" d="M770.21 426.4L721.4 426.4 674.46 426.4 651.49 439.79 721.4 439.79 793.18 439.79 770.21 426.4z"/><path fill="#f6f3f7" d="M793.18 439.79L651.49 439.79 651.49 443.14 721.4 443.14 793.18 443.14 793.18 439.79z"/><path fill="#00b0bc" d="M674.46 369.68H770.21V426.4H674.46z"/><path fill="#fff" d="M674.46 374H770.21V422.08H674.46z"/></g><g><path fill="#fff" d="M932.76 486.89L890.31 487.48 889.14 462.89 932.76 486.89z"/><path d="M891.55 482.36a5.83 5.83 0 0 0 8.42 2.36 5.83 5.83 0 0 0-8.42-2.36z" fill="#33c0c9"/><path d="M898.73 479.22a3.75 3.75 0 1 0 1.84 2.46 4.71 4.71 0 0 0-1.84-2.46z" fill="#33c0c9"/></g><g><path d="M914.12 464.7h-18.23v9c0 1.35.9 2.7 2.69 3.73a14.22 14.22 0 0 0 12.89 0c1.77-1 2.66-2.38 2.65-3.73z" fill="#516cb3"/><path d="M915.78 455.47h-21.55v10.64c0 1.6 1.07 3.2 3.18 4.42a16.84 16.84 0 0 0 15.24 0c2.1-1.22 3.14-2.82 3.13-4.42z" fill="#516cb3"/><circle cx="917.36" cy="462.04" r="4.69" fill="none" stroke="#516cb3" stroke-miterlimit="10" stroke-width="0.8858045339584351px"/><path d="M912.6 451.05c4.22 2.44 4.24 6.39 0 8.83a16.78 16.78 0 0 1-15.24 0c-4.22-2.44-4.25-6.39 0-8.83a16.81 16.81 0 0 1 15.24 0z" fill="#516cb3"/><path d="M912.6 454.82c-4.23-2.43-11.05-2.44-15.24 0a6.73 6.73 0 0 0-2.62 2.51 6.82 6.82 0 0 0 2.67 2.55 16.78 16.78 0 0 0 15.24 0 6.73 6.73 0 0 0 2.62-2.51 6.89 6.89 0 0 0-2.67-2.55z" fill="#fff"/><g fill="none" stroke="#fff" stroke-miterlimit="10" stroke-width="1.0374045372009277px"><path d="M903.55 451.22L903.55 418.27"/><path d="M906.46 451.22L906.46 437.89"/></g></g><g><path d="M864.17 430.12c6.74 3.89 6.78 10.2.08 14.1s-17.59 3.89-24.33 0-6.78-10.21-.08-14.1 17.59-3.89 24.33 0z" fill="#fff"/><path d="M852.05 424.2c-10.67 0-17.21 8.05-17.21 13h34.41c0-4.95-6.53-13-17.2-13z" fill="#fff"/><path fill="none" stroke="#42145f" stroke-miterlimit="10" d="M852.05 427.2L852.05 415.91 874.84 376.39 844.3 331.84"/><circle cx="842.44" cy="328.93" r="6" fill="#33c0c9"/><path transform="rotate(-45.37 838.196 333.14)" fill="#33c0c9" d="M832.19 327.13H844.2V339.14H832.19z"/><path d="M813.68 336s3.77-2.9 16.09-2.8l8.54 8.44s.08 10.27-3.37 15.59z" fill="#33c0c9"/><ellipse cx="824.09" cy="346.92" rx="5.57" ry="15.08" transform="rotate(-43.66 824.099 346.919)" fill="#00b0bc"/></g><g><path d="M856.61 539.26h13.62a8.6 8.6 0 0 1 8.61 8.61v.13h-22.23v-8.74zm-153 8.74h-22.23v-.13a8.6 8.6 0 0 1 8.61-8.61h13.62V548z" fill="#490b63"/><path fill="#490b63" d="M767.04 582.46H793.18V603.95H767.04z"/><path fill="none" stroke="#490b63" stroke-miterlimit="10" stroke-width="11px" d="M780.11 610.81L780.11 744.4"/><path d="M711.1 602.1h138a17.16 17.16 0 0 1 17.16 17.16v.25H693.93v-.25a17.16 17.16 0 0 1 17.16-17.16zm147.24-16.92H701.88V478.93A60.81 60.81 0 0 1 734 425.19c11.46-6.09 26.55-10.59 46.12-10.59 20.2 0 35.62 4.79 47.22 11.18a60.58 60.58 0 0 1 31 53.14z" fill="#516cb3"/></g><g><path fill="url(#e)" d="M1311.13 104.56L1310.47 367.44 1300.95 373.27 1175.16 290.19 1166.31 32.27 1175.83 26.44 1311.13 104.56z"/><path fill="#f6f3f7" d="M1301.61 110.38L1300.95 373.27 1165.64 295.15 1166.31 32.27 1301.61 110.38z"/><path fill="#516cb3" d="M1171.23 291.93L1171.86 41.91 1296.03 113.6 1295.39 363.62 1171.23 291.93z"/><path fill="#00b0bc" d="M1172.89 291.1L1295.4 361.83 1296.03 113.6 1173.52 42.87 1172.89 291.1z"/><path d="M1173.52 42.87l-.28 112s18.54 26.78 34.59 23.62c17.45-3.44 19.69-68.72 22.24-103z" fill="#33c0c9"/><path d="M1253 173.07c14.61 40.3 1.51 81.61-51.39 62-12-4.45-21.29-3.73-28.57 0l-.15 56 122.51 70.73.6-248.2-15.88-9.17c-34.96-20.35-41.73 28.34-27.12 68.64z" fill="#516cb3"/><g clip-path="url(#f)" fill="none" stroke="#042541" stroke-miterlimit="10" stroke-width="1.1196366548538208px"><path d="M1273.4 361.83L1273.4 269.66"/><path d="M1280.1 365.71L1280.1 273.54"/><path d="M1286.8 369.59L1286.8 277.42"/></g><g clip-path="url(#g)" fill="none" stroke="#042541" stroke-miterlimit="10" stroke-width="1.1196366548538208px"><path d="M1184.73 134.88L1184.73 42.72"/><path d="M1191.43 138.76L1191.43 46.6"/></g><path d="M1216.27 203l-43.09-24.88v20.42l43.08 24.87c4.9 2.83 8.89.55 8.91-5.08s-4-12.53-8.9-15.33z" fill="#042541"/><path fill="#fff" d="M1311.13 104.56L1301.61 110.38 1166.31 32.27 1175.83 26.44 1311.13 104.56z"/></g><g><path d="M485 464.71v-1.92l-4-.77-26.86-15.51a2.76 2.76 0 0 0-2.53 0l-11.28 6.55-2-.4v2a.9.9 0 0 0 .53.74l30.29 17.49a2.82 2.82 0 0 0 2.53 0l12.78-7.43a.87.87 0 0 0 .54-.75z" fill="#00b0bc"/><path d="M470.41 455.9v17.29a2.46 2.46 0 0 0 1.25-.3l12.78-7.43a.86.86 0 0 0 .51-.75v-1.92l-4-.77z" fill="#516cb3"/><path d="M484.43 462a.77.77 0 0 1 .47 1 .76.76 0 0 1-.47.47l-12.78 7.42a2.76 2.76 0 0 1-2.53 0l-30.29-17.49a.77.77 0 0 1-.47-1 .76.76 0 0 1 .47-.47l12.78-7.42a2.76 2.76 0 0 1 2.53 0z" fill="#33c0c9"/><path fill="#fff" d="M480.4 460.86L467.08 468.6 441.77 453.98 455.1 446.24 480.4 460.86z"/><ellipse cx="475.47" cy="465.93" rx="1.02" ry="1.76" transform="rotate(-89.84 475.47 465.934)" fill="none" stroke="#fff" stroke-miterlimit="10" stroke-width="0.19663801789283752px"/><path d="M446.86 448.52a.21.21 0 0 1 .12.27.2.2 0 0 1-.12.12.74.74 0 0 1-.68 0 .21.21 0 0 1-.12-.27.2.2 0 0 1 .12-.12.74.74 0 0 1 .68 0z" fill="#6f2c91"/></g><g><path d="M439.7 466.56a3.38 3.38 0 0 0 1.56 2.93c1.68 1 4 .24 5.21-1.75" fill="none" stroke="#516cb3" stroke-miterlimit="10" stroke-width="0.7041364908218384px"/><path d="M442.56 468.89l-.11-.79h-.2a3.12 3.12 0 0 0-1.4-1 7.66 7.66 0 0 0-6.86 1 2.88 2.88 0 0 0-1.07 1.43h-.16l.1.72a2.09 2.09 0 0 0 1 1.4l-9.26 7.74.11.77.49.2 10.26-8.06a7.79 7.79 0 0 0 6-1.23 2.43 2.43 0 0 0 1.13-2.14zm-3.29-1.07a.86.86 0 0 1 .79-.11c.24.1.27.3.07.46a.88.88 0 0 1-.8.11c-.24-.09-.27-.28-.06-.46z" fill="url(#h)"/><path d="M439.22 472.13l-.21-1.47-3.67.86.1.77a8.06 8.06 0 0 0 3.78-.16z" fill="#f6f3f7"/><path d="M434 469.29l-1.1.16h-.16l.1.72a2.12 2.12 0 0 0 .89 1.33l.6-.09z" fill="#516cb3"/><path d="M440.74 466.32c2.06.83 2.31 2.61.58 4a7.75 7.75 0 0 1-6 1.23l-10.26 8.06-.5-.2-.12-1.22 9.27-7.29c-1.36-.91-1.35-2.4.15-3.58a7.63 7.63 0 0 1 6.88-1zm-1.52 1.19a.88.88 0 0 0 .8-.11c.2-.16.17-.36-.07-.46a.86.86 0 0 0-.79.11c-.2.16-.17.37.06.46" fill="#fff"/><path fill="#f6f3f7" d="M425.08 479.58L425.18 480.35 424.69 480.15 424.58 479.38 425.08 479.58z"/><g><path d="M442.37 468.29v-.8h-.2a3 3 0 0 0-1.25-1.2 7.61 7.61 0 0 0-6.92 0 2.92 2.92 0 0 0-1.26 1.27h-.16v.74a2 2 0 0 0 .78 1.52l-10.25 6.37v.81l.46.27 11.28-6.56a7.76 7.76 0 0 0 6.1-.38 2.49 2.49 0 0 0 1.42-2zm-3.11-1.51a.87.87 0 0 1 .8 0c.22.13.22.34 0 .46a.87.87 0 0 1-.8 0c-.26-.12-.26-.33 0-.46z" fill="url(#i)"/><path d="M438.61 471v-1.48l-3.76.33v.78a8 8 0 0 0 3.76.37zm-4.73-3.49h-1.28v.74a2 2 0 0 0 .69 1.43h.61z" fill="#f6f3f7"/><path d="M440.92 465.5c1.93 1.11 1.93 2.9 0 4a7.71 7.71 0 0 1-6.1.38l-11.28 6.56-.46-.27V475l10.28-6c-1.22-1.1-1-2.57.64-3.53a7.61 7.61 0 0 1 6.92.03zm-1.66 1a.87.87 0 0 0 .8 0 .25.25 0 0 0 .15-.32.28.28 0 0 0-.15-.15.87.87 0 0 0-.8 0 .25.25 0 0 0-.15.32.28.28 0 0 0 .15.15" fill="#fff"/><path fill="#f6f3f7" d="M423.57 476.45L423.57 477.23 423.11 476.96 423.11 476.18 423.57 476.45z"/></g><path d="M446.47 467.74c1.2-2 .81-4.41-.87-5.42s-4-.24-5.21 1.75a4.65 4.65 0 0 0-.69 2.49" fill="none" stroke="#516cb3" stroke-miterlimit="10" stroke-width="0.7041364908218384px"/></g><g><path d="M836.85 432.34a59.19 59.19 0 0 0-9.52-6.56 85.35 85.35 0 0 0-13.09-5.78v152.18h22.61z" fill="#fff"/><path fill="none" stroke="#fff" stroke-miterlimit="10" d="M815.65 570.74L815.65 576.48"/><path fill="none" stroke="#fff" stroke-miterlimit="10" d="M817.63 570.74L817.63 576.48"/><path fill="none" stroke="#fff" stroke-miterlimit="10" d="M819.61 570.74L819.61 576.48"/><path fill="none" stroke="#fff" stroke-miterlimit="10" d="M821.59 570.74L821.59 576.48"/><path fill="none" stroke="#fff" stroke-miterlimit="10" d="M823.57 570.74L823.57 576.48"/><path fill="none" stroke="#fff" stroke-miterlimit="10" d="M825.55 570.74L825.55 576.48"/><path fill="none" stroke="#fff" stroke-miterlimit="10" d="M827.52 570.74L827.52 576.48"/><path fill="none" stroke="#fff" stroke-miterlimit="10" d="M829.5 570.74L829.5 576.48"/><path fill="none" stroke="#fff" stroke-miterlimit="10" d="M831.48 570.74L831.48 576.48"/><path fill="none" stroke="#fff" stroke-miterlimit="10" d="M833.46 570.74L833.46 576.48"/><path fill="none" stroke="#fff" stroke-miterlimit="10" d="M835.44 570.74L835.44 576.48"/></g><g><path d="M719 487.71a40.17 40.17 0 0 0 9.83 3.67 20.53 20.53 0 0 0 9.71-.89l-13.21-7.07zm-12.24-25.93a65.51 65.51 0 0 0 .73 10.47l2.65-.67-.75-18.58z" fill="#6f2c91"/><path d="M778.24 476.79a44.84 44.84 0 0 0 9.47-13.12l-1.42-1.9.39-3.7a63.34 63.34 0 0 0 3.25-6.68l-1.2-1.62c1.89-2.63 3.13-7.36 3.13-7.36l-.14-1.57-4.54-1.24v-.93l2.91-4.1-1.19-4.91-2.9 2.16-.69-2.83-2-.18-.52-.7-.52-.69.39-2-2.56-1.42 2.89-2.16-4.36-2.54-4.76 1.62-.87-.31.09-4.71-1.46-.58a27.67 27.67 0 0 0-8 .91l-1.21-1.61a65.14 65.14 0 0 0-7.33 1.22l-3.66-.68-1.42-1.9a44.8 44.8 0 0 0-15.26 5.34c-6.6 3.75-27 18.66-28 43.2l2.4-7.26V466l-1.69 6.32a54.67 54.67 0 0 0 1.24 5.39l1 1.33s1.36-.14 2.69 1.64.81 3.05.81 3.05l1 1.32a53.23 53.23 0 0 0 4.82 2.73l6.54.17 10.93 3.26-7.64.24c23.82 5.92 43.93-9.4 49.39-14.66z" fill="#42145f"/><path d="M778.24 476.79a44.84 44.84 0 0 0 9.47-13.12l-1.42-1.9.39-3.7a63.34 63.34 0 0 0 3.25-6.68l-1.2-1.62c1.89-2.63 3.13-7.36 3.13-7.36l-.14-1.57-4.54-1.24v-.93l2.91-4.1-1.19-4.91-2.9 2.16-.69-2.83-2-.18-.52-.7-.52-.69.39-2-2.56-1.42 2.89-2.16-4.36-2.54-4.76 1.62-.87-.31.09-4.71-1.46-.58a27.67 27.67 0 0 0-8 .91l-1.21-1.61a65.14 65.14 0 0 0-7.33 1.22l-3.66-.68-1.42-1.9a44.8 44.8 0 0 0-15.26 5.34c-6.6 3.75-27 18.66-28 43.2l2.4-7.26V466l-1.69 6.32a54.67 54.67 0 0 0 1.24 5.39l1 1.33s1.36-.14 2.69 1.64.81 3.05.81 3.05l1 1.32a53.23 53.23 0 0 0 4.82 2.73l6.54.17 10.93 3.26-7.64.24c23.82 5.92 43.93-9.4 49.39-14.66zM715.86 450c.43-5.3 10.41-13.78 10.41-13.78l-2.34 6.64c-2.34 6.64-8.49 12.43-8.49 12.43zm20.31-12.59s-1.86-3.07 2.48-6.91 17.54-8.5 17.54-8.5l-3.74 5.85s-8 4.36-16.28 9.6zm40.72-.66l2.05 2.75-10.76 11.5.27-7.93zm-6.19-8.29l2.06 2.76-8.43 6.3-7.68-2zM722 460.21s4.51-5.43 14.76-13.08l6.81-5.08a7.65 7.65 0 0 1 4.53-1.53c2.7 0 6.68.37 8.49 2.8.02 0-24.74 17.27-34.59 16.89zm0 13.22a12.08 12.08 0 0 1-1.71-4.19c8.44-6.29 14.37-5.26 14.37-5.26s-.7 6-9.13 12.28a12.08 12.08 0 0 1-3.53-2.83zm29.41-6.66c-10.25 7.65-16.74 10.43-16.74 10.43 2.43-9.54 26-28.36 26-28.36 1.81 2.43 1.07 6.36.28 8.93a7.76 7.76 0 0 1-2.76 3.92zM781 455.31s-8.25 11.31-13.17 14.38-7.33.41-7.33.41c7.37-6.45 13.82-12.87 13.82-12.87zM742.7 486l-5.2-1.1s7.31-4.25 14.34-4.61l7-.35S747.9 487.1 742.7 486z" fill="#00b0bc"/><path fill="#33c0c9" d="M750.06 413.24L744.58 418.81 755.14 415.82 751.48 415.14 750.06 413.24z"/><path d="M723.59 430.7a78.5 78.5 0 0 0 6.83-4.75c5.81-4.26 6.11-8.27 6.11-8.3-.58.29-1.15.6-1.73.93a57.89 57.89 0 0 0-8.71 6.29zm38.52-5.95l2.87 6.63L780.1 424l2.89-2.16-4.36-2.54-4.76 1.62-.87-.31.09-4.71a34.47 34.47 0 0 0-7.63 2.7z" fill="#33c0c9"/><path fill="#33c0c9" d="M787.71 463.67L780.81 467.34 786.68 458.07 786.29 461.77 787.71 463.67z"/><path d="M763.44 484.08a83 83 0 0 1 6.5-5.19c5.73-4.36 9.66-3.5 9.69-3.5-.45.47-.91.94-1.39 1.4a57.47 57.47 0 0 1-8.5 6.56zm16.65-35.23l-5.53-4.64L786 431.82l2.9-2.16 1.19 4.91-2.91 4.1v.93l4.54 1.24a34.31 34.31 0 0 1-4.75 6.55z" fill="#33c0c9"/></g><g><path fill="#516cb3" d="M1398.67 472.27L1397.79 773.73 1320.68 817.9 1321.56 516.43 1398.67 472.27z"/><path fill="#00b0bc" d="M1321.56 516.43L1320.68 817.9 1078.77 678.23 1079.64 376.76 1321.56 516.43z"/><path fill="#516cb3" d="M1087.32 673.3L1088.14 391.53 1313 521.36 1312.18 803.13 1087.32 673.3z"/><path fill="#42145f" d="M1164.36 629.32L1312.43 714.81 1313 521.36 1164.94 435.87 1164.36 629.32z"/><path fill="#33c0c9" d="M1079.64 376.76L1156.76 332.6 1398.67 472.27 1321.56 516.43 1079.64 376.76z"/><path fill="#33c0c9" d="M1087.32 573.14L1164.36 529.16 1312.77 614.84 1312.43 702.97 1087.32 573.14z"/><path fill="#00b0bc" d="M1087.32 573.14L1087.32 583 1312.43 712.97 1312.43 702.97 1087.32 573.14z"/><g><path fill="#33c0c9" d="M1087.32 479.43L1164.36 435.44 1313 521.36 1312.74 609.43 1087.32 479.43z"/><path fill="#00b0bc" d="M1087.66 479.64L1087.66 489.5 1312.77 619.47 1312.77 609.46 1087.66 479.64z"/></g><path fill="#33c0c9" d="M1087.32 583L1312.43 712.97 1312.43 803.13 1087.32 673.3 1087.32 583z"/><path fill="none" stroke="#00b0bc" stroke-miterlimit="10" stroke-width="5px" d="M1200.16 643.06L1200.16 745.49"/><g clip-path="url(#j)"><path fill="#33c0c9" d="M1131.42 477.79L1146.96 486.77 1108.89 508.78 1093.35 499.81 1131.42 477.79z"/><path fill="#00b0bc" d="M1093.35 499.8L1093.35 574.04 1108.89 583 1108.89 508.78 1093.35 499.8z"/><path fill="#516cb3" d="M1146.96 486.76L1146.96 561 1108.89 583 1108.89 508.78 1146.96 486.76z"/><path fill="#fff" d="M1152.86 490.41L1168.4 499.39 1130.34 521.39 1114.79 512.42 1152.86 490.41z"/><path fill="#f6f3f7" d="M1114.79 512.42L1114.79 586.66 1130.34 595.62 1130.34 521.39 1114.79 512.42z"/><path fill="url(#k)" d="M1168.4 499.38L1168.4 573.62 1130.34 595.62 1130.34 521.39 1168.4 499.38z"/><g><path fill="#33c0c9" d="M1174.07 501.95L1189.61 510.93 1151.54 532.94 1136 523.97 1174.07 501.95z"/><path fill="#00b0bc" d="M1136 523.96L1136 598.2 1151.54 607.16 1151.54 532.94 1136 523.96z"/><path fill="#516cb3" d="M1189.61 510.92L1189.61 585.16 1151.54 607.16 1151.54 532.94 1189.61 510.92z"/></g><g><path fill="#fff" d="M1195.51 514.57L1211.05 523.55 1172.98 545.55 1157.44 536.58 1195.51 514.57z"/><path fill="#f6f3f7" d="M1157.44 536.58L1157.44 610.82 1172.98 619.78 1172.98 545.55 1157.44 536.58z"/><path fill="url(#l)" d="M1211.05 523.54L1211.05 597.78 1172.98 619.78 1172.98 545.55 1211.05 523.54z"/></g><g><path fill="#33c0c9" d="M1217.9 526.33L1233.44 535.32 1195.38 557.32 1179.83 548.35 1217.9 526.33z"/><path fill="#00b0bc" d="M1179.83 548.35L1179.83 622.59 1195.38 631.55 1195.38 557.32 1179.83 548.35z"/><path fill="#516cb3" d="M1233.44 535.31L1233.44 609.54 1195.38 631.55 1195.38 557.32 1233.44 535.31z"/><path fill="#fff" d="M1239.34 538.95L1254.88 547.93 1216.82 569.94 1201.27 560.97 1239.34 538.95z"/><path fill="#f6f3f7" d="M1201.27 560.96L1201.27 635.2 1216.82 644.17 1216.82 569.94 1201.27 560.96z"/><path fill="url(#m)" d="M1254.88 547.92L1254.88 622.16 1216.82 644.17 1216.82 569.94 1254.88 547.92z"/><g><path fill="#33c0c9" d="M1260.55 550.49L1276.09 559.48 1238.03 581.48 1222.48 572.51 1260.55 550.49z"/><path fill="#00b0bc" d="M1222.48 572.51L1222.48 646.75 1238.03 655.71 1238.03 581.48 1222.48 572.51z"/><path fill="#516cb3" d="M1276.09 559.47L1276.09 633.71 1238.03 655.71 1238.03 581.48 1276.09 559.47z"/></g><g><path fill="#fff" d="M1281.99 563.11L1297.53 572.09 1259.47 594.1 1243.92 585.13 1281.99 563.11z"/><path fill="#f6f3f7" d="M1243.92 585.12L1243.92 659.36 1259.47 668.33 1259.47 594.1 1243.92 585.12z"/><path fill="url(#n)" d="M1297.53 572.08L1297.53 646.32 1259.47 668.33 1259.47 594.1 1297.53 572.08z"/></g><g><path fill="#fff" d="M1303.68 575.65L1319.22 584.64 1281.15 606.64 1265.61 597.67 1303.68 575.65z"/><path fill="#f6f3f7" d="M1265.61 597.67L1265.61 671.91 1281.15 680.87 1281.15 606.64 1265.61 597.67z"/><path fill="url(#o)" d="M1319.22 584.63L1319.22 658.87 1281.15 680.87 1281.15 606.64 1319.22 584.63z"/></g></g></g><g clip-path="url(#p)"><path fill="#33c0c9" d="M1131.42 384.25L1146.96 393.23 1108.89 415.24 1093.35 406.27 1131.42 384.25z"/><path fill="#00b0bc" d="M1093.35 406.27L1093.35 480.5 1108.89 489.47 1108.89 415.24 1093.35 406.27z"/><path fill="#516cb3" d="M1146.96 393.22L1146.96 467.46 1108.89 489.47 1108.89 415.24 1146.96 393.22z"/><path fill="#fff" d="M1152.86 396.87L1168.4 405.85 1130.34 427.86 1114.79 418.88 1152.86 396.87z"/><path fill="#f6f3f7" d="M1114.79 418.88L1114.79 493.12 1130.34 502.08 1130.34 427.86 1114.79 418.88z"/><path fill="url(#q)" d="M1168.4 405.84L1168.4 480.08 1130.34 502.08 1130.34 427.86 1168.4 405.84z"/><g><path fill="#33c0c9" d="M1174.07 408.41L1189.61 417.39 1151.54 439.4 1136 430.43 1174.07 408.41z"/><path fill="#00b0bc" d="M1136 430.43L1136 504.66 1151.54 513.63 1151.54 439.4 1136 430.43z"/><path fill="#516cb3" d="M1189.61 417.38L1189.61 491.62 1151.54 513.63 1151.54 439.4 1189.61 417.38z"/></g><g><path fill="#fff" d="M1195.51 421.03L1211.05 430.01 1172.98 452.01 1157.44 443.04 1195.51 421.03z"/><path fill="#f6f3f7" d="M1157.44 443.04L1157.44 517.28 1172.98 526.24 1172.98 452.01 1157.44 443.04z"/><path fill="url(#r)" d="M1211.05 430L1211.05 504.24 1172.98 526.24 1172.98 452.01 1211.05 430z"/></g><g><path fill="#33c0c9" d="M1217.9 432.8L1233.44 441.78 1195.38 463.78 1179.83 454.81 1217.9 432.8z"/><path fill="#00b0bc" d="M1179.83 454.81L1179.83 529.05 1195.38 538.01 1195.38 463.78 1179.83 454.81z"/><path fill="#516cb3" d="M1233.44 441.77L1233.44 516.01 1195.38 538.01 1195.38 463.78 1233.44 441.77z"/><path fill="#fff" d="M1239.34 445.41L1254.88 454.39 1216.82 476.4 1201.27 467.43 1239.34 445.41z"/><path fill="#f6f3f7" d="M1201.27 467.43L1201.27 541.66 1216.82 550.63 1216.82 476.4 1201.27 467.43z"/><path fill="url(#s)" d="M1254.88 454.38L1254.88 528.62 1216.82 550.63 1216.82 476.4 1254.88 454.38z"/><g><path fill="#33c0c9" d="M1260.55 456.96L1276.09 465.94 1238.03 487.94 1222.48 478.97 1260.55 456.96z"/><path fill="#00b0bc" d="M1222.48 478.97L1222.48 553.21 1238.03 562.17 1238.03 487.94 1222.48 478.97z"/><path fill="#516cb3" d="M1276.09 465.93L1276.09 540.17 1238.03 562.17 1238.03 487.94 1276.09 465.93z"/></g><g><path fill="#fff" d="M1281.99 469.57L1297.53 478.56 1259.47 500.56 1243.92 491.59 1281.99 469.57z"/><path fill="#f6f3f7" d="M1243.92 491.59L1243.92 565.82 1259.47 574.79 1259.47 500.56 1243.92 491.59z"/><path fill="url(#t)" d="M1297.53 478.55L1297.53 552.78 1259.47 574.79 1259.47 500.56 1297.53 478.55z"/></g><g><path fill="#fff" d="M1303.68 482.12L1319.22 491.1 1281.15 513.1 1265.61 504.13 1303.68 482.12z"/><path fill="#f6f3f7" d="M1265.61 504.13L1265.61 578.37 1281.15 587.33 1281.15 513.1 1265.61 504.13z"/><path fill="url(#u)" d="M1319.22 491.09L1319.22 565.33 1281.15 587.33 1281.15 513.1 1319.22 491.09z"/></g><g><path fill="#33c0c9" d="M1325.31 494.19L1340.85 503.18 1302.79 525.18 1287.24 516.21 1325.31 494.19z"/><path fill="#00b0bc" d="M1287.24 516.21L1287.24 590.45 1302.79 599.41 1302.79 525.18 1287.24 516.21z"/><path fill="#516cb3" d="M1340.85 503.17L1340.85 577.4 1302.79 599.41 1302.79 525.18 1340.85 503.17z"/></g></g></g></g><g><path fill="#f6f3f7" d="M223.05 494.99L222.53 677.68 188.38 657.96 188.89 475.27 223.05 494.99z"/><path fill="url(#b)" d="M231.22 490.33L230.7 673.02 222.53 677.68 223.05 494.99 231.22 490.33z"/><path fill="#fff" d="M188.89 475.27L197.07 470.61 231.22 490.33 223.05 494.99 188.89 475.27z"/><path fill="#f6f3f7" d="M205.71 505.11L205.19 687.8 171.04 668.08 171.56 485.39 205.71 505.11z"/><path fill="url(#v)" d="M213.89 500.45L213.37 683.14 205.19 687.8 205.71 505.11 213.89 500.45z"/><path fill="#fff" d="M171.56 485.39L179.73 480.73 213.89 500.45 205.71 505.11 171.56 485.39z"/><path fill="#f6f3f7" d="M188.38 515.23L187.86 697.92 153.71 678.2 154.22 495.51 188.38 515.23z"/><path fill="url(#w)" d="M196.55 510.57L196.03 693.26 187.86 697.92 188.38 515.23 196.55 510.57z"/><path fill="#fff" d="M154.22 495.51L162.4 490.85 196.55 510.57 188.38 515.23 154.22 495.51z"/><g><path fill="#f6f3f7" d="M171.04 525.35L170.52 708.04 136.37 688.32 136.89 505.63 171.04 525.35z"/><path fill="url(#x)" d="M179.21 520.69L178.7 703.38 170.52 708.04 171.04 525.35 179.21 520.69z"/><path fill="#fff" d="M136.89 505.63L145.06 500.97 179.21 520.69 171.04 525.35 136.89 505.63z"/></g><g><path fill="#f6f3f7" d="M153.71 535.47L153.19 718.16 119.03 698.44 119.55 515.75 153.71 535.47z"/><path fill="url(#y)" d="M161.88 530.81L161.36 713.49 153.19 718.16 153.71 535.47 161.88 530.81z"/><path fill="#fff" d="M119.55 515.75L127.72 511.09 161.88 530.81 153.71 535.47 119.55 515.75z"/></g><g><path fill="#f6f3f7" d="M136.37 545.59L135.85 728.27 101.7 708.56 102.21 525.87 136.37 545.59z"/><path fill="url(#z)" d="M144.54 540.92L144.02 723.61 135.85 728.27 136.37 545.59 144.54 540.92z"/><path fill="#fff" d="M102.21 525.87L110.39 521.21 144.54 540.92 136.37 545.59 102.21 525.87z"/></g><g><path fill="#f6f3f7" d="M119.03 555.71L118.51 738.39 84.36 718.67 84.88 535.99 119.03 555.71z"/><path fill="url(#A)" d="M127.21 551.04L126.69 733.73 118.51 738.39 119.03 555.71 127.21 551.04z"/><path fill="#fff" d="M84.88 535.99L93.05 531.33 127.21 551.04 119.03 555.71 84.88 535.99z"/></g><g><path fill="#f6f3f7" d="M101.7 565.82L101.18 748.51 67.02 728.79 67.54 546.11 101.7 565.82z"/><path fill="url(#B)" d="M109.87 561.16L109.35 743.85 101.18 748.51 101.7 565.82 109.87 561.16z"/><path fill="#fff" d="M67.54 546.11L75.72 541.44 109.87 561.16 101.7 565.82 67.54 546.11z"/></g><g><path fill="#f6f3f7" d="M84.36 575.94L83.84 758.63 49.69 738.91 50.2 556.22 84.36 575.94z"/><path fill="url(#C)" d="M92.53 571.28L92.01 753.97 83.84 758.63 84.36 575.94 92.53 571.28z"/><path fill="#fff" d="M50.2 556.22L58.38 551.56 92.53 571.28 84.36 575.94 50.2 556.22z"/></g></g></g></g></g></g></svg>