<svg id="Layer_1" data-name="Layer 1" xmlns="http://www.w3.org/2000/svg" xmlns:xlink="http://www.w3.org/1999/xlink" width="1367" height="770" viewBox="0 0 1367 770">
  <defs>
    <linearGradient id="linear-gradient" x1="123.43" y1="432.55" x2="921.22" y2="-192.04" gradientTransform="matrix(1, 0, 0, -1, 0, 815.26)" gradientUnits="userSpaceOnUse">
      <stop offset="0" stop-color="#d1c2d8"/>
      <stop offset="1" stop-color="#77488a"/>
    </linearGradient>
    <linearGradient id="linear-gradient-2" x1="14861.29" y1="546.9" x2="15856.08" y2="-480.05" gradientTransform="translate(16216.23 815.26) rotate(180)" gradientUnits="userSpaceOnUse">
      <stop offset="0" stop-color="#d1c2d8"/>
      <stop offset="0.06" stop-color="#ccbad3"/>
      <stop offset="1" stop-color="#77488a"/>
    </linearGradient>
    <linearGradient id="linear-gradient-3" x1="63.22" y1="740.75" x2="126.54" y2="684" gradientTransform="matrix(1, 0, 0, -1, 0, 815.26)" xlink:href="#linear-gradient-2"/>
    <linearGradient id="linear-gradient-4" x1="1228.51" y1="640.37" x2="1393.32" y2="424.44" gradientTransform="matrix(1, 0, 0, -1, 0, 815.26)" xlink:href="#linear-gradient-2"/>
    <clipPath id="clip-path">
      <polygon points="1174.37 289.73 1296.88 360.46 1297.51 292.67 1175 221.94 1174.37 289.73" style="fill: none"/>
    </clipPath>
    <clipPath id="clip-path-2">
      <polygon points="1174.37 109.14 1296.88 179.87 1297.51 112.08 1175 41.35 1174.37 109.14" style="fill: none"/>
    </clipPath>
    <linearGradient id="linear-gradient-5" x1="426.06" y1="343.1" x2="444.05" y2="343.1" gradientTransform="matrix(1, 0, 0, -1, 0, 815.26)" xlink:href="#linear-gradient-2"/>
    <linearGradient id="linear-gradient-6" x1="424.59" y1="345.26" x2="443.85" y2="345.26" gradientTransform="matrix(1, 0, 0, -1, 0, 815.26)" xlink:href="#linear-gradient-2"/>
    <clipPath id="clip-path-3">
      <polygon points="1089.14 488.13 1314.25 618.1 1314.25 701.6 1088.8 571.77 1089.14 488.13" style="fill: none"/>
    </clipPath>
    <linearGradient id="linear-gradient-7" x1="1131.82" y1="269.13" x2="1169.88" y2="269.13" gradientTransform="matrix(1, 0, 0, -1, 0, 815.26)" xlink:href="#linear-gradient-2"/>
    <linearGradient id="linear-gradient-8" x1="1174.46" y1="244.97" x2="1212.53" y2="244.97" gradientTransform="matrix(1, 0, 0, -1, 0, 815.26)" xlink:href="#linear-gradient-2"/>
    <linearGradient id="linear-gradient-9" x1="1218.3" y1="220.58" x2="1256.36" y2="220.58" gradientTransform="matrix(1, 0, 0, -1, 0, 815.26)" xlink:href="#linear-gradient-2"/>
    <linearGradient id="linear-gradient-10" x1="1260.95" y1="196.42" x2="1299.01" y2="196.42" gradientTransform="matrix(1, 0, 0, -1, 0, 815.26)" xlink:href="#linear-gradient-2"/>
    <linearGradient id="linear-gradient-11" x1="1282.63" y1="183.88" x2="1320.7" y2="183.88" gradientTransform="matrix(1, 0, 0, -1, 0, 815.26)" xlink:href="#linear-gradient-2"/>
    <clipPath id="clip-path-4">
      <polygon points="1089.62 390.16 1314.48 519.99 1314.25 608.06 1088.8 478.24 1089.62 390.16" style="fill: none"/>
    </clipPath>
    <linearGradient id="linear-gradient-12" x1="1131.82" y1="362.67" x2="1169.88" y2="362.67" gradientTransform="matrix(1, 0, 0, -1, 0, 815.26)" xlink:href="#linear-gradient-2"/>
    <linearGradient id="linear-gradient-13" x1="1174.46" y1="338.51" x2="1212.53" y2="338.51" gradientTransform="matrix(1, 0, 0, -1, 0, 815.26)" xlink:href="#linear-gradient-2"/>
    <linearGradient id="linear-gradient-14" x1="1218.3" y1="314.12" x2="1256.36" y2="314.12" gradientTransform="matrix(1, 0, 0, -1, 0, 815.26)" xlink:href="#linear-gradient-2"/>
    <linearGradient id="linear-gradient-15" x1="1260.95" y1="289.96" x2="1299.01" y2="289.96" gradientTransform="matrix(1, 0, 0, -1, 0, 815.26)" xlink:href="#linear-gradient-2"/>
    <linearGradient id="linear-gradient-16" x1="1282.63" y1="277.42" x2="1320.7" y2="277.42" gradientTransform="matrix(1, 0, 0, -1, 0, 815.26)" xlink:href="#linear-gradient-2"/>
    <linearGradient id="linear-gradient-17" x1="187.92" y1="292.19" x2="295.09" y2="134.32" gradientTransform="matrix(1, 0, 0, -1, 0, 815.26)" gradientUnits="userSpaceOnUse">
      <stop offset="0.4" stop-color="#d1c2d8"/>
      <stop offset="1" stop-color="#77488a"/>
    </linearGradient>
    <linearGradient id="linear-gradient-18" x1="170.58" y1="282.07" x2="277.76" y2="124.2" xlink:href="#linear-gradient-17"/>
    <linearGradient id="linear-gradient-19" x1="153.25" y1="271.95" x2="260.42" y2="114.08" xlink:href="#linear-gradient-17"/>
    <linearGradient id="linear-gradient-20" x1="135.91" y1="261.83" x2="243.09" y2="103.95" xlink:href="#linear-gradient-17"/>
    <linearGradient id="linear-gradient-21" x1="118.57" y1="251.72" x2="225.75" y2="93.84" xlink:href="#linear-gradient-17"/>
    <linearGradient id="linear-gradient-22" x1="101.24" y1="241.6" x2="208.41" y2="83.72" xlink:href="#linear-gradient-17"/>
    <linearGradient id="linear-gradient-23" x1="83.9" y1="231.48" x2="191.08" y2="73.61" xlink:href="#linear-gradient-17"/>
    <linearGradient id="linear-gradient-24" x1="66.57" y1="221.36" x2="173.74" y2="63.49" xlink:href="#linear-gradient-17"/>
    <linearGradient id="linear-gradient-25" x1="49.23" y1="211.24" x2="156.4" y2="53.37" xlink:href="#linear-gradient-17"/>
  </defs>
  <title>office</title>
  <g id="NatWest-longform_1-sustainability-desktop" data-name="NatWest-longform 1-sustainability-desktop">
    <g id="_5-Office_toggle_" data-name=" 5-Office toggle ">
      <g id="office_illo" data-name="office illo">
        <g id="new_office" data-name="new office">
          <rect x="0.21" y="-0.31" width="1366.55" height="767.86" style="fill: #f6f3f7"/>
          <polygon points="1118.93 629.13 247.89 629.13 0.07 768.31 1366.75 768.31 1118.93 629.13" style="fill: #fff"/>
          <polygon points="249.03 -0.36 249.03 629.13 1.07 768.31 1.07 -1.37 249.03 -0.36" style="fill: url(#linear-gradient)"/>
          <polygon points="1118.93 -0.29 1118.93 629.13 1366.89 768.31 1366.89 -1.3 1118.93 -0.29" style="fill: url(#linear-gradient-2)"/>
          <g>
            <polygon points="884.6 646.56 893.78 651.79 893.78 423.99 884.6 418.76 884.6 646.56" style="fill: #516cb3"/>
            <rect x="893.79" y="424" width="9.18" height="227.79" style="fill: #00b0bc"/>
          </g>
          <g>
            <polygon points="482.55 646.56 473.37 651.79 473.37 423.99 482.55 418.76 482.55 646.56" style="fill: #516cb3"/>
            <rect x="464.19" y="423.99" width="9.18" height="227.79" style="fill: #00b0bc"/>
          </g>
          <polygon points="831.8 672.82 683.34 672.82 534.89 672.82 369.94 768.31 683.34 768.31 996.74 768.31 831.8 672.82" style="fill: #33c0c9"/>
          <g>
            <polygon points="206.68 128.1 207.29 377.55 -69.91 537.59 -70.52 288.15 206.68 128.1" style="fill: #00adb9"/>
            <polygon points="-64.1 291.84 200.3 139.18 200.87 373.86 -63.53 526.51 -64.1 291.84" style="fill: #fff"/>
            <polygon points="200.3 139.18 191.12 144.48 191.66 368.42 -63.56 515.78 -63.53 526.51 200.87 373.86 200.3 139.18" style="fill: #516cb3"/>
            <polygon points="200.87 373.86 191.66 368.42 -63.56 515.78 -63.53 526.51 200.87 373.86" style="fill: #33c0c9"/>
            <polygon points="223.2 394.26 223.2 386.88 -63.2 552.21 -63.2 559.58 223.2 394.26" style="fill: #00b0bc"/>
            <polygon points="223.2 386.88 207.3 377.48 -69.91 537.5 -63.2 552.21 223.2 386.88" style="fill: #33c0c9"/>
            <polygon points="64.59 217.52 55.41 222.82 55.95 446.82 65.16 452.26 64.59 217.52" style="fill: #516cb3"/>
            <polygon points="65.16 459.59 72.15 455.55 71.78 211.71 64.59 216.38 65.16 459.59" style="fill: #00b0bc"/>
          </g>
          <g>
            <path d="M123.09,51.26l1.76-2.13L115.74,44h0C108,39.49,97.28,40.11,85.44,47,62,60.5,43,93.36,43.07,120.34c0,13.36,4.74,22.77,12.33,27.22h0l.15.08.16.09,9.07,5.09,2.3-2.37c5.64-.09,12-2,18.63-5.82,23.48-13.55,42.45-46.41,42.38-73.39C128.07,63,126.26,56.26,123.09,51.26Z" style="fill: url(#linear-gradient-3)"/>
            <path d="M71.72,85.26l51.63-33.58c-.09-.14-.17-.29-.26-.42l1.76-2.13L115.74,44h0C108,39.49,97.28,40.11,85.44,47c-11.1,6.4-21.18,17.12-28.73,29.5Z" style="fill: #fff"/>
            <ellipse cx="94.43" cy="100.75" rx="59.93" ry="34.71" transform="translate(-40.12 131.78) rotate(-59.84)" style="fill: #f6f3f7"/>
            <g>
              <polyline points="94.43 58.88 94.43 100.76 119.7 103.95" style="fill: none;stroke: #6f2c91;stroke-miterlimit: 10"/>
              <polyline points="87.23 72.16 94.43 58.88 99.83 64.79" style="fill: none;stroke: #6f2c91;stroke-miterlimit: 10"/>
              <polyline points="113.88 96.49 119.7 103.95 110.49 109.47" style="fill: none;stroke: #6f2c91;stroke-miterlimit: 10"/>
            </g>
          </g>
          <polygon points="893.82 418.76 683.48 418.76 473.14 418.76 330.7 500.99 683.48 500.99 1036.25 500.99 893.82 418.76" style="fill: #33c0c9"/>
          <g>
            <polygon points="349.06 723.55 339.88 728.78 339.88 500.99 349.06 500.99 349.06 723.55" style="fill: #516cb3"/>
            <rect x="330.7" y="500.99" width="9.18" height="227.79" style="fill: #00b0bc"/>
          </g>
          <g>
            <polygon points="1017.89 723.55 1027.07 728.78 1027.07 500.99 1017.89 500.99 1017.89 723.55" style="fill: #516cb3"/>
            <rect x="1027.08" y="500.99" width="9.18" height="227.79" style="fill: #00b0bc"/>
          </g>
          <rect x="330.7" y="500.99" width="705.55" height="9.18" style="fill: #00b0bc"/>
          <g>
            <rect x="485.9" y="332.66" width="159.81" height="100.81" style="fill: #00b0bc"/>
            <rect x="485.9" y="342.6" width="159.81" height="74.87" style="fill: #516cb3"/>
            <circle cx="565.81" cy="337.88" r="1.2"/>
            <circle cx="565.81" cy="425.03" r="4.12" style="fill: #516cb3"/>
            <path d="M571.87,438.82v-5.34H559.75v5.34a12.06,12.06,0,0,1-7.68,11.25h27.47A12.06,12.06,0,0,1,571.87,438.82Z" style="fill: #00b0bc"/>
            <line x1="539.9" y1="450.07" x2="591.71" y2="450.07" style="fill: none;stroke: #00b0bc;stroke-miterlimit: 10"/>
          </g>
          <polygon points="612.74 456.35 565.81 456.35 518.87 456.35 495.9 469.74 565.81 469.74 635.71 469.74 612.74 456.35" style="fill: #fff"/>
          <g>
            <polygon points="771.69 425.03 722.88 425.03 675.94 425.03 652.97 438.42 722.88 438.42 794.66 438.42 771.69 425.03" style="fill: #fff"/>
            <polygon points="794.66 438.42 652.97 438.42 652.97 441.77 722.88 441.77 794.66 441.77 794.66 438.42" style="fill: #f6f3f7"/>
            <rect x="675.94" y="368.31" width="95.75" height="56.72" style="fill: #00b0bc"/>
            <rect x="675.94" y="372.63" width="95.75" height="48.08" style="fill: #fff"/>
          </g>
          <g>
            <polygon points="934.24 485.52 891.79 486.11 890.62 461.52 934.24 485.52" style="fill: #fff"/>
            <path d="M893,481a5.85,5.85,0,0,0,7.82,2.69,5.76,5.76,0,0,0,.6-.33,5.85,5.85,0,0,0-7.82-2.7A4.42,4.42,0,0,0,893,481Z" style="fill: #33c0c9"/>
            <path d="M900.21,477.85a3.75,3.75,0,1,0,1.84,2.46A4.58,4.58,0,0,0,900.21,477.85Z" style="fill: #33c0c9"/>
          </g>
          <g>
            <g>
              <path d="M915.6,463.33H897.37v9h0c0,1.35.9,2.7,2.69,3.73a14.22,14.22,0,0,0,12.89,0c1.77-1,2.66-2.38,2.65-3.73h0Z" style="fill: #516cb3"/>
              <path d="M917.26,454.1H895.71v10.64h0c0,1.6,1.07,3.2,3.18,4.42a16.84,16.84,0,0,0,15.24,0c2.1-1.22,3.14-2.82,3.13-4.42h0Z" style="fill: #516cb3"/>
              <circle cx="918.84" cy="460.67" r="4.69" style="fill: none;stroke: #516cb3;stroke-miterlimit: 10;stroke-width: 0.8858045339584351px"/>
              <path d="M914.08,449.68c4.22,2.44,4.24,6.39,0,8.83a16.78,16.78,0,0,1-15.24,0c-4.22-2.44-4.25-6.39,0-8.83A16.81,16.81,0,0,1,914.08,449.68Z" style="fill: #516cb3"/>
              <path d="M914.08,453.45c-4.23-2.43-11.05-2.44-15.24,0a6.73,6.73,0,0,0-2.62,2.51,6.82,6.82,0,0,0,2.67,2.55,16.78,16.78,0,0,0,15.24,0,6.73,6.73,0,0,0,2.62-2.51A6.82,6.82,0,0,0,914.08,453.45Z" style="fill: #fff"/>
            </g>
            <g>
              <line x1="905.03" y1="449.85" x2="905.03" y2="416.9" style="fill: none;stroke: #fff;stroke-miterlimit: 10;stroke-width: 1.0374045372009277px"/>
              <line x1="907.94" y1="449.85" x2="907.94" y2="436.52" style="fill: none;stroke: #fff;stroke-miterlimit: 10;stroke-width: 1.0374045372009277px"/>
            </g>
          </g>
          <g>
            <path d="M865.65,428.75c6.74,3.89,6.78,10.2.08,14.1s-17.59,3.89-24.33,0-6.78-10.21-.08-14.1S858.91,424.86,865.65,428.75Z" style="fill: #fff"/>
            <path d="M853.53,422.83c-10.67,0-17.21,8.05-17.21,13h34.41C870.73,430.88,864.2,422.83,853.53,422.83Z" style="fill: #fff"/>
            <polyline points="853.53 425.83 853.53 414.54 876.32 375.02 845.78 330.47" style="fill: none;stroke: #42145f;stroke-miterlimit: 10"/>
            <circle cx="843.92" cy="327.56" r="6" style="fill: #33c0c9"/>
            <rect x="833.67" y="325.76" width="12.01" height="12.01" transform="translate(13.68 696.25) rotate(-45.37)" style="fill: #33c0c9"/>
            <path d="M815.16,334.63s3.77-2.9,16.09-2.8l8.54,8.44s.08,10.27-3.37,15.59Z" style="fill: #33c0c9"/>
            <ellipse cx="825.58" cy="345.55" rx="5.57" ry="15.08" transform="translate(-10.25 665.52) rotate(-43.66)" style="fill: #00b0bc"/>
          </g>
          <g>
            <path d="M858.09,537.89h13.62a8.6,8.6,0,0,1,8.61,8.61v.13H858.09v-8.74Z" style="fill: #490b63"/>
            <path d="M705.09,546.63H682.86v-.13a8.61,8.61,0,0,1,8.61-8.61h13.62v8.74Z" style="fill: #490b63"/>
            <g>
              <rect x="768.52" y="581.09" width="26.14" height="21.49" style="fill: #490b63"/>
              <g>
                <line x1="781.59" y1="609.44" x2="781.59" y2="743.03" style="fill: none;stroke: #490b63;stroke-miterlimit: 10;stroke-width: 11px"/>
                <path d="M781.59,705.17l-65.8,20.26a5.39,5.39,0,0,0-3.81,5.2V743" style="fill: none;stroke: #490b63;stroke-miterlimit: 10;stroke-width: 11px"/>
                <path d="M781.59,705.17l65.8,20.26a5.37,5.37,0,0,1,3.81,5.15V743" style="fill: none;stroke: #490b63;stroke-miterlimit: 10;stroke-width: 11px"/>
                <rect x="775.37" y="738.36" width="12.45" height="17.98" rx="2.22" style="fill: #516cb3"/>
                <rect x="844.97" y="738.36" width="12.45" height="17.98" rx="2.22" style="fill: #516cb3"/>
                <rect x="705.76" y="738.36" width="12.45" height="17.98" rx="2.22" style="fill: #516cb3"/>
              </g>
              <path d="M712.58,600.73h138a17.16,17.16,0,0,1,17.16,17.16v.25H695.41v-.25a17.16,17.16,0,0,1,17.16-17.16Z" style="fill: #516cb3"/>
              <path d="M859.82,583.81H703.36V477.56a60.83,60.83,0,0,1,32.12-53.74c11.46-6.09,26.55-10.59,46.12-10.59,20.2,0,35.62,4.79,47.22,11.18a60.58,60.58,0,0,1,31,53.14Z" style="fill: #516cb3"/>
            </g>
          </g>
          <g>
            <g>
              <polygon points="1312.61 103.19 1311.95 366.07 1302.43 371.9 1176.64 288.82 1167.79 30.9 1177.31 25.07 1312.61 103.19" style="fill: url(#linear-gradient-4)"/>
              <polygon points="1303.09 109.01 1302.43 371.9 1167.12 293.78 1167.79 30.9 1303.09 109.01" style="fill: #f6f3f7"/>
              <polygon points="1172.71 290.56 1173.34 40.54 1297.51 112.23 1296.87 362.25 1172.71 290.56" style="fill: #516cb3"/>
              <polygon points="1174.37 289.73 1296.88 360.46 1297.51 112.23 1175 41.5 1174.37 289.73" style="fill: #00b0bc"/>
              <path d="M1175,41.5l-.28,112s18.54,26.78,34.59,23.62c17.45-3.44,19.69-68.72,22.24-103Z" style="fill: #33c0c9"/>
              <path d="M1254.48,171.7c14.61,40.3,1.51,81.61-51.39,62-12-4.45-21.29-3.73-28.57,0l-.15,56,122.51,70.73.6-248.2-15.88-9.17C1246.64,82.71,1239.87,131.4,1254.48,171.7Z" style="fill: #516cb3"/>
              <g style="clip-path: url(#clip-path)">
                <g>
                  <line x1="1274.88" y1="360.46" x2="1274.88" y2="268.29" style="fill: none;stroke: #042541;stroke-miterlimit: 10;stroke-width: 1.1196366548538208px"/>
                  <line x1="1281.58" y1="364.34" x2="1281.58" y2="272.17" style="fill: none;stroke: #042541;stroke-miterlimit: 10;stroke-width: 1.1196366548538208px"/>
                  <line x1="1288.28" y1="368.22" x2="1288.28" y2="276.05" style="fill: none;stroke: #042541;stroke-miterlimit: 10;stroke-width: 1.1196366548538208px"/>
                </g>
              </g>
              <g style="clip-path: url(#clip-path-2)">
                <g>
                  <line x1="1186.21" y1="133.51" x2="1186.21" y2="41.35" style="fill: none;stroke: #042541;stroke-miterlimit: 10;stroke-width: 1.1196366548538208px"/>
                  <line x1="1192.91" y1="137.39" x2="1192.91" y2="45.23" style="fill: none;stroke: #042541;stroke-miterlimit: 10;stroke-width: 1.1196366548538208px"/>
                </g>
              </g>
              <path d="M1217.75,201.63l-43.09-24.88v20.42L1217.74,222c4.9,2.83,8.89.55,8.91-5.08S1222.65,204.43,1217.75,201.63Z" style="fill: #042541"/>
            </g>
            <polygon points="1312.61 103.19 1303.09 109.01 1167.79 30.9 1177.31 25.07 1312.61 103.19" style="fill: #fff"/>
          </g>
          <g>
            <path d="M486.48,463.34h0v-1.92l-4-.77-26.86-15.51a2.76,2.76,0,0,0-2.53,0l-11.28,6.55-2-.4v2h0a.93.93,0,0,0,.53.74l30.29,17.49a2.82,2.82,0,0,0,2.53,0l12.78-7.43A.87.87,0,0,0,486.48,463.34Z" style="fill: #00b0bc"/>
            <path d="M471.89,454.53v17.29a2.57,2.57,0,0,0,1.25-.3l12.78-7.43a.87.87,0,0,0,.51-.75h0v-1.92l-4-.77Z" style="fill: #516cb3"/>
            <path d="M485.91,460.63a.78.78,0,0,1,.48,1,.79.79,0,0,1-.48.48l-12.78,7.42a2.76,2.76,0,0,1-2.53,0L440.31,452a.78.78,0,0,1,0-1.47l12.78-7.42a2.76,2.76,0,0,1,2.53,0Z" style="fill: #33c0c9"/>
            <polygon points="481.88 459.49 468.56 467.23 443.25 452.61 456.58 444.87 481.88 459.49" style="fill: #fff"/>
            <ellipse cx="476.95" cy="464.56" rx="1.02" ry="1.76" transform="translate(11.06 940.21) rotate(-89.84)" style="fill: none;stroke: #fff;stroke-miterlimit: 10;stroke-width: 0.19663801789283752px"/>
            <path d="M448.34,447.15a.21.21,0,0,1,.12.27.2.2,0,0,1-.12.12.74.74,0,0,1-.68,0,.2.2,0,0,1-.11-.27.19.19,0,0,1,.11-.12A.74.74,0,0,1,448.34,447.15Z" style="fill: #6f2c91"/>
          </g>
          <g>
            <path d="M441.18,465.19a3.42,3.42,0,0,0,1.56,2.93c1.68,1,4,.24,5.21-1.75" style="fill: none;stroke: #516cb3;stroke-miterlimit: 10;stroke-width: 0.7041364908218384px"/>
            <g>
              <g>
                <path d="M444,467.52h0l-.11-.79h-.2a3.05,3.05,0,0,0-1.4-1,7.66,7.66,0,0,0-6.86,1,2.88,2.88,0,0,0-1.07,1.43h-.16l.1.72a2.09,2.09,0,0,0,1,1.4L426.08,478l.11.77.49.2,10.26-8.06a7.78,7.78,0,0,0,6-1.23,2.43,2.43,0,0,0,1.13-2.14h0Zm-3.29-1.07a.83.83,0,0,1,.79-.11c.24.1.27.3.07.46a.91.91,0,0,1-.8.11C440.57,466.82,440.54,466.63,440.75,466.45Z" style="fill: url(#linear-gradient-5)"/>
                <path d="M440.7,470.76l-.21-1.47-3.67.86.1.77A8.06,8.06,0,0,0,440.7,470.76Z" style="fill: #f6f3f7"/>
                <path d="M435.48,467.92l-1.1.16h-.16l.1.72a2.12,2.12,0,0,0,.89,1.33l.6-.09Z" style="fill: #516cb3"/>
                <path d="M442.22,465c2.06.83,2.31,2.61.58,4a7.73,7.73,0,0,1-6,1.23l-10.26,8.06-.5-.2-.12-1.22,9.27-7.29c-1.36-.91-1.35-2.4.15-3.58A7.63,7.63,0,0,1,442.22,465Zm-1.52,1.19a.91.91,0,0,0,.8-.11c.2-.16.17-.36-.07-.46a.83.83,0,0,0-.79.11c-.2.16-.17.37.06.46" style="fill: #fff"/>
                <polygon points="426.56 478.21 426.66 478.98 426.17 478.78 426.06 478.01 426.56 478.21" style="fill: #f6f3f7"/>
              </g>
              <g>
                <path d="M443.85,466.92h0v-.8h-.2a3,3,0,0,0-1.25-1.2,7.61,7.61,0,0,0-6.92,0,2.92,2.92,0,0,0-1.26,1.27h-.16v.74a2,2,0,0,0,.78,1.52l-10.25,6.37v.81l.46.27,11.28-6.56a7.8,7.8,0,0,0,6.1-.38,2.45,2.45,0,0,0,1.42-2h0Zm-3.11-1.51a.87.87,0,0,1,.8,0c.22.13.22.34,0,.46a.87.87,0,0,1-.8,0C440.48,465.75,440.48,465.54,440.74,465.41Z" style="fill: url(#linear-gradient-6)"/>
                <path d="M440.09,469.63v-1.48l-3.76.33v.78A8,8,0,0,0,440.09,469.63Z" style="fill: #f6f3f7"/>
                <path d="M435.36,466.14h-1.28v.74a2,2,0,0,0,.69,1.43h.61Z" style="fill: #f6f3f7"/>
                <path d="M442.4,464.13c1.93,1.11,1.93,2.9,0,4a7.71,7.71,0,0,1-6.1.38L425,475.07l-.46-.27v-1.22l10.28-5.95c-1.22-1.1-1-2.57.64-3.53A7.61,7.61,0,0,1,442.4,464.13Zm-1.66,1a.87.87,0,0,0,.8,0,.25.25,0,0,0,.15-.32.23.23,0,0,0-.15-.15.87.87,0,0,0-.8,0,.26.26,0,0,0-.15.32.28.28,0,0,0,.15.15" style="fill: #fff"/>
                <polygon points="425.05 475.08 425.05 475.86 424.59 475.59 424.59 474.81 425.05 475.08" style="fill: #f6f3f7"/>
              </g>
              <path d="M448,466.37c1.2-2,.81-4.41-.87-5.42s-4-.24-5.21,1.75a4.65,4.65,0,0,0-.69,2.49" style="fill: none;stroke: #516cb3;stroke-miterlimit: 10;stroke-width: 0.7041364908218384px"/>
            </g>
          </g>
          <g>
            <path d="M838.33,431a59.19,59.19,0,0,0-9.52-6.56,84.39,84.39,0,0,0-13.09-5.78V570.81h22.61Z" style="fill: #fff"/>
            <g>
              <line x1="817.13" y1="569.37" x2="817.13" y2="575.11" style="fill: none;stroke: #fff;stroke-miterlimit: 10"/>
              <line x1="819.11" y1="569.37" x2="819.11" y2="575.11" style="fill: none;stroke: #fff;stroke-miterlimit: 10"/>
              <line x1="821.09" y1="569.37" x2="821.09" y2="575.11" style="fill: none;stroke: #fff;stroke-miterlimit: 10"/>
              <line x1="823.07" y1="569.37" x2="823.07" y2="575.11" style="fill: none;stroke: #fff;stroke-miterlimit: 10"/>
              <line x1="825.05" y1="569.37" x2="825.05" y2="575.11" style="fill: none;stroke: #fff;stroke-miterlimit: 10"/>
              <line x1="827.03" y1="569.37" x2="827.03" y2="575.11" style="fill: none;stroke: #fff;stroke-miterlimit: 10"/>
              <line x1="829" y1="569.37" x2="829" y2="575.11" style="fill: none;stroke: #fff;stroke-miterlimit: 10"/>
              <line x1="830.98" y1="569.37" x2="830.98" y2="575.11" style="fill: none;stroke: #fff;stroke-miterlimit: 10"/>
              <line x1="832.96" y1="569.37" x2="832.96" y2="575.11" style="fill: none;stroke: #fff;stroke-miterlimit: 10"/>
              <line x1="834.94" y1="569.37" x2="834.94" y2="575.11" style="fill: none;stroke: #fff;stroke-miterlimit: 10"/>
              <line x1="836.92" y1="569.37" x2="836.92" y2="575.11" style="fill: none;stroke: #fff;stroke-miterlimit: 10"/>
            </g>
          </g>
          <g>
            <path d="M720.48,486.34a40.73,40.73,0,0,0,9.83,3.67,20.66,20.66,0,0,0,9.71-.89l-13.21-7.07Z" style="fill: #6f2c91"/>
            <path d="M708.24,460.41a65.59,65.59,0,0,0,.73,10.47l2.65-.67-.75-18.58Z" style="fill: #6f2c91"/>
            <path d="M779.72,475.42a44.66,44.66,0,0,0,9.47-13.12l-1.42-1.9.39-3.7a63.34,63.34,0,0,0,3.25-6.68l-1.2-1.62c1.89-2.63,3.13-7.36,3.13-7.36l-.14-1.57-4.54-1.24v-.93l2.91-4.1-1.19-4.91-2.9,2.16-.69-2.83-2-.18-.52-.7-.52-.69.39-2-2.56-1.42,2.89-2.16-4.36-2.54-4.76,1.62-.87-.31.09-4.71-1.46-.58a27.71,27.71,0,0,0-8,.91l-1.21-1.61a63,63,0,0,0-7.33,1.22l-3.66-.68-1.42-1.9a44.8,44.8,0,0,0-15.26,5.34c-6.6,3.75-27,18.66-28,43.2l2.4-7.26v11.41l-1.69,6.32c.32,1.81.74,3.61,1.24,5.39l1,1.33s1.36-.14,2.69,1.64.81,3.05.81,3.05l1,1.32q2.34,1.49,4.82,2.73l6.54.17L738,489.79l-7.64.24C754.15,496,774.26,480.68,779.72,475.42Z" style="fill: #42145f"/>
            <path d="M779.72,475.42a44.66,44.66,0,0,0,9.47-13.12l-1.42-1.9.39-3.7a63.34,63.34,0,0,0,3.25-6.68l-1.2-1.62c1.89-2.63,3.13-7.36,3.13-7.36l-.14-1.57-4.54-1.24v-.93l2.91-4.1-1.19-4.91-2.9,2.16-.69-2.83-2-.18-.52-.7-.52-.69.39-2-2.56-1.42,2.89-2.16-4.36-2.54-4.76,1.62-.87-.31.09-4.71-1.46-.58a27.71,27.71,0,0,0-8,.91l-1.21-1.61a63,63,0,0,0-7.33,1.22l-3.66-.68-1.42-1.9a44.8,44.8,0,0,0-15.26,5.34c-6.6,3.75-27,18.66-28,43.2l2.4-7.26v11.41l-1.69,6.32c.32,1.81.74,3.61,1.24,5.39l1,1.33s1.36-.14,2.69,1.64.81,3.05.81,3.05l1,1.32q2.34,1.49,4.82,2.73l6.54.17L738,489.79l-7.64.24C754.15,496,774.26,480.68,779.72,475.42Zm-62.38-26.79c.43-5.3,10.41-13.78,10.41-13.78l-2.34,6.64c-2.34,6.64-8.49,12.43-8.49,12.43ZM737.65,436s-1.86-3.07,2.48-6.91,17.54-8.5,17.54-8.5l-3.74,5.85s-8,4.36-16.28,9.6Zm40.72-.66,2,2.75-10.76,11.5.27-7.93Zm-6.19-8.29,2.06,2.76-8.43,6.3-7.68-2Zm-48.7,31.75s4.51-5.43,14.76-13.08l6.81-5.08a7.65,7.65,0,0,1,4.53-1.53c2.7,0,6.68.37,8.49,2.8C758.09,442,733.33,459.22,723.48,458.84Zm0,13.22a12.08,12.08,0,0,1-1.71-4.19c8.44-6.29,14.37-5.26,14.37-5.26s-.7,6-9.13,12.28A12.41,12.41,0,0,1,723.48,472.06Zm29.41-6.66c-10.25,7.65-16.74,10.43-16.74,10.43,2.43-9.54,26-28.36,26-28.36,1.81,2.43,1.07,6.36.28,8.93a7.76,7.76,0,0,1-2.76,3.92Zm29.61-11.46s-8.25,11.31-13.17,14.38-7.33.41-7.33.41c7.37-6.45,13.82-12.87,13.82-12.87Zm-38.32,30.69-5.2-1.1s7.31-4.25,14.34-4.61l7-.35S749.38,485.73,744.18,484.63Z" style="fill: #00b0bc"/>
            <g>
              <polygon points="751.54 411.87 746.06 417.44 756.62 414.45 752.96 413.77 751.54 411.87" style="fill: #33c0c9"/>
              <path d="M725.07,429.33a78.5,78.5,0,0,0,6.83-4.75c5.81-4.26,6.11-8.27,6.11-8.3-.58.29-1.15.6-1.73.93a57.19,57.19,0,0,0-8.71,6.29Z" style="fill: #33c0c9"/>
              <path d="M763.59,423.38l2.87,6.63,15.12-7.38,2.89-2.16-4.36-2.54-4.76,1.62-.87-.31.09-4.71a34.47,34.47,0,0,0-7.63,2.7Z" style="fill: #33c0c9"/>
              <polygon points="789.19 462.3 782.29 465.97 788.16 456.7 787.77 460.4 789.19 462.3" style="fill: #33c0c9"/>
              <path d="M764.92,482.71a80.74,80.74,0,0,1,6.5-5.19c5.73-4.36,9.66-3.5,9.69-3.5-.45.47-.91.94-1.39,1.4a57.47,57.47,0,0,1-8.5,6.56Z" style="fill: #33c0c9"/>
              <path d="M781.57,447.48,776,442.84l11.44-12.39,2.9-2.16,1.19,4.91-2.91,4.1v.93l4.54,1.24a34.31,34.31,0,0,1-4.75,6.55Z" style="fill: #33c0c9"/>
            </g>
          </g>
          <g>
            <g>
              <polygon points="1400.15 470.9 1399.27 772.36 1322.16 816.53 1323.04 515.06 1400.15 470.9" style="fill: #516cb3"/>
              <polygon points="1323.04 515.06 1322.16 816.53 1080.25 676.86 1081.12 375.39 1323.04 515.06" style="fill: #00b0bc"/>
              <polygon points="1088.8 671.93 1089.62 390.16 1314.48 519.99 1313.66 801.76 1088.8 671.93" style="fill: #516cb3"/>
              <polygon points="1165.84 627.95 1313.91 713.44 1314.48 519.99 1166.42 434.5 1165.84 627.95" style="fill: #42145f"/>
              <polygon points="1081.12 375.39 1158.24 331.23 1400.15 470.9 1323.04 515.06 1081.12 375.39" style="fill: #33c0c9"/>
            </g>
            <polygon points="1088.8 671.93 1088.8 681.8 1313.91 811.76 1313.91 801.76 1088.8 671.93" style="fill: #00b0bc"/>
            <g>
              <polygon points="1088.8 571.77 1165.84 527.79 1314.25 613.47 1313.91 701.6 1088.8 571.77" style="fill: #33c0c9"/>
              <polygon points="1088.8 571.77 1088.8 581.63 1313.91 711.6 1313.91 701.6 1088.8 571.77" style="fill: #00b0bc"/>
            </g>
            <g>
              <polygon points="1088.8 478.06 1165.84 434.07 1314.48 519.99 1314.22 608.06 1088.8 478.06" style="fill: #33c0c9"/>
              <polygon points="1089.14 478.27 1089.14 488.13 1314.25 618.1 1314.25 608.09 1089.14 478.27" style="fill: #00b0bc"/>
            </g>
            <polygon points="1088.8 581.63 1313.91 711.6 1313.91 801.76 1088.8 671.93 1088.8 581.63" style="fill: #33c0c9"/>
            <line x1="1201.64" y1="641.69" x2="1201.64" y2="744.12" style="fill: none;stroke: #00b0bc;stroke-miterlimit: 10;stroke-width: 5px"/>
            <g>
              <path d="M1218.19,697a8.39,8.39,0,0,1,3.82,6.61c0,2.44-1.73,3.42-3.85,2.2a8.47,8.47,0,0,1-3.82-6.62C1214.35,696.76,1216.07,695.79,1218.19,697Z" style="fill: #f6f3f7"/>
              <path d="M1184.55,677.57a8.42,8.42,0,0,1,3.82,6.62c0,2.43-1.73,3.42-3.85,2.19a8.45,8.45,0,0,1-3.82-6.61C1180.71,677.33,1182.48,676.35,1184.55,677.57Z" style="fill: #f6f3f7"/>
            </g>
            <g style="clip-path: url(#clip-path-3)">
              <g>
                <g>
                  <g>
                    <polygon points="1132.9 476.42 1148.44 485.4 1110.37 507.41 1094.83 498.44 1132.9 476.42" style="fill: #33c0c9"/>
                    <polygon points="1094.83 498.43 1094.83 572.67 1110.37 581.63 1110.37 507.41 1094.83 498.43" style="fill: #00b0bc"/>
                    <polygon points="1148.44 485.39 1148.44 559.63 1110.37 581.63 1110.37 507.41 1148.44 485.39" style="fill: #516cb3"/>
                  </g>
                  <g>
                    <polygon points="1154.34 489.04 1169.88 498.02 1131.82 520.02 1116.27 511.05 1154.34 489.04" style="fill: #fff"/>
                    <polygon points="1116.27 511.05 1116.27 585.29 1131.82 594.25 1131.82 520.02 1116.27 511.05" style="fill: #f6f3f7"/>
                    <polygon points="1169.88 498.01 1169.88 572.25 1131.82 594.25 1131.82 520.02 1169.88 498.01" style="fill: url(#linear-gradient-7)"/>
                  </g>
                  <g>
                    <polygon points="1175.55 500.58 1191.09 509.56 1153.02 531.57 1137.48 522.6 1175.55 500.58" style="fill: #33c0c9"/>
                    <polygon points="1137.48 522.59 1137.48 596.83 1153.02 605.79 1153.02 531.57 1137.48 522.59" style="fill: #00b0bc"/>
                    <polygon points="1191.09 509.55 1191.09 583.79 1153.02 605.79 1153.02 531.57 1191.09 509.55" style="fill: #516cb3"/>
                  </g>
                  <g>
                    <polygon points="1196.99 513.2 1212.53 522.18 1174.46 544.18 1158.92 535.21 1196.99 513.2" style="fill: #fff"/>
                    <polygon points="1158.92 535.21 1158.92 609.45 1174.46 618.41 1174.46 544.18 1158.92 535.21" style="fill: #f6f3f7"/>
                    <polygon points="1212.53 522.17 1212.53 596.41 1174.46 618.41 1174.46 544.18 1212.53 522.17" style="fill: url(#linear-gradient-8)"/>
                  </g>
                </g>
                <g>
                  <g>
                    <polygon points="1219.38 524.96 1234.92 533.95 1196.86 555.95 1181.31 546.98 1219.38 524.96" style="fill: #33c0c9"/>
                    <polygon points="1181.31 546.98 1181.31 621.22 1196.86 630.18 1196.86 555.95 1181.31 546.98" style="fill: #00b0bc"/>
                    <polygon points="1234.92 533.94 1234.92 608.17 1196.86 630.18 1196.86 555.95 1234.92 533.94" style="fill: #516cb3"/>
                  </g>
                  <g>
                    <polygon points="1240.82 537.58 1256.36 546.56 1218.3 568.57 1202.75 559.6 1240.82 537.58" style="fill: #fff"/>
                    <polygon points="1202.75 559.59 1202.75 633.83 1218.3 642.8 1218.3 568.57 1202.75 559.59" style="fill: #f6f3f7"/>
                    <polygon points="1256.36 546.55 1256.36 620.79 1218.3 642.8 1218.3 568.57 1256.36 546.55" style="fill: url(#linear-gradient-9)"/>
                  </g>
                  <g>
                    <polygon points="1262.03 549.12 1277.57 558.11 1239.51 580.11 1223.96 571.14 1262.03 549.12" style="fill: #33c0c9"/>
                    <polygon points="1223.96 571.14 1223.96 645.38 1239.51 654.34 1239.51 580.11 1223.96 571.14" style="fill: #00b0bc"/>
                    <polygon points="1277.57 558.1 1277.57 632.34 1239.51 654.34 1239.51 580.11 1277.57 558.1" style="fill: #516cb3"/>
                  </g>
                  <g>
                    <polygon points="1283.47 561.74 1299.01 570.72 1260.95 592.73 1245.4 583.76 1283.47 561.74" style="fill: #fff"/>
                    <polygon points="1245.4 583.75 1245.4 657.99 1260.95 666.96 1260.95 592.73 1245.4 583.75" style="fill: #f6f3f7"/>
                    <polygon points="1299.01 570.71 1299.01 644.95 1260.95 666.96 1260.95 592.73 1299.01 570.71" style="fill: url(#linear-gradient-10)"/>
                  </g>
                  <g>
                    <polygon points="1305.16 574.28 1320.7 583.27 1282.63 605.27 1267.09 596.3 1305.16 574.28" style="fill: #fff"/>
                    <polygon points="1267.09 596.3 1267.09 670.54 1282.63 679.5 1282.63 605.27 1267.09 596.3" style="fill: #f6f3f7"/>
                    <polygon points="1320.7 583.26 1320.7 657.5 1282.63 679.5 1282.63 605.27 1320.7 583.26" style="fill: url(#linear-gradient-11)"/>
                  </g>
                </g>
              </g>
            </g>
            <g style="clip-path: url(#clip-path-4)">
              <g>
                <g>
                  <g>
                    <polygon points="1132.9 382.88 1148.44 391.86 1110.37 413.87 1094.83 404.9 1132.9 382.88" style="fill: #33c0c9"/>
                    <polygon points="1094.83 404.9 1094.83 479.13 1110.37 488.1 1110.37 413.87 1094.83 404.9" style="fill: #00b0bc"/>
                    <polygon points="1148.44 391.85 1148.44 466.09 1110.37 488.1 1110.37 413.87 1148.44 391.85" style="fill: #516cb3"/>
                  </g>
                  <g>
                    <polygon points="1154.34 395.5 1169.88 404.48 1131.82 426.49 1116.27 417.51 1154.34 395.5" style="fill: #fff"/>
                    <polygon points="1116.27 417.51 1116.27 491.75 1131.82 500.71 1131.82 426.49 1116.27 417.51" style="fill: #f6f3f7"/>
                    <polygon points="1169.88 404.47 1169.88 478.71 1131.82 500.71 1131.82 426.49 1169.88 404.47" style="fill: url(#linear-gradient-12)"/>
                  </g>
                  <g>
                    <polygon points="1175.55 407.04 1191.09 416.02 1153.02 438.03 1137.48 429.06 1175.55 407.04" style="fill: #33c0c9"/>
                    <polygon points="1137.48 429.06 1137.48 503.29 1153.02 512.26 1153.02 438.03 1137.48 429.06" style="fill: #00b0bc"/>
                    <polygon points="1191.09 416.01 1191.09 490.25 1153.02 512.26 1153.02 438.03 1191.09 416.01" style="fill: #516cb3"/>
                  </g>
                  <g>
                    <polygon points="1196.99 419.66 1212.53 428.64 1174.46 450.64 1158.92 441.67 1196.99 419.66" style="fill: #fff"/>
                    <polygon points="1158.92 441.67 1158.92 515.91 1174.46 524.87 1174.46 450.64 1158.92 441.67" style="fill: #f6f3f7"/>
                    <polygon points="1212.53 428.63 1212.53 502.87 1174.46 524.87 1174.46 450.64 1212.53 428.63" style="fill: url(#linear-gradient-13)"/>
                  </g>
                </g>
                <g>
                  <g>
                    <polygon points="1219.38 431.43 1234.92 440.41 1196.86 462.41 1181.31 453.44 1219.38 431.43" style="fill: #33c0c9"/>
                    <polygon points="1181.31 453.44 1181.31 527.68 1196.86 536.64 1196.86 462.41 1181.31 453.44" style="fill: #00b0bc"/>
                    <polygon points="1234.92 440.4 1234.92 514.64 1196.86 536.64 1196.86 462.41 1234.92 440.4" style="fill: #516cb3"/>
                  </g>
                  <g>
                    <polygon points="1240.82 444.04 1256.36 453.02 1218.3 475.03 1202.75 466.06 1240.82 444.04" style="fill: #fff"/>
                    <polygon points="1202.75 466.06 1202.75 540.29 1218.3 549.26 1218.3 475.03 1202.75 466.06" style="fill: #f6f3f7"/>
                    <polygon points="1256.36 453.01 1256.36 527.25 1218.3 549.26 1218.3 475.03 1256.36 453.01" style="fill: url(#linear-gradient-14)"/>
                  </g>
                  <g>
                    <polygon points="1262.03 455.59 1277.57 464.57 1239.51 486.57 1223.96 477.6 1262.03 455.59" style="fill: #33c0c9"/>
                    <polygon points="1223.96 477.6 1223.96 551.84 1239.51 560.8 1239.51 486.57 1223.96 477.6" style="fill: #00b0bc"/>
                    <polygon points="1277.57 464.56 1277.57 538.8 1239.51 560.8 1239.51 486.57 1277.57 464.56" style="fill: #516cb3"/>
                  </g>
                  <g>
                    <polygon points="1283.47 468.2 1299.01 477.19 1260.95 499.19 1245.4 490.22 1283.47 468.2" style="fill: #fff"/>
                    <polygon points="1245.4 490.22 1245.4 564.45 1260.95 573.42 1260.95 499.19 1245.4 490.22" style="fill: #f6f3f7"/>
                    <polygon points="1299.01 477.18 1299.01 551.41 1260.95 573.42 1260.95 499.19 1299.01 477.18" style="fill: url(#linear-gradient-15)"/>
                  </g>
                  <g>
                    <polygon points="1305.16 480.75 1320.7 489.73 1282.63 511.73 1267.09 502.76 1305.16 480.75" style="fill: #fff"/>
                    <polygon points="1267.09 502.76 1267.09 577 1282.63 585.96 1282.63 511.73 1267.09 502.76" style="fill: #f6f3f7"/>
                    <polygon points="1320.7 489.72 1320.7 563.96 1282.63 585.96 1282.63 511.73 1320.7 489.72" style="fill: url(#linear-gradient-16)"/>
                  </g>
                  <g>
                    <polygon points="1326.79 492.82 1342.33 501.81 1304.27 523.81 1288.72 514.84 1326.79 492.82" style="fill: #33c0c9"/>
                    <polygon points="1288.72 514.84 1288.72 589.08 1304.27 598.04 1304.27 523.81 1288.72 514.84" style="fill: #00b0bc"/>
                    <polygon points="1342.33 501.8 1342.33 576.03 1304.27 598.04 1304.27 523.81 1342.33 501.8" style="fill: #516cb3"/>
                  </g>
                </g>
              </g>
            </g>
          </g>
          <g>
            <g>
              <polygon points="224.53 493.62 224.01 676.31 189.86 656.59 190.37 473.9 224.53 493.62" style="fill: #f6f3f7"/>
              <polygon points="232.7 488.96 232.18 671.65 224.01 676.31 224.53 493.62 232.7 488.96" style="fill: url(#linear-gradient-17)"/>
              <polygon points="190.37 473.9 198.55 469.24 232.7 488.96 224.53 493.62 190.37 473.9" style="fill: #fff"/>
            </g>
            <g>
              <polygon points="207.19 503.74 206.67 686.43 172.52 666.71 173.04 484.02 207.19 503.74" style="fill: #f6f3f7"/>
              <polygon points="215.37 499.08 214.85 681.77 206.67 686.43 207.19 503.74 215.37 499.08" style="fill: url(#linear-gradient-18)"/>
              <polygon points="173.04 484.02 181.21 479.36 215.37 499.08 207.19 503.74 173.04 484.02" style="fill: #fff"/>
            </g>
            <g>
              <polygon points="189.86 513.86 189.34 696.55 155.19 676.83 155.7 494.14 189.86 513.86" style="fill: #f6f3f7"/>
              <polygon points="198.03 509.2 197.51 691.89 189.34 696.55 189.86 513.86 198.03 509.2" style="fill: url(#linear-gradient-19)"/>
              <polygon points="155.7 494.14 163.88 489.48 198.03 509.2 189.86 513.86 155.7 494.14" style="fill: #fff"/>
            </g>
            <g>
              <polygon points="172.52 523.98 172 706.67 137.85 686.95 138.37 504.26 172.52 523.98" style="fill: #f6f3f7"/>
              <polygon points="180.69 519.32 180.18 702.01 172 706.67 172.52 523.98 180.69 519.32" style="fill: url(#linear-gradient-20)"/>
              <polygon points="138.37 504.26 146.54 499.6 180.69 519.32 172.52 523.98 138.37 504.26" style="fill: #fff"/>
            </g>
            <g>
              <polygon points="155.19 534.1 154.67 716.79 120.51 697.07 121.03 514.38 155.19 534.1" style="fill: #f6f3f7"/>
              <polygon points="163.36 529.44 162.84 712.12 154.67 716.79 155.19 534.1 163.36 529.44" style="fill: url(#linear-gradient-21)"/>
              <polygon points="121.03 514.38 129.2 509.72 163.36 529.44 155.19 534.1 121.03 514.38" style="fill: #fff"/>
            </g>
            <g>
              <polygon points="137.85 544.22 137.33 726.9 103.18 707.19 103.69 524.5 137.85 544.22" style="fill: #f6f3f7"/>
              <polygon points="146.02 539.55 145.5 722.24 137.33 726.9 137.85 544.22 146.02 539.55" style="fill: url(#linear-gradient-22)"/>
              <polygon points="103.69 524.5 111.87 519.84 146.02 539.55 137.85 544.22 103.69 524.5" style="fill: #fff"/>
            </g>
            <g>
              <polygon points="120.51 554.34 119.99 737.02 85.84 717.3 86.36 534.62 120.51 554.34" style="fill: #f6f3f7"/>
              <polygon points="128.69 549.67 128.17 732.36 119.99 737.02 120.51 554.34 128.69 549.67" style="fill: url(#linear-gradient-23)"/>
              <polygon points="86.36 534.62 94.53 529.96 128.69 549.67 120.51 554.34 86.36 534.62" style="fill: #fff"/>
            </g>
            <g>
              <polygon points="103.18 564.45 102.66 747.14 68.5 727.42 69.02 544.74 103.18 564.45" style="fill: #f6f3f7"/>
              <polygon points="111.35 559.79 110.83 742.48 102.66 747.14 103.18 564.45 111.35 559.79" style="fill: url(#linear-gradient-24)"/>
              <polygon points="69.02 544.74 77.2 540.07 111.35 559.79 103.18 564.45 69.02 544.74" style="fill: #fff"/>
            </g>
            <g>
              <polygon points="85.84 574.57 85.32 757.26 51.17 737.54 51.68 554.85 85.84 574.57" style="fill: #f6f3f7"/>
              <polygon points="94.01 569.91 93.49 752.6 85.32 757.26 85.84 574.57 94.01 569.91" style="fill: url(#linear-gradient-25)"/>
              <polygon points="51.68 554.85 59.86 550.19 94.01 569.91 85.84 574.57 51.68 554.85" style="fill: #fff"/>
            </g>
            <g>
              <polygon points="70.45 738.1 70.31 758.8 61.4 753.65 61.53 732.95 70.45 738.1" style="fill: #00b0bc"/>
              <polygon points="80.01 746.15 79.87 750.11 74.71 753.06 74.85 749.1 80.01 746.15" style="fill: #4a6cb8"/>
              <polygon points="75.61 735.14 75.47 755.85 70.31 758.8 70.45 738.1 75.61 735.14" style="fill: #4a6cb8"/>
              <polygon points="61.53 732.95 66.69 730 75.61 735.14 70.45 738.1 61.53 732.95" style="fill: #26bcc6"/>
              <polygon points="75.55 743.61 75.52 748.73 80 746.17 75.55 743.61" style="fill: #26bcc6"/>
            </g>
          </g>
          <rect x="-19.85" y="658.55" width="1408" height="110" style="fill: #fff"/>
        </g>
      </g>
    </g>
  </g>
</svg>
