<svg xmlns="http://www.w3.org/2000/svg" width="46.62" height="40" viewBox="0 0 46.62 40">
  <title>6699</title>
  <g id="Layer_2" data-name="Layer 2">
    <g id="NatWest-longform_1-sustainability-desktop">
      <g id="_6-Why_do_modern_businesses_need_to_be_more_sustainable" data-name="6-Why do modern businesses need to be more sustainable">
        <g id="quote">
          <g id="_6699" data-name="6699">
            <path d="M43.68,0l2.94,4.41a27.69,27.69,0,0,0-11,16.47c7.5,0,11,2.94,11,9.42,0,6.32-3.38,9.7-9.85,9.7-6.62,0-9.12-4.41-9.12-12.94A30.38,30.38,0,0,1,43.68,0ZM16,0,19,4.41a27.73,27.73,0,0,0-11,16.47c7.5,0,11,2.94,11,9.42,0,6.32-3.38,9.7-9.85,9.7S0,35.59,0,27.06A30.38,30.38,0,0,1,16,0Z" style="fill: #00b6be"/>
          </g>
        </g>
      </g>
    </g>
  </g>
</svg>
