<svg viewBox="0 0 607.1 372.31" xmlns="http://www.w3.org/2000/svg" xmlns:xlink="http://www.w3.org/1999/xlink"><clipPath id="a"><path d="m169 271.23a2.88 2.88 0 0 1 -1-2.47 8.73 8.73 0 0 1 4-6.89 2.83 2.83 0 0 1 2.83-.29l170.99 100.13-5.63 9.73z"/></clipPath><path d="m607.08 231.27v-6.64l-28.76-5.63-351.21-202.49c-5.11-3-13.35-3-18.42 0l-194 112.72-14.69-2.86v7.21c0 1.93 1.29 3.86 3.84 5.34l376.16 216.89c5.1 2.95 13.35 2.95 18.42 0l204.9-119.06c2.59-1.51 3.84-3.5 3.76-5.48z" fill="#06b3bb"/><path d="m398.41 355.81 204.9-119.06c2.6-1.51 3.85-3.5 3.77-5.48v-6.64l-28.76-5.63-44.66-25.75-144.24 80.68v84.07a18.66 18.66 0 0 0 8.99-2.19z" fill="#516cb4"/><path d="m603.25 219.1c5.11 3 5.13 7.72.06 10.67l-204.9 119.06c-5.07 2.95-13.32 2.95-18.42 0l-376.15-216.89c-5.1-2.95-5.12-7.72 0-10.67l204.85-119.06c5.07-2.95 13.31-2.95 18.42 0z" fill="#2bbec5"/><path d="m573.99 210.6-208.89 121.38-339.93-196.06 208.89-121.37z" fill="#fff"/><ellipse cx="489.44" cy="277.81" fill="none" rx="7.4" ry="12.78" stroke="#fff" stroke-miterlimit="10" stroke-width="1.3" transform="matrix(.00279252 -.9999961 .9999961 .00279252 210.24 766.46)"/><path d="m116.48 70c1.79 1 1.82 2.71 0 3.76a7.2 7.2 0 0 1 -6.49 0c-1.79-1-1.8-2.73 0-3.76a7.17 7.17 0 0 1 6.49 0z"/><path d="m171.3 265.9-17.11-10.05" fill="none" stroke="#06b3bb" stroke-miterlimit="10" stroke-width="1.3"/><path d="m174.07 261.32-17.66-4.73-.48.83 12.5 13.24z" fill="#f5f3f7"/><path d="m345.82 361.72-171.07-100.14a2.83 2.83 0 0 0 -2.83.29 8.73 8.73 0 0 0 -4 6.89 2.88 2.88 0 0 0 1 2.47l171.27 100.21a5.53 5.53 0 0 0 3 .88 5.62 5.62 0 0 0 2.62-10.59z" fill="#fff"/><path d="m168.38 266.44a6.94 6.94 0 0 0 -.44 2.32 2.88 2.88 0 0 0 1 2.47l171.25 100.21a5.53 5.53 0 0 0 3 .88 5.61 5.61 0 0 0 3.71-1.4z" fill="#f5f3f7"/><g clip-path="url(#a)"><path d="m331.88 367.1a3.1 3.1 0 0 1 -1.11-2.67 9.49 9.49 0 0 1 4.31-7.47 3 3 0 0 1 3.06-.31" fill="none" stroke="#06b3bb" stroke-miterlimit="10" stroke-width="1.3"/></g></svg>