<svg viewBox="0 0 340.93 420.15" xmlns="http://www.w3.org/2000/svg"><path d="m340.93 293.08c.28-99.52-69.7-220.74-156.32-270.74-41.37-23.89-80.07-29.1-107.15-13.29-8.38 4.89-33.56 19.36-33.56 19.36l7.42 1.91c-15.13 18.97-23.94 46.68-24.04 81.68-.28 99.52 69.72 220.74 156.31 270.75 30.17 17.42 58.38 23.88 82.34 20.72v7.19l28.41-16.51c28.66-16.15 46.45-51.15 46.59-101.07z" fill="#2bbec5"/><path d="m157.33 38.22c86.67 50.01 156.6 171.23 156.32 270.78s-70.73 139.67-157.34 89.66-156.59-171.25-156.31-270.77 70.72-139.67 157.33-89.67z" fill="#06b3bb"/><path d="m226.68 376.14c-13.75 0-30.93-5.54-48.37-15.61-35.3-20.38-68.91-56.15-94.63-100.7s-39.79-91.33-39.68-131.83c.07-22.75 4.61-41 13.13-52.68 7.16-9.83 16.92-14.61 29.87-14.61 13.74 0 30.92 5.55 48.36 15.62 35.28 20.38 68.89 56.14 94.64 100.67s39.79 91.33 39.68 131.82c-.07 22.75-4.61 41-13.14 52.68-7.19 9.87-16.94 14.64-29.86 14.64z" fill="#2bbec5"/><path d="m195.22 305.23c-7.57 0-43.53-14.19-73.74-66.53-30.49-52.82-24.27-92.59-19.57-99 3.94-5.41 9.31-8 16.42-8 7.56 0 43.84 9.42 74.74 66.36s23.26 92.76 18.57 99.21c-3.94 5.33-9.31 7.96-16.42 7.96z" fill="#06b3bb"/><path d="m157.09 175.68 9.99 29.85 22.99 16.84-16.83 8.73 4.08 28.64-20.4-24.45-20.46.86 4.23-23.84-16.74-28.12 23.02 9.73z" fill="#fff"/><path d="m265.93 410.65.47-.27z" fill="#42145f"/><path d="m335.86 243.93-27.29 15.81a248.16 248.16 0 0 1 5.08 49.26c-.14 48.42-16.89 82.77-44 99.54l24.7-14.36c28.65-16.18 46.44-51.18 46.58-101.1a248.12 248.12 0 0 0 -5.07-49.15z" fill="#516cb4"/></svg>