<svg enable-background="new 0 0 250 250" viewBox="0 0 250 250" xmlns="http://www.w3.org/2000/svg"><path d="m36.6 36.6h176.8v176.8h-176.8z" transform="matrix(.7071 -.7071 .7071 .7071 -51.7759 124.9974)"/><path d="m79.9 137.2c0-19 14.4-32.2 27.8-38.1l.9 1.2c-4.9 5.6-8.3 11.1-8.3 22.6 0 13.2 3.5 22.3 9 28.4 1.9-2.3 2.9-5.1 2.9-8.1v-19.8l24.1-17.3 1.1 1.4c-2.3 3-3.5 6.7-3.4 10.5v12.6c0 8.8-14.4 18.2-23.4 21.9 5.9 5.8 14.3 8.2 23.2 8.2 3 0 6-.2 9-.6v-55.1c-7.9-.5-15.3-2.6-22.2-4.4-7.3-2.1-14.7-4.1-21.1-4.1-9.7 0-21.6 3.3-21.7 17.5 0 1.2.2 2.6.3 4.1l-1.8.6c-1.6-4.1-2.5-8.5-2.6-12.9-.2-17.1 12.4-32.2 32.6-32.2 8.5 0 16.6 2.1 23.6 4.1 7.6 2.1 15 4.1 22.6 4.1 3.8 0 6.1-2 6.1-5.6s-1.8-5.5-4.7-6.2l.3-1.8c8.7 1.5 18.2 6.7 18.2 17.6 0 13.2-9.6 19.4-25.7 19.4h-1.7v54.7c10.6-2 17.6-7 22.9-15.3l1.7.9c-5.9 18.7-19.7 36.4-44.3 36.4-25.1 0-45.5-14.6-45.4-44.7m66.7-38.7c-17.9 0-34-8.8-47.1-8.8-8.4 0-18.1 3.4-21.5 13.1l.5.2c3.9-6.7 12.9-8.8 21-8.8 13.1 0 29.2 8.8 47.1 8.8 14.4 0 22.8-4.9 24.1-16.4l-.8-.1c-2 8.8-8.9 12-23.3 12m-51.4 10.9c-6.7 6.7-12.9 15.9-12.9 27.8 0 28.1 18.9 42.2 42.8 42.2 14.9 0 25.3-8.1 31.3-14.1l-.4-.6c-7 5.6-16.5 10.2-30.9 10.2-19.3 0-37.9-11.8-37.9-37.7.1-9.7 3.1-19.2 8.6-27.2zm23.8 32.5-.1-20.7-4.6 3.2v19.3c0 1.8-.4 3.6-1.1 5.3h.6c2.9-1.8 5.2-4.6 5.2-7.1" fill="#fff"/></svg>