<svg id="Layer_1" xmlns="http://www.w3.org/2000/svg" viewBox="0 0 152 24.8"><style>.st0{fill:#1d1d1b}</style><path class="st0" d="M19.7 22.6c2.8-.2 5.5-1.1 5.5-4.1V9.4L24 8.1l-1.4 1.4v6.9l1.1 1-2.6 2.3h-.2l-2.6-2.2.7-.7v-14c0-1.1-.9-1.6-1.5-1.8V.8c.2-.1.6-.2 1.1-.2.9 0 1.7.5 1.9 1.1h.1C21.1.9 22 .6 22.8.6c.2 0 .5 0 .8.1V1c-.5.1-1.1.7-1.1 2.1V9l3.4-3.3h.2c.2.2 1.7 1.6 2 1.8.1.1.3.1.5.1.3 0 .5-.1.7-.2v.4c-.3.2-.6.7-.6 1.3v8c0 3.5-3.9 5.7-9.1 6v-.5zM18.4 1v.1c.5.2 1 .6 1 1.5V17l-.6.6 2.2 1.8.6-.5-1.8-1.4.3-.3V2.7c.1-1.1-1-1.7-1.7-1.7m6 20.7c1-.7 2-1.5 2-3V8.9l-1.6-1.6-.6.6 1.4 1.4v9.4c0 1.3-.5 2.3-1.3 2.9l.1.1zM31 8.8c1.5-.7 3.8-2.1 5.3-3.2h.3c1 1 2.4 2.7 3.7 3.8v.3l-5.7 3.7v2.3c.6.4 2.2 1.2 3.2 1.5l2.3-2.2.3.3-4.6 4.4h-.3c-1.5-.7-3.5-1.5-4.8-2.2.2-.5.3-1.6.3-3.1V8.8zm5.2 10c-1.5-.7-2.9-1.2-4.1-1.9.1-.5.1-1 .1-2.5V8.6l-.8.4v5.4c0 1.5 0 2.4-.2 2.9 1.2.7 2.9 1.4 4.5 2.1l.5-.6zm-1.6-5.9l2.5-1.7c-.9-1-1.8-2.1-2.5-2.9v4.6zm.8-5.6l-.7.5c.8.9 1.8 2.1 2.8 3.2l.7-.5c-1-1.1-2-2.3-2.8-3.2m106.9 15.3c2.8-.2 5.5-1.1 5.5-4.1V9.3L146.6 8l-1.4 1.4v6.9l1.1 1-2.6 2.3h-.2l-2.6-2.2.7-.7v-14c0-1.1-.9-1.6-1.5-1.8V.7c.2-.1.6-.2 1.1-.2.9 0 1.7.5 1.9 1.1h.1c.5-.8 1.4-1.1 2.2-1.1.2 0 .5 0 .8.1v.3c-.5.1-1.1.7-1.1 2.1v5.9l3.4-3.3h.2c.2.2 1.7 1.6 2 1.8.1.1.3.1.5.1.3 0 .5-.1.7-.2v.5c-.3.2-.6.7-.6 1.3V17c0 3.5-3.9 5.7-9.1 6v-.4zM141 .9V1c.5.2 1 .6 1 1.5V17l-.6.6 2.2 1.8.6-.5-1.8-1.4.3-.3V2.7c.1-1.1-.9-1.7-1.7-1.8m6 20.7c1-.7 2-1.5 2-3V8.8l-1.6-1.6-.6.6 1.4 1.4v9.4c0 1.3-.5 2.3-1.3 2.9l.1.1zM64.6 8.8c1.5-.7 3.8-2.1 5.3-3.2h.3c1 1 2.4 2.7 3.7 3.8v.3l-5.7 3.7v2.3c.6.4 2.2 1.2 3.2 1.5l2.3-2.2.3.3-4.6 4.4h-.3c-1.5-.7-3.5-1.5-4.8-2.2.2-.5.3-1.6.3-3.1V8.8zm5.2 10c-1.5-.7-2.9-1.2-4.1-1.9.1-.5.1-1 .1-2.5V8.6L65 9v5.4c0 1.5 0 2.4-.2 2.9 1.2.7 2.9 1.4 4.5 2.1l.5-.6zm-1.6-5.9l2.5-1.7c-.9-1-1.8-2.1-2.5-2.9v4.6zm.7-5.6l-.7.5C69 8.7 70 9.9 71 11l.7-.5c-.9-1.1-2-2.3-2.8-3.2m10-4.9V16c0 .6.6 1.1 1.1 1.2l.8-.8.2.3-2.9 3H78c-1.1-.2-2.7-1.2-2.7-2.9V4.1l-.8-.8-.9.8-.3-.3L76.6.5h.2l2.1 1.9zm-.3 16.3c-1-.3-2-1-2-2.4V3.5l-1.1-1.2-.6.6.9 1v12.8c0 1.5 1.2 2.4 2.3 2.7l.5-.7zm3.8-9.9c1.5-.7 3.8-2.1 5.3-3.2h.3c1 1 2.4 2.7 3.7 3.8v.3L86 13.4v2.3c.6.4 2.2 1.2 3.2 1.5l2.3-2.2.3.3-4.6 4.4h-.3c-1.5-.7-3.5-1.5-4.8-2.2.2-.5.3-1.6.3-3.1V8.8zm5.2 10c-1.5-.7-2.9-1.2-4.1-1.9.1-.5.1-1 .1-2.5V8.6l-.8.4v5.4c0 1.5 0 2.4-.2 2.9 1.2.7 2.9 1.4 4.5 2.1l.5-.6zM86 12.9l2.5-1.7c-.9-1-1.8-2.1-2.5-2.9v4.6zm.8-5.7l-.7.5c.8.9 1.8 2.1 2.8 3.2l.7-.5c-1-1-2-2.3-2.8-3.2M110 9.3V16c0 .6.5 1.1 1.1 1.2l.8-.8.2.3-2.9 3h-.2c-1.1-.2-2.7-1.2-2.7-2.9V9.1l-.8-.8-.8.8-.3-.3 3.3-3.3h.2l2.1 2v1.1l2.6-3.1h.2c.5.5 1.4 1.3 2.1 1.9v.1l-2.2 2.6h-.1c-.6-.5-1.4-1.3-1.9-1.7l-.7.9zm-.4 9.4c-1.1-.3-2.1-1-2.1-2.4V8.5l-1.1-1.1-.6.6.9 1v7.7c0 1.5 1.2 2.4 2.3 2.7l.6-.7zM111 8.1c.5.4 1.1 1 1.6 1.5l.5-.6c-.5-.5-1.3-1.1-1.6-1.5l-.5.6zm7.3 11.6l-3.2-2.1v-4.1c.8-.6 2.4-1.7 3.2-2.3-1.2-.7-2.3-1.5-2.9-2.3v-.2c1.9-1.1 3.2-2 4.4-3.1h.2s3.9 1.8 4.1 1.9c.2.1.4.2.6.2.3 0 .5-.1.8-.2v.4c-.3.2-.6.6-.6 1.2V16c0 .7.6 1.2 1.1 1.3l.8-.8.2.3-2.9 3h-.2c-1.1-.3-2.4-1.4-2.6-2.7l-2.8 2.7h-.2zm.7-1l-2.6-1.8v-3.8l-.8.6v3.7l2.8 1.9.6-.6zm2.2-6.7V9.8l-3.7-2c-.3.2-1.3.8-1.6 1 .9 1.2 3.2 2.7 5.3 3.2m3.3 6.8c-1-.4-2-1.1-2-2.5V9.1l-3.9-2c-.1.1-.6.4-.7.5l3.8 2v7c0 1.4 1.2 2.4 2.3 2.8l.5-.6zm-3.3-2.2v-4.2c-.8-.2-1.7-.6-2.5-1v5.1l1.5.9 1-.8zm-28.2.9V8.8l4.6-3.2h.3c.9.4 3.8 1.6 4.2 1.8.1.1.3.1.5.1.3 0 .6-.1.9-.2v.5c-.3.2-.6.8-.6 1.2v7.4c0 1.7.4 2.7 1.1 3.4v.3c-1 1-3.4 3.4-4.4 4.7h-.2c-1-.6-2.7-1-4.1-1-1 0-2.2.3-3.1 1l-.2-.2c.8-1.9 2.5-3.7 4.6-3.7 1.4 0 3.1.6 4.6 1.4-1-1.2-2-3.3-2-5.1l-2.7 2.6h-.2L93 17.5zm2.2 5.1c-1 0-1.9.5-2.4 1.2v.1c.6-.3 1.3-.6 2.4-.6 1.4 0 3.1.4 4.1.9l.5-.6c-1.2-.5-2.8-1-4.6-1m1.1-3.3l.6-.6-2.8-1.8V8.5l-.8.6v8.3l3 1.9zm4.1-10.7L96.6 7v.8l3 1.3V17c0 1.7.7 3.5 1.9 4.9l.6-.6c-1-1.3-1.7-2.8-1.7-4.5V8.6zm-1.2 7.9V9.4l-2.6-1.1v8.1l1.6 1.1 1-1zm33.3-7.6l3.4-3.2h.2c.2.2 1.8 1.6 2 1.8.1.1.3.1.5.1.3 0 .5-.1.7-.2v.5c-.3.2-.6.7-.6 1.3v8.3c-1.5.3-2.6 1.1-3.9 2.6h-.1l-2.3-.5v1.8l1.2 1.1-2.8 2.3h-.1l-2.6-2.2.7-.7v-3.1c-.3-.1-.8-.1-1.1-.2v-.4c.3-.1 1.1-.9 1.1-1.6V9.2l-.8-.8-.8.8-.3-.3 3.3-3.3h.2l2 2v1.3zM129.3 22l-.6.5 2.1 1.8.6-.6-1.6-1.4.3-.3V8.6L129 7.5l-.6.5.9 1v13zm5.8-5.1V9.4l-1.2-1.3-1.4 1.3v6.9c.6.2 2.3.5 2.6.6m-.4 2.7c.1-.2.4-.5.6-.7l-2.8-.6v.8l2.2.5zm-.6-11.7l1.4 1.4v7.6l.8-.5V8.8l-1.6-1.6-.6.7zm-133 4.2c0-3.3 2.5-5.6 4.9-6.7l.2.2c-.9 1-1.5 1.9-1.5 4 0 2.3.6 3.9 1.6 5 .3-.3.5-.9.5-1.4V9.7l4.2-3 .2.2c-.4.5-.6 1-.6 1.8v2.2c0 1.5-2.5 3.2-4.1 3.8 1 1 2.5 1.4 4.1 1.4.6 0 1.1 0 1.6-.1V6.4c-1.5 0-2.8-.4-4-.7C6.9 5.3 5.6 5 4.5 5 2.8 5 .7 5.5.7 8c0 .2 0 .5.1.7l-.3.1C.2 8.1 0 7.3 0 6.6 0 3.6 2.2 1 5.7 1c1.5 0 2.9.4 4.1.7 1.3.4 2.6.7 4 .7.7 0 1.1-.3 1.1-1 0-.6-.3-1-.8-1.1V0c1.5.3 3.2 1.2 3.2 3.1 0 2.3-1.7 3.4-4.5 3.4h-.3V16c1.9-.3 3.1-1.2 4-2.7l.3.2c-1 3.3-3.4 6.4-7.7 6.4-4.5 0-8-2.6-8-7.8m11.6-6.8c-3.1 0-5.9-1.5-8.2-1.5-1.5 0-3.2.6-3.8 2.3h.1c.7-1.2 2.3-1.5 3.7-1.5 2.3 0 5.1 1.5 8.2 1.5 2.5 0 4-.9 4.2-2.9h-.1c-.3 1.6-1.5 2.1-4.1 2.1M3.8 7.2C2.6 8.4 1.5 10 1.5 12.1c0 4.9 3.3 7.4 7.5 7.4 2.6 0 4.4-1.4 5.5-2.5l-.1-.1c-1.2 1-2.9 1.8-5.4 1.8-3.4 0-6.6-2.1-6.6-6.6 0-1.8.6-3.6 1.4-4.9zm4.1 5.7V9.3l-.8.5v3.4c0 .4-.1.7-.2.9H7c.5-.3.9-.8.9-1.2m39.4-.8c0-3.3 2.5-5.6 4.9-6.7l.2.2c-.9 1-1.5 1.9-1.5 4 0 2.3.6 3.9 1.6 5 .3-.3.5-.9.5-1.4V9.7l4.2-3 .2.2c-.4.5-.6 1-.6 1.8v2.2c0 1.5-2.5 3.2-4.1 3.8 1 1 2.5 1.4 4.1 1.4.6 0 1.1 0 1.6-.1V6.4c-1.4-.1-2.7-.5-3.9-.8-1.3-.3-2.6-.6-3.8-.6-1.7 0-3.7.5-3.8 3 0 .2 0 .5.1.7l-.3.1c-.3-.8-.5-1.5-.5-2.3 0-3 2.2-5.6 5.7-5.6 1.5 0 2.9.4 4.1.7 1.3.4 2.6.7 4 .7.7 0 1.1-.3 1.1-1 0-.6-.3-1-.8-1.1V0c1.5.3 3.2 1.2 3.2 3.1 0 2.3-1.7 3.4-4.5 3.4h-.3V16c1.9-.3 3.1-1.2 4-2.7l.3.2c-1 3.3-3.4 6.4-7.7 6.4-4.4 0-8-2.6-8-7.8M59 5.3c-3.1 0-5.9-1.5-8.2-1.5-1.5 0-3.2.6-3.8 2.3h.1c.7-1.2 2.3-1.5 3.7-1.5 2.3 0 5.1 1.5 8.2 1.5 2.5 0 4-.9 4.2-2.9h-.1c-.4 1.6-1.6 2.1-4.1 2.1m-9 1.9c-1.2 1.2-2.3 2.8-2.3 4.9 0 4.9 3.3 7.4 7.5 7.4 2.6 0 4.4-1.4 5.5-2.5l-.1-.1c-1.2 1-2.9 1.8-5.4 1.8-3.4 0-6.6-2.1-6.6-6.6 0-1.8.6-3.6 1.4-4.9zm4.2 5.7V9.3l-.8.6v3.4c0 .4-.1.7-.2.9h.1c.5-.4.9-.9.9-1.3"/></svg>