<svg enable-background="new 0 0 53.8 269.9" viewBox="0 0 53.8 269.9" xmlns="http://www.w3.org/2000/svg" xmlns:xlink="http://www.w3.org/1999/xlink"><linearGradient id="a" gradientUnits="userSpaceOnUse" x1="9.3664" x2="145.3506" y1="116.5186" y2="223.1873"><stop offset="0" stop-color="#d0c4d7"/><stop offset="1" stop-color="#714f87"/></linearGradient><path d="m33.2 260.6c-11.3-6.5-20.4-22.4-20.4-35.3 0-9.5 4.9-14.8 11.9-14.5l-11.5-204.4 12.9-6.4 17.2 9.9-1.3 210.9c7 7.8 11.8 18.7 11.8 28.2 0 6.5-2.3 11-6 13.2l-13.9 6.8z" fill="url(#a)"/><path d="m52 238.3c-2.1-6.5-5.5-12.4-10-17.5l-12.8 6.4 6.2 19.8z" fill="#f5f3f7"/><path d="m30.4 16.3-1.3 210.9c7 7.8 11.8 18.7 11.8 28.2 0 13-9.2 18.2-20.5 11.7s-20.4-22.4-20.4-35.4c0-9.5 4.9-14.8 11.9-14.5l1.3-210.8z" fill="#f5f3f7"/><path d="m29.6 264.3c-2.3-.1-4.5-.8-6.4-2.1-9.6-5.5-17.6-19.5-17.6-30.5 0-3.3.8-8 5.8-8.9 2.4-.4 6.1.9 6.1.9l1.3-162.5 6 3.5-1.3 164.6 1.4 1.6c6.3 7 10.4 16.6 10.4 24.4 0 3.4-.7 9-5.7 9z" fill="#06b3bb"/><path d="m30.4 16.3 12.9-6.4-17.2-9.9-12.9 6.4z" fill="#fff"/></svg>