<svg enable-background="new 0 0 30 30" viewBox="0 0 30 30" xmlns="http://www.w3.org/2000/svg"><g fill="#1da1f2"><path d="m11.9 21.8c5.4 0 9.8-4.3 9.8-9.7v-.1c0-.1 0-.3 0-.4.7-.5 1.3-1.1 1.7-1.8-.6.3-1.3.5-2 .5.7-.4 1.3-1.1 1.5-1.9-.7.4-1.4.7-2.2.8-1.3-1.4-3.5-1.4-4.9-.1-.9.8-1.3 2.1-1 3.3-2.8-.1-5.4-1.5-7.1-3.7-.9 1.6-.4 3.6 1.1 4.6-.5 0-1.1-.2-1.6-.4 0 1.7 1.2 3.1 2.8 3.4-.5.2-1.1.2-1.6.1.5 1.4 1.8 2.4 3.2 2.4-1.2 1-2.7 1.5-4.3 1.5-.3 0-.5 0-.8 0 1.7 1 3.5 1.6 5.4 1.5"/><path d="m27.9 7.3-.7.7c3.9 6.8 1.6 15.4-5.2 19.3s-15.4 1.5-19.3-5.2-1.5-15.4 5.2-19.3c4.4-2.5 9.9-2.5 14.2.1l.7-.7c-7-4.3-16.2-2.1-20.6 4.9s-2.1 16.3 4.9 20.7 16.3 2.1 20.6-4.9c3-4.8 3-10.8.2-15.6z"/><path d="m24.9 0-.5.5 3.7.8-3.9 3.9.7.7 3.8-3.9.9 3.6.4-.5v-5.1z"/></g></svg>