<svg viewBox="0 0 263.66 477.15" xmlns="http://www.w3.org/2000/svg" xmlns:xlink="http://www.w3.org/1999/xlink"><linearGradient id="a" gradientUnits="userSpaceOnUse" x1="124.45" x2="169.37" y1="58.02" y2="97.73"><stop offset="0" stop-color="#d0c4d7"/><stop offset="1" stop-color="#714f87"/></linearGradient><linearGradient id="b" x1="169.71" x2="202.27" xlink:href="#a" y1="114.42" y2="143.21"/><linearGradient id="c" x1="150.02" x2="186.5" xlink:href="#a" y1="162.06" y2="194.31"/><linearGradient id="d" x1="163.54" x2="197.33" xlink:href="#a" y1="193.57" y2="223.44"/><linearGradient id="e" x1="190.18" x2="528.87" xlink:href="#a" y1="276.35" y2="575.76"/><linearGradient id="f" x1="254.63" x2="319.6" xlink:href="#a" y1="401.31" y2="458.75"/><linearGradient id="g" x1="253.94" x2="274.37" xlink:href="#a" y1="455.36" y2="473.42"/><linearGradient id="h" x1="70.34" x2="86.59" xlink:href="#a" y1="162.62" y2="178.98"/><path d="m66.84 165.91 17.65 46.22-.03 13.35-17.32 9.85-21.26-41.81-5.57 3.18 3.69 6.4-8.78 5.01-1.84-41.67 17.31-9.86z" fill="#7489c3"/><path d="m52.5 32.96-.09 29.04-17.31 9.85-10.42-35.1 17.31-9.85z" fill="#33bdc7"/><path d="m71.37 39.15 5.92 3.69-.07 25.26 7.42 4.28-.01 3.54-17.32 9.86-7.41-7.82-5.85-28.95z" fill="#33bdc7"/><path d="m59.97 52.7 17.32-9.86-.07 25.26-17.32 9.86z" fill="#516cb4"/><path d="m76.14 2.54-.06 22.2-19.03 10.85-6.14-10.64 3.5-15.09 17.32-9.86z" fill="#38c2c9"/><path d="m141.42 33.85-16.13 25.43-.04 13.45 53.29 30.77-.03 12.28-19.63 34.05-.04 14.93-17.32 9.86-8.99-15.4 39.86 23.01-.04 13.11-32.18 23.89-16.25-9.38-10.94 6.24-18.35-31.8 15.71-8.96.04-11.11-6.34-10.98-14.15-8.17-.08 25.89-17.32 9.85.08-25.89-.89-42.47.07-23.65 15.14-8.63.03-10.79-5.78-3.33 3.96-44.85 17.32-9.86z" fill="#f5f3f7"/><path d="m172.35 195.34 56.35 155.13-7.76 4.42 42.72 24.66-.1 34.23-30.68 17.49 29.83 17.22-.02 4.07-25.86 14.74-101.11-58.38-.03 11.62-25.71-14.85-10.58 7.2 2.17-26.77 17.32-9.86 26.72 15.43 10.46-15.57-22.8 4.7-18.93-32.79-37.95-8.03 17.31-9.86 29.4-9.63-30.83-36.67 17.32-9.86 38.32 22.12-7.85-38.61 14.97-52.29z" fill="#fff"/><path d="m84.64 72.38-17.32 9.86-.01 3.54 17.32-9.86z" fill="#516cb4"/><path d="m35.1 71.85.08-29.03 17.32-9.86-.09 29.04z" fill="#516cb4"/><path d="m26.68 212.96 5.61-3.14-3.72-6.44-5.58 3.18z" fill="#7489c3"/><path d="m49.52 175.76 17.65 46.22-.03 13.35-15.14 8.63-23.43-40.58-5.58 3.18 3.69 6.4-8.78 5.01-17.9-31.01 33.38-20.52z" fill="#516cb3"/><g fill="#06b3bb"><path d="m35.18 42.82-.08 29.03-4.06-2.34-6.36-32.76z"/><path d="m54.05 49.01 5.92 3.69-.07 25.26 7.42 4.28-.01 3.54-6.88 3.92-19.26-33.35z"/><path d="m58.82 12.4-.06 22.2-19.03 10.84-6.14-10.63.03-12.63 20.79-12.32z"/></g><path d="m124.1 43.71-16.13 25.43-.04 13.44 53.3 30.77-.04 12.29-19.63 34.04-.04 14.94-26.31-5.55 39.86 23.02-.04 13.11-32.18 23.89-16.25-9.38-10.94 6.23-18.35-31.79 15.72-8.96.03-11.12-6.34-10.97-14.15-8.18-.08 25.89-4.04-2.33.14-47.96-14.23-8.21.07-23.66 15.14-8.62.03-10.79-5.77-3.34.03-12.94 21.24-41.76z" fill="#fff"/><path d="m155.03 205.2 56.35 155.12-7.75 4.42 42.71 24.67-.09 34.23-30.69 17.48 29.83 17.23-.01 4.06-25.87 14.74-101.11-58.37-.03 11.61-25.71-14.84-10.58 7.19-16.9-9.75 36.39-26.87 26.72 15.42 10.46-15.57-22.8 4.71-18.93-32.79-9.99 2.54-10.64-20.43 29.39-9.64-13.51-46.52 38.32 22.12-7.85-38.62.11-38.25z" fill="#f5f3f7"/><path d="m124.1 43.71 17.32-9.86-16.13 25.43-.04 13.45-17.32 9.85.04-13.44z" fill="url(#a)"/><path d="m178.54 103.5-17.31 9.85-.04 12.29 17.32-9.86z" fill="url(#b)"/><path d="m158.88 149.83-17.32 9.85-.04 14.94 17.32-9.86z" fill="url(#c)"/><path d="m155.07 192.09 17.32-9.86-.04 13.11-17.32 9.86z" fill="url(#d)"/><path d="m228.7 350.47-17.32 9.85-56.35-155.12 17.32-9.86z" fill="url(#e)"/><path d="m246.34 389.41 17.32-9.86-.1 34.23-17.31 9.86z" fill="url(#f)"/><path d="m262.71 448.49-.02 4.07-17.31 9.85.01-4.06z" fill="url(#g)"/><path d="m72.49 180.81 17.32-9.85v-2.51l-3.09-5.35-14.15-8.18z" fill="url(#h)"/><path d="m76.14 2.54-17.32 9.86-.06 22.2 17.32-9.86z" fill="#516cb4"/></svg>