<svg viewBox="0 0 476.84 414.57" xmlns="http://www.w3.org/2000/svg"><path d="m323.55 413s9.08-5.27 11.43-6.58c3.83-2.13 6.26-6.7 6.28-13.34 0-13.07-9.16-29-20.52-35.54-5.77-3.33-11-3.59-14.74-1.38-2.48 1.46-12.08 7-12.08 7z" fill="#516cb4"/><path d="m308.78 364.45c11.36 6.55 20.55 22.47 20.52 35.55s-9.29 18.32-20.65 11.76-20.56-22.47-20.52-35.53 9.28-18.34 20.65-11.78z" fill="#06b3bb"/><path d="m317.88 407.54a11.79 11.79 0 0 1 -5.72-1.88c-9.24-5.34-17-18.81-17-29.42 0-6.59 2.76-7.58 4.38-7.58a11.74 11.74 0 0 1 5.72 1.88c9.25 5.34 17 18.82 17 29.43-.01 6.58-2.75 7.57-4.38 7.57z" fill="#f5f3f7"/><path d="m85.48 275.4s9.07-5.27 11.42-6.58c3.83-2.13 6.26-6.7 6.28-13.34 0-13.07-9.15-29-20.52-35.54-5.77-3.33-11-3.59-14.74-1.38-2.48 1.46-12.08 7-12.08 7z" fill="#516cb4"/><path d="m70.7 226.83c11.37 6.56 20.56 22.47 20.52 35.54s-9.29 18.32-20.65 11.76-20.57-22.47-20.52-35.53 9.28-18.33 20.65-11.77z" fill="#06b3bb"/><path d="m79.8 269.92a11.79 11.79 0 0 1 -5.72-1.92c-9.24-5.34-17-18.81-17-29.42 0-6.6 2.75-7.58 4.38-7.58a11.79 11.79 0 0 1 5.72 1.88c9.24 5.34 17 18.81 17 29.43-.01 6.62-2.75 7.61-4.38 7.61z" fill="#f5f3f7"/><path d="m471.06 302.76-101.77-154.18-257.42-148.58-111.87 65.17v139.46l45.55 26.43c2.27-7.76 8.1-12.6 15.92-12.6a24.07 24.07 0 0 1 12 3.57c12.62 7.28 22.53 23.97 23.23 38.65l186.86 108.25c2.22-7.9 8.09-12.85 16-12.85a24.07 24.07 0 0 1 12 3.57c12.7 7.33 22.68 24.21 23.24 39l27.56 16 114.49-64.79v-27.86a34.86 34.86 0 0 0 -5.79-19.24z" fill="#38c2c9"/><path d="m307.56 357.72a30.29 30.29 0 0 1 4 1.93c12.7 7.33 22.68 24.21 23.24 39l18.56 10.75 123.49-70.74v-16.66a34.86 34.86 0 0 0 -5.78-19.23l-101.78-154.19-112.12 65.51z" fill="#516cb4"/><path d="m357.43 411.72 4.92 2.85 114.49-64.79v-27.78a34.86 34.86 0 0 0 -5.78-19.23l-113.63 65.12z" fill="#516cb4"/><path d="m357.43 367.89-100.26-153.8-257.17-148.92v139.46l45.55 26.43c2.27-7.76 8.1-12.6 15.92-12.6a24.07 24.07 0 0 1 12 3.57c12.62 7.28 22.53 23.97 23.23 38.65l186.86 108.25c2.22-7.9 8.09-12.85 16-12.85a24.07 24.07 0 0 1 12 3.57c12.7 7.33 22.68 24.21 23.24 39l27.56 16v-30.21a30.31 30.31 0 0 0 -4.93-16.55z" fill="#06b3bb"/><path d="m287 253.77 107.31-61.24 50.24 76.1-107.55 61.82z" fill="#fff"/><g fill="#42145f"><path d="m357.43 367.89-27.13-15.89v29.19a45.83 45.83 0 0 1 4.49 17.38l27.56 16v-30.13a30.31 30.31 0 0 0 -4.92-16.55z"/><path d="m79.08 226c9.84 8.39 17 22.23 17.62 34.64l167.61 97.1v-24.4z"/><path d="m61.47 218.46a21.2 21.2 0 0 1 6.27 1l-67.74-39.27v24.44l45.55 26.43c2.27-7.76 8.1-12.6 15.92-12.6z"/></g><path d="m6.82 155.28-6.82-3.89v28.8l6.82 3.96z" fill="#06b3bb"/><path d="m360.17 335.53-24.29-.7 21.55 33.06 17.23-10.13z" fill="#f5f3f7"/><path d="m449.5 270.1-10.48 20.11 14.67 22.49 17.37-9.91z" fill="#f5f3f7"/><path d="m385.54 363.16 9.02 15.71 63.28-36.49v-20.91z" fill="#42145f"/><path d="m402.13 389.12 47.79-27.19v-9.12l-47.79 27.19z" fill="#fff"/><path d="m248.28 279.79v-40.73l21.72 12.48 44.44 68.18a4.21 4.21 0 0 1 -5.63 5.94l-51.05-29.48a18.92 18.92 0 0 1 -9.48-16.39z" fill="#fff"/><path d="m139 221.41s7.6 13 5.7 26.07" fill="none" stroke="#fff" stroke-miterlimit="10"/><path d="m102.65 159.49s23.79 9.65 34.8 29.77 2.69 34.74 2.69 34.74-15.86 5.48-28.13-16c-9.93-17.34-9.36-48.51-9.36-48.51z" fill="#f5f3f7"/><path d="m151.52 228.08s-6.86 9.7-6.86 19.4" fill="none" stroke="#fff" stroke-miterlimit="10"/><path d="m176.85 184.88s-16.9 4.63-26 18-.11 27.06-.11 27.06 11.6 3.28 22.22-10.32c8.36-10.8 3.89-34.74 3.89-34.74z" fill="#f5f3f7"/></svg>