<svg viewBox="0 0 319.99 432.52" xmlns="http://www.w3.org/2000/svg"><path d="m200.38 394.95 56.42-272.26h-256.17l56.38 272.26z" fill="#f5f3f7"/><path d="m224.31 279.48-190.22 4.78 22.91 110.74c1.64 9.25 8.6 18.26 20.88 25.35 28.22 16.3 73.84 16.3 101.88 0 12.2-7.09 19.06-16.1 20.6-25.35z" fill="#06b3bb"/><path d="m219.36 62.86c50.42 29.14 50.64 76.29.64 105.4s-131.55 29.11-182 0-50.69-76.26-.61-105.4 131.61-29.11 181.97 0z" fill="#fff"/><path d="m196.15 237.53c37.51 21.66 37.7 56.77.44 78.42s-97.88 21.66-135.39.05-37.71-56.77-.44-78.43 97.88-21.7 135.39-.04z" fill="#2bbec5"/><path d="m179.41 361.35c28.2 16.28 28.35 42.68.33 59s-73.6 16.28-101.8 0-28.35-42.68-.33-59 73.59-16.29 101.8 0z" fill="#2bbec5"/><path d="m132.65 408.48-8-2.06 90.43-349.32a21.32 21.32 0 0 1 11.44-13.91l89.91-43.19 3.57 7.41-89.92 43.19a13.14 13.14 0 0 0 -7 8.56z" fill="#516cb4"/></svg>