<?xml version="1.0" encoding="utf-8"?>
<!-- Generator: Adobe Illustrator 22.1.0, SVG Export Plug-In . SVG Version: 6.00 Build 0)  -->
<svg version="1.1" id="Layer_1" xmlns="http://www.w3.org/2000/svg" xmlns:xlink="http://www.w3.org/1999/xlink" x="0px" y="0px"
	 viewBox="0 0 30 30" style="enable-background:new 0 0 30 30;" xml:space="preserve">
<style type="text/css">
	.st0{fill:#25D366;}
</style>
<g>
	<path class="st0" d="M27.9,7.3L27.2,8c3.9,6.8,1.6,15.4-5.2,19.3S6.6,28.9,2.7,22.1S1.1,6.7,7.9,2.8c4.4-2.5,9.9-2.5,14.3,0.1
		l0.7-0.7C15.8-2.1,6.5,0.1,2.2,7.1S0.1,23.4,7.1,27.8s16.3,2.1,20.6-4.9C30.7,18.1,30.7,12.1,27.9,7.3z"/>
	<polygon class="st0" points="24.9,0 24.4,0.5 28.1,1.3 24.2,5.2 24.9,5.9 28.7,2 29.5,5.6 30,5.1 29.9,0 	"/>
	<g id="WA_Logo_1_">
		<path class="st0" d="M21.2,8.8c-3.4-3.4-9-3.3-12.3,0.1c-2.7,2.8-3.3,7-1.4,10.4l-1.3,4.5l4.6-1.2c1.3,0.7,2.7,1.1,4.1,1.1l0,0
			c4.8,0,8.7-3.9,8.8-8.7C23.8,12.6,22.8,10.4,21.2,8.8z M15,22.2L15,22.2c-1.3,0-2.6-0.3-3.7-1L11,21l-2.7,0.7L9,19.1l-0.1-0.3
			c-2.1-3.4-1.1-7.9,2.3-10s7.9-1.1,10,2.3s1.1,7.9-2.3,10C17.7,21.8,16.4,22.2,15,22.2z M19,16.8c-0.2-0.1-1.3-0.6-1.5-0.7
			c-0.2-0.1-0.3-0.1-0.5,0.1c-0.1,0.2-0.6,0.7-0.7,0.9c-0.1,0.1-0.3,0.2-0.5,0.1c-0.6-0.3-1.2-0.7-1.7-1.1c-0.5-0.4-0.9-0.9-1.2-1.5
			c-0.1-0.2,0-0.3,0.1-0.4c0.1-0.1,0.2-0.3,0.3-0.4c0.1-0.1,0.2-0.2,0.2-0.4c0.1-0.1,0.1-0.3,0-0.4c-0.1-0.1-0.5-1.2-0.7-1.6
			s-0.4-0.4-0.5-0.4H12c-0.2,0-0.4,0.1-0.6,0.3c-0.5,0.5-0.8,1.1-0.8,1.8c0.1,0.8,0.4,1.6,0.9,2.2c0.9,1.4,2.2,2.5,3.7,3.3
			c0.4,0.2,0.8,0.3,1.2,0.5c0.4,0.1,0.9,0.2,1.4,0.1c0.6-0.1,1.1-0.5,1.5-1c0.1-0.3,0.2-0.7,0.1-1C19.4,16.9,19.2,16.9,19,16.8
			L19,16.8z"/>
	</g>
</g>
</svg>
