<svg viewBox="0 0 321.3 739.14" xmlns="http://www.w3.org/2000/svg"><path d="m212 194.83h-19.31l-18.31 528.11c0 4.15 2.68 8.29 8.13 11.46s12.64 4.75 19.83 4.74 14.36-1.57 19.82-4.74 8.16-7.31 8.14-11.46z" fill="#fff"/><path d="m198.72 220.91 9.2 517.91a37.3 37.3 0 0 0 14.24-4.42c5.45-3.17 8.16-7.31 8.14-11.46l-17.92-516.52z" fill="#c9c5c5"/><g fill="#fff"><path d="m234.8 136c14.51 8.38 26.24 28.7 26.2 45.38s-11.86 23.42-26.37 15-26.26-28.71-26.22-45.4 11.86-23.41 26.39-14.98z"/><path d="m207.57 224.32 45.74-26.1-37.72-63.78-46.02 26.28z"/><circle cx="188.23" cy="192.73" r="37.07"/></g><path d="m188.23 229.81a36.84 36.84 0 0 0 19.34-5.49l45.63-26h.07c4.73-2.74 7.66-8.57 7.69-16.87a43.71 43.71 0 0 0 -1.5-11c-13.56 8-50.8 29.81-65.93 38.44-18.66 10.65-29.87 0-29.87 0l-4.37 7.1a37 37 0 0 0 28.94 13.82z" fill="#06b3bb"/><path d="m156.91 204.68a68.71 68.71 0 0 1 7.09 4.61c-6.24 7.9-14.66 18-33.8 19.68s-124.57 4.09-130.2 3.74c5-1.28 99.59-31.7 120.56-35.86 11.86-2.35 28.9 3.53 36.35 7.83z" fill="#fff"/><path d="m171.09 212.87a115.59 115.59 0 0 1 31.74 27.82c19.06 23.74 113.5 157.44 118.47 164.47-5.61-6.16-112.23-122.81-131.3-146.55a146.9 146.9 0 0 1 -26-49.32 54.67 54.67 0 0 1 7.09 3.58z" fill="#fff"/><path d="m164.59 0c.62 7.41 12.32 148.13 12.24 173.49s-12.19 35.27-12.83 35.8c-.63-1.26-12.67-25.12-12.6-50.48s12.54-152.14 13.19-158.81z" fill="#fff"/><path d="m173.1 214.24c0-6-4.17-13.23-9.36-16.22-2.68-1.55-5.1-1.65-6.82-.57-13.78 9-13.61 20.49-12.07 22.83 1.36 2.07 12 6.29 25.5 0 1.7-.98 2.75-3.07 2.75-6.04z" fill="#06b3bb"/></svg>