<svg xmlns="http://www.w3.org/2000/svg" viewBox="0 0 240.49 501.23"><defs><style>.cls-1{fill:#06b3bb;}.cls-2{fill:#32bdc7;}.cls-3{fill:#00adb9;}.cls-4{fill:#38c2c9;}.cls-5{fill:#516cb3;}.cls-6{fill:#516cb4;}.cls-7{isolation:isolate;}.cls-8{fill:#33bdc7;}.cls-9{fill:#fff;}.cls-10{fill:#f5f3f7;}</style></defs><title>bag_light</title><g id="Layer_2" data-name="Layer 2"><g id="Layer_3" data-name="Layer 3"><path class="cls-1" d="M43.22.71a45.35,45.35,0,0,0-6.43,2A55.61,55.61,0,0,0,22.46,10.4L36.77,8.15l3.82-4.41C50.27,4,66.13,8.66,66.13,36.35l.09,75.89L74,116.73s.1-62.46.1-80.6C74.11,11.72,61.32-3.54,43.22.71Z"/><path class="cls-2" d="M30.72,397.37l6.35-3.66a58.65,58.65,0,0,0,29.14-49.54V93L.37,130.85,0,379.55A20.49,20.49,0,0,0,30.72,397.37Z"/><polygon class="cls-3" points="240.49 194.03 240.49 445.21 65.39 377.2 66.22 92.93 240.49 194.03"/><polygon class="cls-4" points="175.48 231.94 174.81 477.96 184.05 497.87 11.11 397.83 0 377.17 0.37 130.85 175.48 231.94"/><path class="cls-5" d="M205.47,498.47l6.35-3.66a57.24,57.24,0,0,0,28.67-49.59V194l-65,37.91-.73,248.71A20.49,20.49,0,0,0,205.47,498.47Z"/><polygon class="cls-5" points="66.22 92.93 66.22 168.74 0.37 130.85 66.22 92.93"/><path class="cls-4" d="M203.27,107.47c-18.66,7.72-35.6,27.62-35.6,63l8.9-14.43s8.28-32.45,20.9-41.67Z"/><path class="cls-6" d="M183.26,250.42h-7.79V164.88c0-29.19,9.12-46.54,26.1-56.5,7.93-4.64,18.22-5,26.19-.48a25,25,0,0,1,12.73,22v80.45H232.7V129.86a17.34,17.34,0,0,0-8.81-15.2c-5.52-3.16-12.89-2.76-18.38.45-14.61,8.56-22.25,24-22.25,41Z"/><polyline class="cls-4" points="175.47 156.07 175.47 250.42 167.67 250.42 167.67 169.55"/><path class="cls-6" d="M8.17,135.33l-7.8-4.48.1-76.11A55.88,55.88,0,0,1,28,6.69,25.32,25.32,0,0,1,66.12,28.53l.09,64.9-7.79,4.43-.09-69.33A17.53,17.53,0,0,0,32,13.41,48.08,48.08,0,0,0,8.26,54.74Z"/><path class="cls-4" d="M.47,54.74l-.1,76.11,7.8,4.48s.09-61.69.09-80.59S11.75,18.9,33.59,4.24a29.75,29.75,0,0,0-9.54,5C14.49,16.29.47,30.58.47,54.74Z"/><g class="cls-7"><polygon class="cls-5" points="52.56 279.82 61.56 303.39 61.54 310.19 53.82 314.59 41.88 293.9 39.03 295.52 40.92 298.79 36.44 301.34 27.31 285.53 44.33 275.06 52.56 279.82"/><polygon class="cls-8" points="45.25 212.02 45.2 226.83 43.13 225.63 39.89 208.93 45.25 212.02"/><polygon class="cls-8" points="54.87 215.18 57.89 217.06 57.85 229.94 61.63 232.13 61.63 233.93 58.12 235.93 48.3 218.92 54.87 215.18"/><polygon class="cls-8" points="57.3 196.51 57.27 207.83 47.57 213.36 44.44 207.94 44.45 201.5 55.05 195.22 57.3 196.51"/><polygon class="cls-9" points="90.59 212.48 82.36 225.45 82.34 232.3 109.52 247.99 109.5 254.26 99.5 271.62 99.47 279.23 86.06 276.4 106.38 288.14 106.36 294.83 89.95 307.01 81.67 302.23 76.09 305.4 66.73 289.19 74.74 284.62 74.76 278.95 71.53 273.36 64.31 269.19 64.28 282.39 62.21 281.2 62.28 256.75 55.03 252.56 55.06 240.5 62.78 236.1 62.8 230.6 59.85 228.9 59.87 222.29 70.7 201 90.59 212.48"/><polygon class="cls-10" points="106.36 294.83 135.1 373.93 131.14 376.18 152.93 388.76 152.88 406.21 137.23 415.13 152.44 423.91 152.43 425.99 139.24 433.5 87.69 403.74 87.67 409.66 74.56 402.09 69.16 405.76 60.55 400.78 79.1 387.08 92.73 394.95 98.06 387.01 86.44 389.41 76.78 372.69 71.69 373.98 66.26 363.56 81.25 358.65 74.36 334.93 93.9 346.21 89.9 326.52 89.95 307.01 106.36 294.83"/></g></g></g></svg>