<svg xmlns="http://www.w3.org/2000/svg" xmlns:xlink="http://www.w3.org/1999/xlink" viewBox="0 0 258.12 347.04"><defs><style>.cls-1{fill:#f5f3f7;}.cls-2{fill:url(#linear-gradient);}.cls-3{fill:#fff;}.cls-4{fill:none;stroke:#516cb4;stroke-miterlimit:10;}.cls-5{fill:#06b3bb;}</style><linearGradient id="linear-gradient" x1="167" y1="322.77" x2="212.51" y2="353.14" gradientUnits="userSpaceOnUse"><stop offset="0" stop-color="#d0c4d7"/><stop offset="0.94" stop-color="#714f87"/></linearGradient></defs><title>globe_light</title><g id="Layer_2" data-name="Layer 2"><g id="Layer_3" data-name="Layer 3"><path class="cls-1" d="M61.57,308c.06,10,6.71,20,19.93,27.64,26.44,15.26,69.17,15.26,95.43,0C190.07,328,196.6,318,196.55,308V302.1h-135Z"/><path class="cls-2" d="M141.83,346.35c12.87-1.4,25.17-5,35.1-10.76C190.07,328,196.6,318,196.55,308V302.1H141.83Z"/><path class="cls-3" d="M176.62,274.46c26.45,15.26,26.58,40,.31,55.28s-69,15.27-95.43,0-26.59-40-.32-55.28S150.18,259.19,176.62,274.46Z"/><path class="cls-4" d="M23.81,202.39c.19,66.79,47.47,93.73,105.59,60.17v30"/><circle class="cls-3" cx="129.06" cy="141.63" r="129.06"/><path class="cls-5" d="M239.78,208.55l-10.84-10.84-35.49,31.78L208,244A129.87,129.87,0,0,0,239.78,208.55Z"/><path class="cls-5" d="M98.72,249.1l-9.29,9.29H74.36a129.51,129.51,0,0,0,87.3,8.23v-4.93H111.31Z"/><path class="cls-5" d="M35.61,230.64l-6.85-31.19,5.84-23.61V144.05L3.26,112.7A129.26,129.26,0,0,0,35.61,230.64Z"/><path class="cls-5" d="M9.81,92.1,63,52V37.15H78.72V45l37.56-19.4L98.79,16.13A129.34,129.34,0,0,0,9.81,92.1Z"/><path class="cls-4" d="M128.72,15.58C70.59,49.14,23.62,135.6,23.81,202.39c.14,49.28,25.92,76.87,62.78,74.46"/><line class="cls-4" x1="128.72" x2="128.72" y2="20.69"/><path class="cls-5" d="M246.67,89.16,231,76.63V72.81l7.18-.07A129,129,0,0,0,198.5,32.61H141.44L115,49.12v7.43H95L83.65,76.36H124.1L139,99.89h-23.7L106,85.44H79.52L54.76,123.8v11.76H90.81v80.31h7.58l46.35-70.71v-15L139,115.57h8.26l14.86,35.09L184,129.19l7.84,6.37L183.68,145l17.19,17.65V147.35l6.86-9.49h5.53v9.91l15.27,12V139.1H243.7v-14l-10-23.87h13Z"/></g></g></svg>