<svg xmlns="http://www.w3.org/2000/svg" xmlns:xlink="http://www.w3.org/1999/xlink" viewBox="0 0 430.64 304.68"><defs><style>.cls-1{fill:#06b3bb;}.cls-2{fill:#516cb4;}.cls-3{fill:#f5f3f7;}.cls-4{fill:#fff;}.cls-5{fill:url(#linear-gradient);}.cls-6{fill:url(#linear-gradient-2);}.cls-7{fill:#42145f;}</style><linearGradient id="linear-gradient" x1="15.86" y1="215.59" x2="159.03" y2="318.04" gradientUnits="userSpaceOnUse"><stop offset="0" stop-color="#d0c4d7"/><stop offset="1" stop-color="#714f87"/></linearGradient><linearGradient id="linear-gradient-2" x1="373.77" y1="52.69" x2="465.35" y2="119.72" xlink:href="#linear-gradient"/></defs><title>hands_shaking_light</title><g id="Layer_2" data-name="Layer 2"><g id="Layer_3" data-name="Layer 3"><path class="cls-1" d="M341.33,131h0a12.68,12.68,0,0,1,11.52,18L310.93,240a27.54,27.54,0,0,1-25.77,16L172.35,253Z"/><path class="cls-2" d="M430.62,34l-47.27-31L256.62,76.48,200.26,93.22l28.39,21.27L171,243a15.65,15.65,0,0,1-15.42,9.2h0a15.79,15.79,0,0,0,14.5,15.74l88.28,6.91a25.08,25.08,0,0,0,24.59-14.2l66.67-139.52,81-44.84Z"/><path class="cls-1" d="M2.6,222.92l120.11-68,67.15-61.72h121a21.27,21.27,0,0,1-21.27,21.27H228.65L169.78,245.66a11.42,11.42,0,0,1-11.25,6.71L130,250.44,46.68,299Z"/><polygon class="cls-3" points="46.82 248.3 46.68 304.67 0 278.03 0.14 221.66 46.82 248.3"/><polygon class="cls-4" points="107.35 214.02 46.82 248.3 0.13 221.58 60.81 187.22 107.35 214.02"/><polygon class="cls-4" points="430.63 26.8 370.1 61.08 323.41 34.35 384.09 0 430.63 26.8"/><polyline class="cls-4" points="107.35 214.02 46.82 248.3 46.68 304.68 107.21 270.39 107.35 214.02"/><polyline class="cls-5" points="107.35 214.02 46.82 248.3 46.68 304.68 107.21 270.39 107.35 214.02"/><polyline class="cls-6" points="430.64 26.79 370.11 61.07 369.97 117.45 430.5 83.16 430.64 26.79"/><path class="cls-7" d="M93,242c3-1.75,5.51-.34,5.52,3.16a12.1,12.1,0,0,1-5.49,9.5c-3,1.76-5.52.35-5.53-3.15A12.1,12.1,0,0,1,93,242Z"/><path class="cls-7" d="M382.37,74.77c3-1.75,5.51-.34,5.52,3.16a12.09,12.09,0,0,1-5.48,9.5c-3.05,1.76-5.52.35-5.53-3.14A12.12,12.12,0,0,1,382.37,74.77Z"/><polygon class="cls-2" points="323.41 34.35 323.41 37.62 326.27 35.99 323.41 34.35"/><polygon class="cls-4" points="369.97 117.45 363.56 113.57 369.97 110 369.97 117.45"/></g></g></svg>