<svg xmlns="http://www.w3.org/2000/svg" xmlns:xlink="http://www.w3.org/1999/xlink" viewBox="0 0 53.78 399.88"><defs><style>.cls-1{fill:url(#linear-gradient);}.cls-2{fill:#f5f3f7;}.cls-3{fill:#06b3bb;}.cls-4{fill:#fff;}</style><linearGradient id="linear-gradient" x1="-0.15" y1="174.08" x2="194.58" y2="326.83" gradientUnits="userSpaceOnUse"><stop offset="0" stop-color="#d0c4d7"/><stop offset="1" stop-color="#714f87"/></linearGradient></defs><title>thermometre_light</title><g id="Layer_2" data-name="Layer 2"><g id="Layer_3" data-name="Layer 3"><path class="cls-1" d="M33.24,390.65c-11.3-6.53-20.44-22.35-20.4-35.33,0-9.46,4.91-14.78,11.93-14.47L13.24,6.42,26.08,0,43.26,9.92,42,350.77C49,358.55,53.8,369.5,53.78,379c0,6.49-2.33,11.05-6.05,13.17L33.92,399Z"/><path class="cls-2" d="M52,368.26a49,49,0,0,0-10-17.49l-12.84,6.42L35.36,377Z"/><path class="cls-2" d="M30.42,16.34l-1.3,340.85c7,7.78,11.84,18.73,11.82,28.18,0,13-9.23,18.23-20.54,11.7S0,374.72,0,361.74c0-9.46,4.91-14.78,11.93-14.47L13.24,6.42Z"/><path class="cls-3" d="M29.59,394.3a13.44,13.44,0,0,1-6.4-2.06c-9.58-5.53-17.64-19.49-17.61-30.49,0-3.33.85-8,5.77-8.92,2.43-.44,6.14.9,6.14.9l1.3-262.55,6,3.49-1.3,264.65,1.44,1.6c6.33,7,10.41,16.63,10.39,24.44C35.35,388.7,34.58,394.3,29.59,394.3Z"/><polygon class="cls-4" points="30.42 16.34 43.26 9.92 26.08 0 13.24 6.42 30.42 16.34"/></g></g></svg>