<?xml version="1.0" encoding="utf-8"?>
<!-- Generator: Adobe Illustrator 22.1.0, SVG Export Plug-In . SVG Version: 6.00 Build 0)  -->
<svg version="1.1" id="Layer_1" xmlns="http://www.w3.org/2000/svg" xmlns:xlink="http://www.w3.org/1999/xlink" x="0px" y="0px"
	 viewBox="0 0 53.8 269.9" style="enable-background:new 0 0 53.8 269.9;" xml:space="preserve">
<style type="text/css">
	.st0{fill:url(#SVGID_1_);}
	.st1{fill:#F5F3F7;}
	.st2{fill:#06B3BB;}
	.st3{fill:#FFFFFF;}
</style>
<title>thermometre_light</title>
<g id="Layer_2_1_">
	<g id="Layer_3">
		
			<linearGradient id="SVGID_1_" gradientUnits="userSpaceOnUse" x1="9.3664" y1="1894.5186" x2="145.3506" y2="2001.1873" gradientTransform="matrix(1 0 0 1 0 -1778)">
			<stop  offset="0" style="stop-color:#D0C4D7"/>
			<stop  offset="1" style="stop-color:#714F87"/>
		</linearGradient>
		<path class="st0" d="M33.2,260.6c-11.3-6.5-20.4-22.4-20.4-35.3c0-9.5,4.9-14.8,11.9-14.5L13.2,6.4L26.1,0l17.2,9.9L42,220.8
			c7,7.8,11.8,18.7,11.8,28.2c0,6.5-2.3,11-6,13.2L33.9,269L33.2,260.6z"/>
		<path class="st1" d="M52,238.3c-2.1-6.5-5.5-12.4-10-17.5l-12.8,6.4l6.2,19.8L52,238.3z"/>
		<path class="st1" d="M30.4,16.3l-1.3,210.9c7,7.8,11.8,18.7,11.8,28.2c0,13-9.2,18.2-20.5,11.7S0,244.7,0,231.7
			c0-9.5,4.9-14.8,11.9-14.5L13.2,6.4L30.4,16.3z"/>
		<path class="st2" d="M29.6,264.3c-2.3-0.1-4.5-0.8-6.4-2.1c-9.6-5.5-17.6-19.5-17.6-30.5c0-3.3,0.8-8,5.8-8.9
			c2.4-0.4,6.1,0.9,6.1,0.9l1.3-162.5l6,3.5l-1.3,164.6l1.4,1.6c6.3,7,10.4,16.6,10.4,24.4C35.3,258.7,34.6,264.3,29.6,264.3z"/>
		<polygon class="st3" points="30.4,16.3 43.3,9.9 26.1,0 13.2,6.4 		"/>
	</g>
</g>
</svg>
