<svg xmlns="http://www.w3.org/2000/svg" xmlns:xlink="http://www.w3.org/1999/xlink" viewBox="0 0 263.66 477.15"><defs><style>.cls-1{isolation:isolate;}.cls-2{fill:#7489c3;}.cls-3{fill:#33bdc7;}.cls-4{fill:#516cb4;}.cls-5{fill:#38c2c9;}.cls-6{fill:#f5f3f7;}.cls-7{fill:#fff;}.cls-8{fill:#516cb3;}.cls-9{fill:#06b3bb;}.cls-10{fill:url(#linear-gradient);}.cls-11{fill:url(#linear-gradient-2);}.cls-12{fill:url(#linear-gradient-3);}.cls-13{fill:url(#linear-gradient-4);}.cls-14{fill:url(#linear-gradient-5);}.cls-15{fill:url(#linear-gradient-6);}.cls-16{fill:url(#linear-gradient-7);}.cls-17{fill:url(#linear-gradient-8);}</style><linearGradient id="linear-gradient" x1="124.45" y1="58.02" x2="169.37" y2="97.73" gradientUnits="userSpaceOnUse"><stop offset="0" stop-color="#d0c4d7"/><stop offset="1" stop-color="#714f87"/></linearGradient><linearGradient id="linear-gradient-2" x1="169.71" y1="114.42" x2="202.27" y2="143.21" xlink:href="#linear-gradient"/><linearGradient id="linear-gradient-3" x1="150.02" y1="162.06" x2="186.5" y2="194.31" xlink:href="#linear-gradient"/><linearGradient id="linear-gradient-4" x1="163.54" y1="193.57" x2="197.33" y2="223.44" xlink:href="#linear-gradient"/><linearGradient id="linear-gradient-5" x1="190.18" y1="276.35" x2="528.87" y2="575.76" xlink:href="#linear-gradient"/><linearGradient id="linear-gradient-6" x1="254.63" y1="401.31" x2="319.6" y2="458.75" xlink:href="#linear-gradient"/><linearGradient id="linear-gradient-7" x1="253.94" y1="455.36" x2="274.37" y2="473.42" xlink:href="#linear-gradient"/><linearGradient id="linear-gradient-8" x1="70.34" y1="162.62" x2="86.59" y2="178.98" xlink:href="#linear-gradient"/></defs><title>uk_light</title><g id="Layer_2" data-name="Layer 2"><g id="Layer_3" data-name="Layer 3"><g class="cls-1"><polygon class="cls-2" points="66.84 165.91 84.49 212.13 84.46 225.48 67.14 235.33 45.88 193.52 40.31 196.7 44 203.1 35.22 208.11 33.38 166.44 50.69 156.58 66.84 165.91"/><polygon class="cls-3" points="52.5 32.96 52.41 62 35.1 71.85 24.68 36.75 41.99 26.9 52.5 32.96"/><polygon class="cls-3" points="71.37 39.15 77.29 42.84 77.22 68.1 84.64 72.38 84.63 75.92 67.31 85.78 59.9 77.96 54.05 49.01 71.37 39.15"/><polygon class="cls-4" points="59.97 52.7 77.29 42.84 77.22 68.1 59.9 77.96 59.97 52.7"/><polygon class="cls-5" points="76.14 2.54 76.08 24.74 57.05 35.59 50.91 24.95 54.41 9.86 71.73 0 76.14 2.54"/><polygon class="cls-6" points="141.42 33.85 125.29 59.28 125.25 72.73 178.54 103.5 178.51 115.78 158.88 149.83 158.84 164.76 141.52 174.62 132.53 159.22 172.39 182.23 172.35 195.34 140.17 219.23 123.92 209.85 112.98 216.09 94.63 184.29 110.34 175.33 110.38 164.22 104.04 153.24 89.89 145.07 89.81 170.96 72.49 180.81 72.57 154.92 71.68 112.45 71.75 88.8 86.89 80.17 86.92 69.38 81.14 66.05 85.1 21.2 102.42 11.34 141.42 33.85"/><polygon class="cls-7" points="172.35 195.34 228.7 350.47 220.94 354.89 263.66 379.55 263.56 413.78 232.88 431.27 262.71 448.49 262.69 452.56 236.83 467.3 135.72 408.92 135.69 420.54 109.98 405.69 99.4 412.89 101.57 386.12 118.89 376.26 145.61 391.69 156.07 376.12 133.27 380.82 114.34 348.03 76.39 340 93.7 330.14 123.1 320.51 92.27 283.84 109.59 273.98 147.91 296.1 140.06 257.49 155.03 205.2 172.35 195.34"/></g><polygon class="cls-4" points="84.64 72.38 67.32 82.24 67.31 85.78 84.63 75.92 84.64 72.38"/><polygon class="cls-4" points="35.1 71.85 35.18 42.82 52.5 32.96 52.41 62 35.1 71.85"/><g class="cls-1"><polygon class="cls-2" points="26.68 212.96 32.29 209.82 28.57 203.38 22.99 206.56 26.68 212.96"/><polygon class="cls-8" points="49.52 175.76 67.17 221.98 67.14 235.33 52 243.96 28.57 203.38 22.99 206.56 26.68 212.96 17.9 217.97 0 186.96 33.38 166.44 49.52 175.76"/><polygon class="cls-9" points="35.18 42.82 35.1 71.85 31.04 69.51 24.68 36.75 35.18 42.82"/><polygon class="cls-9" points="54.05 49.01 59.97 52.7 59.9 77.96 67.32 82.24 67.31 85.78 60.43 89.7 41.17 56.35 54.05 49.01"/><polygon class="cls-9" points="58.82 12.4 58.76 34.6 39.73 45.44 33.59 34.81 33.62 22.18 54.41 9.86 58.82 12.4"/><polygon class="cls-7" points="124.1 43.71 107.97 69.14 107.93 82.58 161.23 113.35 161.19 125.64 141.56 159.68 141.52 174.62 115.21 169.07 155.07 192.09 155.03 205.2 122.85 229.09 106.6 219.71 95.66 225.94 77.31 194.15 93.03 185.19 93.06 174.07 86.72 163.1 72.57 154.92 72.49 180.81 68.45 178.48 68.59 130.52 54.36 122.31 54.43 98.65 69.57 90.03 69.6 79.24 63.83 75.9 63.86 62.96 85.1 21.2 124.1 43.71"/><polygon class="cls-6" points="155.03 205.2 211.38 360.32 203.63 364.74 246.34 389.41 246.25 423.64 215.56 441.12 245.39 458.35 245.38 462.41 219.51 477.15 118.4 418.78 118.37 430.39 92.66 415.55 82.08 422.74 65.18 412.99 101.57 386.12 128.29 401.54 138.75 385.97 115.95 390.68 97.02 357.89 87.03 360.43 76.39 340 105.78 330.36 92.27 283.84 130.59 305.96 122.74 267.34 122.85 229.09 155.03 205.2"/></g><polygon class="cls-10" points="124.1 43.71 141.42 33.85 125.29 59.28 125.25 72.73 107.93 82.58 107.97 69.14 124.1 43.71"/><polygon class="cls-11" points="178.54 103.5 161.23 113.35 161.19 125.64 178.51 115.78 178.54 103.5"/><polygon class="cls-12" points="158.88 149.83 141.56 159.68 141.52 174.62 158.84 164.76 158.88 149.83"/><polygon class="cls-13" points="155.07 192.09 172.39 182.23 172.35 195.34 155.03 205.2 155.07 192.09"/><polygon class="cls-14" points="228.7 350.47 211.38 360.32 155.03 205.2 172.35 195.34 228.7 350.47"/><polygon class="cls-15" points="246.34 389.41 263.66 379.55 263.56 413.78 246.25 423.64 246.34 389.41"/><polygon class="cls-16" points="262.71 448.49 262.69 452.56 245.38 462.41 245.39 458.35 262.71 448.49"/><polygon class="cls-17" points="72.49 180.81 89.81 170.96 89.81 168.45 86.72 163.1 72.57 154.92 72.49 180.81"/><polygon class="cls-4" points="76.14 2.54 58.82 12.4 58.76 34.6 76.08 24.74 76.14 2.54"/></g></g></svg>