<svg xmlns="http://www.w3.org/2000/svg" viewBox="0 0 482.19 366.94"><defs><style>.cls-1{fill:#516cb4;}.cls-2{fill:#06b3bb;}.cls-3{fill:#f5f3f7;}.cls-4{fill:#2bbec5;}.cls-5{fill:#42145f;}.cls-6{fill:#fff;}</style></defs><title>car_light</title><g id="Layer_2" data-name="Layer 2"><g id="Layer_3" data-name="Layer 3"><path class="cls-1" d="M305.41,364.69s13.18-7.64,16.59-9.54c5.55-3.1,9.08-9.74,9.11-19.38.05-19-13.29-42.06-29.78-51.58-8.38-4.84-15.93-5.21-21.4-2-3.61,2.12-17.54,10.11-17.54,10.11Z"/><path class="cls-2" d="M284,294.19c16.49,9.52,29.83,32.62,29.78,51.58s-13.48,26.6-30,17.08S253.93,330.23,254,311.27,267.46,284.66,284,294.19Z"/><path class="cls-3" d="M297.18,356.73c-1.63,0-4.4-.47-8.3-2.73-13.42-7.74-24.73-27.3-24.68-42.7,0-9.57,4-11,6.36-11,1.63,0,4.39.47,8.3,2.73,13.42,7.75,24.72,27.31,24.68,42.71C303.51,355.31,299.54,356.73,297.18,356.73Z"/><path class="cls-1" d="M71.79,230.3s13.18-7.65,16.59-9.55c5.55-3.1,9.08-9.74,9.11-19.38.05-19-13.29-42.06-29.78-51.58-8.38-4.84-15.94-5.21-21.4-2-3.61,2.12-17.54,10.11-17.54,10.11Z"/><path class="cls-2" d="M50.34,159.79c16.5,9.52,29.84,32.62,29.79,51.58s-13.49,26.6-30,17.08-29.84-32.62-29.78-51.58S33.84,150.26,50.34,159.79Z"/><path class="cls-3" d="M63.56,222.33c-1.63,0-4.4-.47-8.31-2.73-13.42-7.74-24.72-27.3-24.67-42.7,0-9.57,4-11,6.36-11,1.63,0,4.39.47,8.3,2.73,13.42,7.75,24.72,27.31,24.68,42.71C69.89,220.91,65.92,222.33,63.56,222.33Z"/><path class="cls-4" d="M467.3,226.35,332.39,91.68,219,26.12,138.79,14.34,112.67,0,22.53,51.47V74h0a47,47,0,0,0-12.8,32.23v12.07l-3,1.82A13.93,13.93,0,0,0,0,132.06v38.23l14.61,8.47c0-.64,0-1.28,0-1.91,0-16.12,9-26.95,22.36-26.95,5.21,0,10.7,1.64,16.3,4.88C71.62,165.39,86,190.26,85.92,211.39a38.27,38.27,0,0,1-.88,8.15l163.25,94.54c-.06-.95-.09-1.89-.09-2.83.05-16.12,9-26.95,22.36-26.95,5.21,0,10.7,1.64,16.3,4.87,18.38,10.62,32.74,35.49,32.68,56.62a37.63,37.63,0,0,1-1.07,8.94l6.89,4a61.07,61.07,0,0,0,61.15,0l81.92-47.34a27.56,27.56,0,0,0,13.76-23.85V262.28A50.75,50.75,0,0,0,467.3,226.35Z"/><polyline class="cls-5" points="380.66 310.89 437.43 290.23 471.72 258.69 442.1 296.68 380.66 310.89"/><path class="cls-3" d="M471.72,258.69l9.84-4.35a50.78,50.78,0,0,0-14.26-28L440.86,200l14.23,34a44.36,44.36,0,0,0,5.26,9.29Z"/><path class="cls-3" d="M316.28,269.63l25.78,5.5a44.44,44.44,0,0,1,28.12,19.45l10.48,16.31L341.35,320Z"/><path class="cls-1" d="M356,366.94a61,61,0,0,0,30.55-8.19l81.92-47.34a27.56,27.56,0,0,0,13.76-23.85V262.28a50.76,50.76,0,0,0-2.07-14.35l-38,48.75L341.35,320l-8.89,42.25A61,61,0,0,0,356,366.94Z"/><path class="cls-2" d="M334.32,296.73,233.8,145.7l-109.09-65L48.63,66.73,22.53,51.47V74h0a47,47,0,0,0-12.8,32.23v12.07l-3,1.82A13.93,13.93,0,0,0,0,132.06v38.23l14.61,8.47c0-.64,0-1.28,0-1.91,0-16.12,9-26.95,22.36-26.95,5.21,0,10.7,1.64,16.3,4.88C71.62,165.39,86,190.26,85.92,211.39a38.27,38.27,0,0,1-.88,8.15l163.25,94.54c-.06-.95-.09-1.89-.09-2.83.05-16.12,9-26.95,22.36-26.95,5.21,0,10.7,1.64,16.3,4.87,18.38,10.62,32.74,35.49,32.68,56.62a37.63,37.63,0,0,1-1.07,8.94l6.89,4a60.79,60.79,0,0,0,16,6.44V320A41.93,41.93,0,0,0,334.32,296.73Z"/><polygon class="cls-6" points="238.79 146.93 331.78 95.97 410.86 174.92 300 238.89 238.79 146.93"/><polygon class="cls-6" points="58.51 65.01 139.49 17.95 208.58 28.11 124.08 77.02 58.51 65.01"/><polygon class="cls-6" points="164 108.13 123.47 83.97 60.88 72.51 74.53 121.6 164 173.12 164 108.13"/><polygon class="cls-6" points="231.34 148.28 177.35 116.09 177.35 180.8 281.27 240.64 281.27 223.29 231.34 148.28"/></g></g></svg>