<svg xmlns="http://www.w3.org/2000/svg" viewBox="0 0 211.2 254.08"><defs><style>.cls-1{fill:#2bbec5;}.cls-2{fill:#06b3bb;}.cls-3{fill:#516cb4;}.cls-4{fill:#fff;}.cls-5{fill:#42145f;}</style></defs><title>doomsday_light</title><g id="Layer_2" data-name="Layer 2"><g id="Layer_3" data-name="Layer 3"><path class="cls-1" d="M78,12.81,53.68,26.9l5.57.53c-22.18,22.5-35.31,58.23-35.44,105l163,121.68,23.81-13.84.61-214.63C159.11-4.46,111.94-7.14,78,12.81Z"/><path class="cls-2" d="M187.39,39.45l-.61,214.63L0,146.24C.34,27.7,84.23-20.11,187.39,39.45Z"/><polygon class="cls-3" points="211.2 25.61 187.39 39.45 186.78 254.07 210.59 240.24 211.2 25.61"/><path class="cls-4" d="M37.38,167.82c0-8.81-6.17-19.55-13.84-24S9.64,143,9.61,151.79h0l27.77,16Z"/><path class="cls-4" d="M45.7,62.67a25.21,25.21,0,0,1,6.92,6.14c6.63,8.24,8.88,19.32,5,24.73-2.58,3.64-7.26,3.8-12.06,1a25.7,25.7,0,0,1-6.93-6.14c-6.62-8.24-8.87-19.31-5-24.74C36.22,60.06,40.9,59.9,45.7,62.67Z"/><path class="cls-4" d="M105.63,28.48c4.8,2.77,9.46,8.33,12,14.93,3.81,9.85,1.51,18.3-5.15,18.87a12.1,12.1,0,0,1-6.93-1.86c-4.8-2.77-9.46-8.33-12-14.93C89.74,35.63,92,27.19,98.7,26.62A12,12,0,0,1,105.63,28.48Z"/><path class="cls-4" d="M187.36,50.49c-7.67-4.43-13.9-.87-13.93,7.94s6.17,19.55,13.84,24h0l.09-31.92Z"/><polygon class="cls-5" points="179.2 249.67 186.78 254.07 186.78 102.16 179.2 97.75 179.2 249.67"/><polygon class="cls-5" points="147.13 124.36 177.68 248.82 186.78 254.07 154.59 122.92 147.13 124.36"/></g></g></svg>