<svg xmlns="http://www.w3.org/2000/svg" xmlns:xlink="http://www.w3.org/1999/xlink" viewBox="0 0 179.61 324.57"><defs><style>.cls-1{fill:#06b3bb;}.cls-2{fill:#2bbec5;}.cls-3{fill:url(#linear-gradient);}.cls-4{fill:#f5f3f7;}.cls-5{fill:#fff;}.cls-6{fill:#516cb4;}</style><linearGradient id="linear-gradient" x1="104.29" y1="222.55" x2="204.6" y2="302.72" gradientUnits="userSpaceOnUse"><stop offset="0.4" stop-color="#d0c4d7"/><stop offset="1" stop-color="#714f87"/></linearGradient></defs><title>oil_light</title><g id="Layer_2" data-name="Layer 2"><g id="Layer_3" data-name="Layer 3"><path class="cls-1" d="M115.45,41.28c-4.16-2.4-25.61,4.2-25.61,4.2h0s-20-6.18-24.16-3.78S.18,78.41.18,123.71h0v150a12.05,12.05,0,0,0,0,1.9l0,.26c.48,4.18,3.47,8.29,9,11.49l55.41,32c12.09,7,31.64,7,43.65,0l62.25-36.41c6.07-3.52,9.05-8.16,9-12.78h0V123.74l.07,0C179.57,78.41,119.61,43.67,115.45,41.28Z"/><path class="cls-2" d="M115.45,41.28c-4.16-2.4-25.61,4.2-25.61,4.2h0v279a42.44,42.44,0,0,0,18.48-5.13l62.25-36.41c6.07-3.52,9.05-8.16,9-12.78h0V123.74l.07,0C179.57,78.41,119.61,43.67,115.45,41.28Z"/><path class="cls-3" d="M87.07,168V324.55c7.7-.08,15.35-1.81,21.21-5.22l62.25-36.41c6.07-3.52,9.05-8.16,9-12.78h0V166.89Z"/><path class="cls-4" d="M.18,169.1s0,105.8,0,106.49c0,.06,0,.26,0,.26.48,4.18,3.47,8.29,9,11.49l55.41,32c6.89,4,16.21,5.69,25.17,5.13V168Z"/><path class="cls-5" d="M170.49,154.23c12.1,7,12.17,18.33.14,25.32L108.3,216c-12,7-31.6,7-43.7,0L9.12,184C-3,177-3,165.64,9,158.66L71.3,122.2c12-7,31.6-7,43.71,0Z"/><polygon class="cls-6" points="117.65 234.37 160.3 209.74 160.3 140.86 117.65 165.49 117.65 234.37"/><path class="cls-1" d="M114.41,27.57H65.31V41.79c0,3.64,2.43,7.28,7.24,10.06,9.62,5.55,25.17,5.55,34.72,0,4.78-2.78,7.16-6.42,7.14-10.06Z"/><ellipse class="cls-5" cx="89.86" cy="27.57" rx="14.22" ry="24.55" transform="translate(62.03 117.35) rotate(-89.84)"/><path class="cls-6" d="M118.58,16.64H61.14V33.27c0,4.26,2.85,8.52,8.48,11.76,11.25,6.5,29.43,6.5,40.61,0,5.59-3.24,8.37-7.5,8.35-11.76Z"/><path class="cls-1" d="M83.09,16.64h-22V33.27c0,4.26,2.85,8.52,8.48,11.76a37.75,37.75,0,0,0,13.47,4.38Z"/><ellipse class="cls-2" cx="89.86" cy="16.64" rx="16.64" ry="28.72" transform="translate(72.97 106.44) rotate(-89.84)"/></g></g></svg>