<svg xmlns="http://www.w3.org/2000/svg" xmlns:xlink="http://www.w3.org/1999/xlink" viewBox="0 0 345.77 540.12"><defs><style>.cls-1{fill:#f5f3f7;}.cls-2{fill:url(#linear-gradient);}.cls-3{fill:#fff;}.cls-4{fill:#516cb4;}.cls-5{fill:url(#linear-gradient-2);}.cls-6{fill:#2bbec5;}.cls-7{fill:#06b3bb;}.cls-8{fill:none;stroke:#fff;stroke-miterlimit:10;}.cls-9{fill:url(#linear-gradient-3);}</style><linearGradient id="linear-gradient" x1="170.95" y1="454.37" x2="243.18" y2="531.31" gradientUnits="userSpaceOnUse"><stop offset="0" stop-color="#d0c4d7"/><stop offset="0.94" stop-color="#714f87"/></linearGradient><linearGradient id="linear-gradient-2" x1="57.03" y1="265.56" x2="127.86" y2="319.29" gradientUnits="userSpaceOnUse"><stop offset="0" stop-color="#d0c4d7"/><stop offset="1" stop-color="#714f87"/></linearGradient><linearGradient id="linear-gradient-3" x1="290.65" y1="201.03" x2="361.48" y2="254.77" xlink:href="#linear-gradient-2"/></defs><title>plant_light</title><g id="Layer_2" data-name="Layer 2"><g id="Layer_3" data-name="Layer 3"><path class="cls-1" d="M142.94,402.56,69.7,399s18.68,88.64,24.88,118.83c1.1,5.34,6.38,9.89,13.17,13.84,9.7,5.63,22.44,8.43,35.19,8.41s25.5-2.78,35.19-8.41c6.8-4,12.07-8.5,13.17-13.84C197.51,487.68,216,400,216,400Z"/><path class="cls-2" d="M184,401.13l-21.88,16.95-7.44,121.25a64.85,64.85,0,0,0,23.49-7.62c6.8-4,12.07-8.5,13.17-13.84C197.51,487.68,216,400,216,400Z"/><path class="cls-3" d="M195.07,362.89c29,16.73,29.14,43.86.35,60.59s-75.63,16.73-104.61,0-29.13-43.86-.34-60.59S166.09,346.16,195.07,362.89Z"/><path class="cls-4" d="M143.19,432c-19.07,0-37-4.27-50.38-12C80,412.64,73,403.07,73,393.07s6.92-19.41,19.51-26.73c13.32-7.74,31.16-12,50.22-12s37,4.26,50.37,12c12.78,7.38,19.83,16.95,19.84,26.95S206,412.7,193.41,420C180.08,427.76,162.25,432,143.19,432Z"/><path class="cls-4" d="M121.74,351.28,92.48,366.34l50.46,31.11,50.47-31.11-29.27-15.06A46.31,46.31,0,0,0,121.74,351.28Z"/><polygon class="cls-1" points="56.07 270.05 56.07 334.28 0 302.01 0.18 237.78 56.07 270.05"/><polygon class="cls-3" points="0.18 237.78 56.07 270.05 112.14 237.78 56.07 205.51 0.18 237.78"/><polygon class="cls-5" points="56.07 270.05 56.07 334.28 112.14 302.01 111.96 237.78 56.07 270.05"/><path class="cls-4" d="M232.13,22.94A45.2,45.2,0,0,0,213.7,2.78,32.09,32.09,0,0,0,207.79,0L193.84,8.12l24.35,52.36,13.95-8.12C232.56,51.78,240.43,40.78,232.13,22.94Z"/><path class="cls-6" d="M232.13,22.94A45.2,45.2,0,0,0,213.7,2.78,32.09,32.09,0,0,0,207.79,0L193.84,8.12,200.78,23l13.17,20,21.11-11.68A42.1,42.1,0,0,0,232.13,22.94Z"/><path class="cls-7" d="M199.74,10.89a45.31,45.31,0,0,1,18.43,20.16c8.31,17.85.43,28.85,0,29.43a32.82,32.82,0,0,1-5.92-2.78,45.31,45.31,0,0,1-18.43-20.16c-8.3-17.85-.42-28.84,0-29.42A32.16,32.16,0,0,1,199.74,10.89Z"/><path class="cls-4" d="M135.88,61.55A46.07,46.07,0,0,0,124,51.29c-8.31-4.79-14-3.77-14.35-3.71l-13.72,8,40.33,47.57,13.71-8C150,94.28,149.63,77.77,135.88,61.55Z"/><path class="cls-6" d="M133.69,59.13a43.49,43.49,0,0,0-9.7-7.84c-8.31-4.79-14-3.77-14.35-3.71l-13.72,8,8.34,9.84,12.2,3.47Z"/><path class="cls-7" d="M110.27,59.33a45.73,45.73,0,0,1,11.9,10.26c13.74,16.22,14.06,32.72,14.08,33.59-.3.06-6.05,1.08-14.35-3.71A45.93,45.93,0,0,1,110,89.21C96.26,73,95.94,56.48,95.92,55.61,96.22,55.56,102,54.53,110.27,59.33Z"/><path class="cls-8" d="M142.94,354.34V57.06c0-40.26,43.47-65.53,78.45-45.6h0A135.23,135.23,0,0,1,289.7,129v28.56"/><path class="cls-4" d="M135.88,219.79A45.94,45.94,0,0,0,124,209.52c-8.31-4.79-14-3.76-14.35-3.71l-13.72,8,40.33,47.56,13.71-8C150,252.51,149.63,236,135.88,219.79Z"/><path class="cls-6" d="M133.69,217.36a43.78,43.78,0,0,0-9.7-7.84c-8.31-4.79-14-3.76-14.35-3.71l-13.72,8,8.34,9.83,12.2,3.47Z"/><path class="cls-7" d="M110.27,217.56a45.93,45.93,0,0,1,11.9,10.26c13.74,16.22,14.06,32.73,14.08,33.6-.3.05-6.05,1.08-14.35-3.72A45.73,45.73,0,0,1,110,247.44c-13.74-16.22-14.06-32.73-14.08-33.59C96.22,213.79,102,212.76,110.27,217.56Z"/><path class="cls-4" d="M326.62,51.79a53.81,53.81,0,0,0-14.1-11.51,48.26,48.26,0,0,0-14.21-5.53c-7.65-1.61-12.91-.68-16.44.9h0c-.8.36-13.42,7.29-13.42,7.29l12.7,3.65a59.39,59.39,0,0,0,8.5,6,48.54,48.54,0,0,0,14.21,5.53,38.5,38.5,0,0,0,5.75.78l-1.17,4.85s10.13-5.48,13.47-7.37A12,12,0,0,0,326.62,51.79Z"/><path class="cls-6" d="M312.52,40.28a48.26,48.26,0,0,0-14.21-5.53c-7.65-1.61-12.91-.68-16.44.9h0c-.8.36-13.42,7.29-13.42,7.29l12.7,3.65c1.19,1,2.57,2.08,4.12,3.17L314,58.71l12.66-6.92A53.81,53.81,0,0,0,312.52,40.28Z"/><path class="cls-7" d="M299.87,47.2A53.86,53.86,0,0,1,314,58.71c-.27.5-5.36,10-22.77,6.32A48.26,48.26,0,0,1,277,59.5,53.81,53.81,0,0,1,262.88,48c.27-.5,5.36-10,22.77-6.32A48.6,48.6,0,0,1,299.87,47.2Z"/><path class="cls-4" d="M203.59,281.66c-1.37-.79-14.76-8.12-29.54-1.82h0l0,0a34.1,34.1,0,0,0-3.38,1.67c-.67.38-1.31.79-1.92,1.19l-9.33,5,1.41,2.45a34.23,34.23,0,0,0-6.58,19.85,36.2,36.2,0,0,0,20.46,4.18l1.26,2.18,11.25-6.23C204.09,300.56,203.7,281.73,203.59,281.66Z"/><path class="cls-6" d="M192.34,287.9l11.25-6.24c-1.37-.79-14.76-8.12-29.54-1.82h0l0,0c-1.12.48-14.63,7.91-14.63,7.91l1.41,2.45c-.1.14-.2.29-.31.43Z"/><path class="cls-7" d="M192.34,287.9c.12.06.5,18.9-16.41,28.53-16.09,9.17-31.49.72-33-.12-.12-.07-.5-18.9,16.41-28.54C175.46,278.6,190.87,287.05,192.34,287.9Z"/><path class="cls-4" d="M203.59,114c-1.37-.79-14.76-8.12-29.54-1.82h0l0,0a34.1,34.1,0,0,0-3.38,1.67q-1,.59-1.92,1.2l-9.33,5,1.41,2.45a34.23,34.23,0,0,0-6.58,19.85,36.2,36.2,0,0,0,20.46,4.18l1.26,2.19,11.25-6.24C204.09,132.87,203.7,114,203.59,114Z"/><path class="cls-6" d="M192.34,120.21,203.59,114c-1.37-.79-14.76-8.12-29.54-1.82h0l0,0c-1.12.48-14.63,7.91-14.63,7.91l1.41,2.45c-.1.14-.2.29-.31.43Z"/><path class="cls-7" d="M192.34,120.21c.12.06.5,18.9-16.41,28.54-16.09,9.16-31.49.72-33-.13-.12-.07-.5-18.9,16.41-28.54C175.46,110.91,190.87,119.36,192.34,120.21Z"/><path class="cls-8" d="M56.07,230.74V171.05c0-25.47,27.61-41.35,49.62-28.56h0a74.85,74.85,0,0,1,37.25,64.72V269.9"/><polygon class="cls-1" points="289.7 205.53 289.7 269.76 233.62 237.49 233.81 173.26 289.7 205.53"/><polygon class="cls-9" points="289.7 205.53 289.7 269.76 345.77 237.49 345.59 173.26 289.7 205.53"/><polygon class="cls-3" points="233.81 173.26 289.7 205.53 345.77 173.26 289.7 140.99 233.81 173.26"/></g></g></svg>