<svg xmlns="http://www.w3.org/2000/svg" xmlns:xlink="http://www.w3.org/1999/xlink" viewBox="0 0 269.3 502.09"><defs><style>.cls-1,.cls-5{fill:none;stroke-miterlimit:10;}.cls-1{stroke:#516cb4;stroke-width:4px;}.cls-2{fill:#f5f3f7;}.cls-3{fill:url(#linear-gradient);}.cls-4{fill:url(#linear-gradient-2);}.cls-5{stroke:#06b3bb;stroke-width:5px;}</style><linearGradient id="linear-gradient" x1="25.97" y1="57.48" x2="283.18" y2="386.02" gradientUnits="userSpaceOnUse"><stop offset="0" stop-color="#d0c4d7"/><stop offset="1" stop-color="#714f87"/></linearGradient><linearGradient id="linear-gradient-2" x1="160.21" y1="264.1" x2="414.98" y2="499.81" xlink:href="#linear-gradient"/></defs><title>recycle_light</title><g id="Layer_2" data-name="Layer 2"><g id="Layer_3" data-name="Layer 3"><path class="cls-1" d="M110.94,85.61,111,38.2c.09-32.41,23-45.48,51.23-29.19s51,55.75,50.91,88.17l-.1,47.4"/><polygon class="cls-2" points="202.12 203.97 201.27 502.09 0 385.89 0.84 87.77 202.12 203.97"/><polygon class="cls-2" points="68.03 48.82 68.03 126.56 202.12 203.97 269.3 165.02 68.03 48.82"/><polygon class="cls-3" points="68.03 126.56 68.03 97.21 68.03 48.82 0.84 87.77 68.03 126.56"/><polygon class="cls-4" points="202.12 203.97 202.12 203.97 201.27 502.09 268.45 463.14 269.3 165.02 202.12 203.97"/><path class="cls-5" d="M110.23,360.71l50.58,29.21A7.8,7.8,0,0,0,172,380.33l-24-61.24"/><polyline class="cls-5" points="129.14 392.53 110.23 360.71 129.33 350.9"/><path class="cls-5" d="M93.15,350.9,45,323.32a19.39,19.39,0,0,1-6-28.27l16.51-22.6"/><polyline class="cls-5" points="30.79 265.79 55.52 272.45 61.83 304.77"/><path class="cls-5" d="M65.08,259.51,93.26,221a9.77,9.77,0,0,1,17,2.21l31,78.82"/><polyline class="cls-5" points="116.14 288.25 141.26 302.02 149.62 271.2"/><path class="cls-1" d="M59.82,134.71l.1-47.41C60,54.89,83,41.82,111.15,58.1s51,55.76,50.91,88.17l-.1,47.41"/></g></g></svg>