<svg xmlns="http://www.w3.org/2000/svg" viewBox="0 0 319.99 432.52"><defs><style>.cls-1{fill:#f5f3f7;}.cls-2{fill:#06b3bb;}.cls-3{fill:#fff;}.cls-4{fill:#2bbec5;}.cls-5{fill:#516cb4;}</style></defs><title>water_light</title><g id="Layer_2" data-name="Layer 2"><g id="Layer_3" data-name="Layer 3"><polygon class="cls-1" points="200.38 394.95 256.8 122.69 0.63 122.69 57.01 394.95 200.38 394.95"/><path class="cls-2" d="M224.31,279.48,34.09,284.26,57,395c1.64,9.25,8.6,18.26,20.88,25.35,28.22,16.3,73.84,16.3,101.88,0,12.2-7.09,19.06-16.1,20.6-25.35Z"/><path class="cls-3" d="M219.36,62.86C269.78,92,270,139.15,220,168.26s-131.55,29.11-182,0S-12.69,92,37.39,62.86,169,33.75,219.36,62.86Z"/><path class="cls-4" d="M196.15,237.53c37.51,21.66,37.7,56.77.44,78.42S98.71,337.61,61.2,316s-37.71-56.77-.44-78.43S158.64,215.87,196.15,237.53Z"/><path class="cls-4" d="M179.41,361.35c28.2,16.28,28.35,42.68.33,59s-73.6,16.28-101.8,0-28.35-42.68-.33-59S151.2,345.06,179.41,361.35Z"/><path class="cls-5" d="M132.65,408.48l-8-2.06L215.08,57.1a21.32,21.32,0,0,1,11.44-13.91L316.43,0,320,7.41,230.08,50.6a13.14,13.14,0,0,0-7,8.56Z"/></g></g></svg>