<svg xmlns="http://www.w3.org/2000/svg" viewBox="0 0 386.1 396.98"><defs><style>.cls-1{fill:#06b3bb;}.cls-2{fill:#516cb4;}.cls-3{fill:#2bbec5;}.cls-4{fill:#fff;}.cls-5{fill:#42145f;}</style></defs><title>house_light</title><g id="Layer_2" data-name="Layer 2"><g id="Layer_3" data-name="Layer 3"><polygon class="cls-1" points="0 169.5 128.7 243.81 386.1 95.18 321.75 0 257.4 20.87 0 169.5"/><polygon class="cls-1" points="0 322.67 128.7 396.98 128.7 243.81 64.35 148.63 0 169.5 0 322.67"/><polygon class="cls-2" points="128.7 243.81 128.7 396.98 386.1 248.36 386.1 95.19 128.7 243.81"/><polygon class="cls-3" points="64.35 148.63 321.75 0 386.1 95.19 128.7 243.81 64.35 148.63"/><polygon class="cls-4" points="13.03 274.18 115.67 333.44 115.67 252.92 13.03 193.66 13.03 274.18"/><polygon class="cls-4" points="207.51 224.53 164.8 249.19 164.8 317.98 207.51 293.32 207.51 224.53"/><polygon class="cls-2" points="130.61 154.65 117.9 161.99 117.9 190.37 130.61 183.03 130.61 154.65"/><polygon class="cls-1" points="105.2 154.65 117.9 161.99 117.9 190.37 105.2 171.48 105.2 154.65"/><polygon class="cls-4" points="117.9 147.31 130.61 154.65 117.9 161.99 105.2 154.65 117.9 147.31"/><polygon class="cls-4" points="350 141.36 307.29 166.02 307.29 234.8 350 210.14 350 141.36"/><polygon class="cls-5" points="226.59 340.34 288.21 304.75 288.21 178.35 226.59 213.93 226.59 340.34"/></g></g></svg>