<svg xmlns="http://www.w3.org/2000/svg" xmlns:xlink="http://www.w3.org/1999/xlink" viewBox="0 0 566.3 347.05"><defs><style>.cls-1,.cls-18{fill:none;stroke:#516cb3;stroke-miterlimit:10;}.cls-1{stroke-width:2px;}.cls-2{fill:#00b0bc;}.cls-3{fill:#fff;}.cls-4{fill:#c9c5c5;}.cls-5{isolation:isolate;}.cls-6{fill:#6f2c91;}.cls-7{fill:#516cb3;}.cls-8{fill:url(#linear-gradient);}.cls-9{fill:#f6f3f7;}.cls-10{fill:url(#linear-gradient-2);}.cls-11{fill:url(#linear-gradient-3);}.cls-12{fill:url(#linear-gradient-4);}.cls-13{fill:url(#linear-gradient-5);}.cls-14{fill:#33c0c9;}.cls-15{fill:url(#linear-gradient-6);}.cls-16{fill:url(#linear-gradient-7);}.cls-17{fill:url(#linear-gradient-8);}</style><linearGradient id="linear-gradient" x1="380.48" y1="56.48" x2="400.82" y2="77.72" gradientUnits="userSpaceOnUse"><stop offset="0" stop-color="#d1c2d8"/><stop offset="1" stop-color="#77488a"/></linearGradient><linearGradient id="linear-gradient-2" x1="436.58" y1="83.51" x2="449.02" y2="97.08" xlink:href="#linear-gradient"/><linearGradient id="linear-gradient-3" x1="383.72" y1="112.67" x2="422.28" y2="151.24" xlink:href="#linear-gradient"/><linearGradient id="linear-gradient-4" x1="352.97" y1="177.69" x2="411.08" y2="208.41" xlink:href="#linear-gradient"/><linearGradient id="linear-gradient-5" x1="468.01" y1="211.37" x2="550.12" y2="211.37" xlink:href="#linear-gradient"/><linearGradient id="linear-gradient-6" x1="472.46" y1="127.81" x2="546.12" y2="150.16" xlink:href="#linear-gradient"/><linearGradient id="linear-gradient-7" x1="373.27" y1="67.86" x2="489.27" y2="67.86" xlink:href="#linear-gradient"/><linearGradient id="linear-gradient-8" x1="350.1" y1="80.93" x2="381.32" y2="80.93" xlink:href="#linear-gradient"/></defs><title>main_illo_mobile</title><g id="Layer_2" data-name="Layer 2"><g id="NatWest-longform_1-sustainability-mobile"><g id="illo"><line class="cls-1" x1="116" y1="286.7" x2="116" y2="297.52"/><path class="cls-2" d="M120.87,284.33a4.87,4.87,0,0,1-9.74,0c0-2.69,3.14-27.67,4.87-27.67S120.87,281.64,120.87,284.33Z"/><line class="cls-1" x1="390.65" y1="286.6" x2="390.65" y2="297.42"/><path class="cls-2" d="M395.52,284.23a4.87,4.87,0,0,1-9.74,0c0-2.69,3.14-27.68,4.87-27.68S395.52,281.54,395.52,284.23Z"/><line class="cls-1" x1="300.66" y1="316.81" x2="300.66" y2="327.63"/><path class="cls-2" d="M305.53,314.44a4.87,4.87,0,0,1-9.73,0c0-2.69,3.14-27.67,4.86-27.67S305.53,311.75,305.53,314.44Z"/><line class="cls-1" x1="278.42" y1="290.99" x2="278.42" y2="301.81"/><path class="cls-2" d="M283.28,288.62a4.87,4.87,0,0,1-9.73,0c0-2.69,3.14-27.68,4.87-27.68S283.28,285.93,283.28,288.62Z"/><line class="cls-1" x1="44.3" y1="199.18" x2="44.3" y2="210"/><path class="cls-2" d="M49.17,196.81a4.87,4.87,0,0,1-9.74,0c0-2.69,3.14-27.67,4.87-27.67S49.17,194.12,49.17,196.81Z"/><line class="cls-1" x1="4.87" y1="266.39" x2="4.87" y2="277.21"/><path class="cls-2" d="M9.73,264A4.87,4.87,0,0,1,0,264c0-2.69,3.14-27.67,4.87-27.67S9.73,261.33,9.73,264Z"/><path class="cls-3" d="M86.46,70H80.91l-5.28,152.1a4,4,0,0,0,2.34,3.3,12.58,12.58,0,0,0,11.42,0,4,4,0,0,0,2.35-3.3Z"/><path class="cls-4" d="M82.64,77.54l2.65,149.17a10.67,10.67,0,0,0,4.1-1.28,4,4,0,0,0,2.35-3.3L86.58,73.37Z"/><path class="cls-3" d="M93,53.07a16.66,16.66,0,0,1,7.55,13.07c0,4.81-3.41,6.75-7.6,4.34A16.67,16.67,0,0,1,85.43,57.4C85.45,52.6,88.85,50.66,93,53.07Z"/><polygon class="cls-3" points="85.19 78.53 98.37 71 87.5 52.64 74.25 60.21 85.19 78.53"/><circle class="cls-3" cx="79.62" cy="69.43" r="10.68"/><path class="cls-2" d="M79.62,80.1a10.55,10.55,0,0,0,5.57-1.58h0L98.33,71h0c1.36-.78,2.2-2.46,2.21-4.86a12.55,12.55,0,0,0-.43-3.15c-3.91,2.29-14.63,8.58-19,11.07-5.37,3.07-8.6,0-8.6,0l-1.26,2A10.62,10.62,0,0,0,79.62,80.1Z"/><g class="cls-5"><path class="cls-3" d="M70.6,72.87a21.31,21.31,0,0,1,2,1.32c-1.79,2.28-4.22,5.19-9.73,5.67S27,81,25.41,80.94c1.44-.37,28.68-9.13,34.72-10.33C63.55,69.94,68.45,71.63,70.6,72.87Z"/><path class="cls-3" d="M74.69,75.23a33.15,33.15,0,0,1,9.14,8c5.49,6.84,32.69,45.34,34.12,47.37-1.62-1.77-32.33-35.37-37.82-42.21a42.29,42.29,0,0,1-7.49-14.21A18.07,18.07,0,0,1,74.69,75.23Z"/><path class="cls-3" d="M72.81,13.92c.18,2.13,3.55,42.66,3.53,50S72.83,74,72.64,74.19C72.46,73.83,69,67,69,59.66S72.63,15.84,72.81,13.92Z"/></g><path class="cls-2" d="M75.27,75.62A6,6,0,0,0,72.57,71a1.87,1.87,0,0,0-2-.17h0c-4,2.6-3.91,5.91-3.47,6.58s3.45,1.81,7.34,0h0A1.9,1.9,0,0,0,75.27,75.62Z"/><path class="cls-3" d="M207.63,190.28h-5.55L196.8,342.39a4,4,0,0,0,2.34,3.29,12.58,12.58,0,0,0,11.42,0,4,4,0,0,0,2.35-3.29Z"/><path class="cls-4" d="M203.81,197.79,206.46,347a10.67,10.67,0,0,0,4.1-1.28,4,4,0,0,0,2.35-3.29l-5.16-148.77Z"/><path class="cls-3" d="M214.2,173.33a16.63,16.63,0,0,1,7.55,13.06c0,4.81-3.41,6.75-7.6,4.34a16.67,16.67,0,0,1-7.55-13.08C206.62,172.85,210,170.91,214.2,173.33Z"/><polygon class="cls-3" points="206.36 198.78 219.54 191.26 208.67 172.89 195.42 180.46 206.36 198.78"/><circle class="cls-3" cx="200.79" cy="189.68" r="10.68"/><path class="cls-2" d="M200.79,200.35a10.55,10.55,0,0,0,5.57-1.58h0l13.14-7.51h0c1.36-.79,2.2-2.47,2.21-4.87a12.55,12.55,0,0,0-.43-3.15c-3.91,2.29-14.63,8.58-19,11.07-5.37,3.07-8.6,0-8.6,0l-1.26,2.05A10.64,10.64,0,0,0,200.79,200.35Z"/><g class="cls-5"><path class="cls-3" d="M191.77,193.12a21.31,21.31,0,0,1,2,1.32c-1.79,2.28-4.22,5.19-9.73,5.67s-35.88,1.18-37.5,1.08c1.44-.37,28.68-9.13,34.72-10.33C184.72,190.19,189.62,191.88,191.77,193.12Z"/><path class="cls-3" d="M195.86,195.48a33.5,33.5,0,0,1,9.14,8c5.49,6.84,32.69,45.34,34.12,47.37-1.62-1.77-32.33-35.37-37.82-42.21a42.29,42.29,0,0,1-7.49-14.21A18.07,18.07,0,0,1,195.86,195.48Z"/><path class="cls-3" d="M194,134.17c.18,2.13,3.55,42.66,3.53,50s-3.51,10.15-3.7,10.3c-.18-.36-3.65-7.23-3.63-14.53S193.8,136.09,194,134.17Z"/></g><path class="cls-2" d="M196.44,195.87a6,6,0,0,0-2.7-4.67,1.87,1.87,0,0,0-2-.16h0c-4,2.59-3.91,5.9-3.47,6.57s3.45,1.81,7.34,0h0A1.9,1.9,0,0,0,196.44,195.87Z"/><g id="city"><polygon class="cls-6" points="481.84 112.46 399.73 160.25 399.73 156.59 481.84 108.8 481.84 112.46"/><polygon class="cls-3" points="481.84 108.8 399.73 156.59 319.79 110.7 401.9 62.91 481.84 108.8"/><polygon class="cls-7" points="319.79 110.7 319.79 114.37 399.73 160.25 399.73 156.59 319.79 110.7"/><path class="cls-8" d="M394.09,34.25l-16.4-9.52-2,1.09V87.9l16.4,9.52,2-1.09Zm-14.9,21.66V36.08l12.9,7.52V63.43Z"/><path class="cls-9" d="M392.08,35.34l-16.4-9.52V87.9l16.4,9.52ZM377.18,57V45.31l13.4,7.82V64.81Z"/><polygon class="cls-3" points="377.18 56.99 379.19 55.91 390.59 62.56 390.59 64.81 377.18 56.99"/><path class="cls-10" d="M450,61.28l-16.4-9.52-2,1.08v62.08l16.4,9.52,2-1.09Zm-14.9,21.65V63.11L448,70.63V90.45Z"/><path class="cls-9" d="M448,62.36l-16.4-9.52v62.08l16.4,9.52ZM433.08,84V72.33l13.4,7.82V91.83Z"/><polygon class="cls-3" points="433.08 84.02 435.09 82.93 446.49 89.58 446.49 91.83 433.08 84.02"/><path class="cls-11" d="M397.52,90.45l-16.4-9.52-2,1.09V144.1l16.4,9.52,2-1.09Zm-14.9,21.66V92.29l12.89,7.52v19.82Z"/><path class="cls-9" d="M395.51,91.54,379.11,82V144.1l16.4,9.52Zm-14.89,21.65V101.51L394,109.33V121Z"/><polygon class="cls-3" points="380.62 113.19 382.62 112.11 394.02 118.76 394.02 121.01 380.62 113.19"/><polygon class="cls-12" points="416.71 167.61 334.6 215.41 334.6 211.74 416.71 163.95 416.71 167.61"/><polygon class="cls-3" points="416.71 163.95 334.6 211.74 226.98 149.61 309.09 101.82 416.71 163.95"/><polygon class="cls-9" points="226.98 149.61 226.98 153.28 334.6 215.41 334.6 211.74 226.98 149.61"/><polygon class="cls-13" points="550.13 189.3 468.01 237.1 468.01 233.43 550.13 185.64 550.13 189.3"/><polygon class="cls-3" points="550.13 185.64 468.01 233.43 390.86 188.8 472.97 141 550.13 185.64"/><polygon class="cls-9" points="390.86 188.8 390.86 192.46 468.01 237.1 468.01 233.43 390.86 188.8"/><polygon class="cls-3" points="472.4 103.23 446.1 118.52 422.31 104.83 448.61 89.53 472.4 103.23"/><polygon class="cls-3" points="464.82 88.1 446.1 98.98 429.53 89.33 448.24 78.55 464.82 88.1"/><polygon class="cls-14" points="433.83 89.42 448.25 81.04 460.51 88.11 446.1 96.49 433.83 89.42"/><polygon class="cls-7" points="448.25 83.53 458.36 89.36 460.51 88.11 448.25 81.04 433.83 89.42 435.98 90.66 448.25 83.53"/><polygon class="cls-7" points="448.25 81.04 448.25 83.53 435.98 90.66 433.83 89.42 448.25 81.04"/><polygon class="cls-7" points="446.1 115 446.1 98.98 464.82 88.1 464.82 104.11 446.1 115"/><polygon class="cls-2" points="429.53 89.33 429.53 105.34 446.1 115 446.1 98.98 429.53 89.33"/><polygon class="cls-2" points="446.1 118.52 446.1 211.74 422.31 198.05 422.31 104.83 446.1 118.52"/><polygon class="cls-7" points="446.1 118.52 446.1 211.74 472.4 196.45 472.4 103.23 446.1 118.52"/><polygon class="cls-7" points="514.74 29.72 514.74 197.4 540.21 182.53 540.21 14.86 514.74 29.72"/><polygon class="cls-2" points="514.74 29.72 514.74 197.4 489.27 182.53 489.27 14.86 514.74 29.72"/><polygon class="cls-2" points="491.43 181.29 491.43 18.62 512.59 30.96 512.59 193.64 491.43 181.29"/><polygon class="cls-3" points="496.14 178.99 496.14 21.37 491.43 18.62 491.43 181.29 512.59 193.64 512.59 188.58 496.14 178.99"/><polygon class="cls-7" points="496.14 178.99 491.43 181.29 491.43 18.62 496.14 21.37 496.14 178.99"/><path class="cls-2" d="M472.16,112.48v19.74h0a8.43,8.43,0,0,0,4.22,7.34,25.6,25.6,0,0,0,25.8,0l12.56-7.34V112Z"/><path class="cls-7" d="M488.05,143a25.52,25.52,0,0,0,14.13-3.45l12.56-7.34V112l-26.69.33Z"/><path class="cls-3" d="M514.74,112l-12.56,7.34a25.6,25.6,0,0,1-25.8,0h0a8.5,8.5,0,0,1,0-14.68l12.88-7.52Z"/><path class="cls-14" d="M489.28,120.63a23.5,23.5,0,0,1-11.82-3.19,6.35,6.35,0,0,1,0-11l14-8.12,21.16,12.35-11.5,6.72A23.37,23.37,0,0,1,489.28,120.63Z"/><path class="cls-7" d="M477.46,112l18.68-10.86-.94-1.61-3.77-1.14-14,8.12a6.28,6.28,0,0,0-3.14,5.48,6.37,6.37,0,0,0,.62,2.75A6.27,6.27,0,0,1,477.46,112Z"/><polygon class="cls-14" points="540.21 14.86 514.75 29.73 489.27 14.86 514.73 0 540.21 14.86"/><path class="cls-2" d="M472.16,74.42V94.16h0a8.43,8.43,0,0,0,4.22,7.34,25.58,25.58,0,0,0,25.8,0l12.56-7.33V73.9Z"/><path class="cls-7" d="M488.05,105a25.61,25.61,0,0,0,14.13-3.46l12.56-7.33V73.9l-26.69.33Z"/><path class="cls-3" d="M514.74,73.9l-12.56,7.33a25.58,25.58,0,0,1-25.8,0h0a8.5,8.5,0,0,1,0-14.68L489.26,59Z"/><path class="cls-14" d="M489.28,82.57a23.51,23.51,0,0,1-11.82-3.2,6.34,6.34,0,0,1,0-11l14-8.12,21.16,12.34-11.5,6.73A23.47,23.47,0,0,1,489.28,82.57Z"/><path class="cls-7" d="M477.46,73.91l18.68-10.86-.94-1.61-3.77-1.14-14,8.12a6.28,6.28,0,0,0-3.14,5.48,6.37,6.37,0,0,0,.62,2.75A6.27,6.27,0,0,1,477.46,73.91Z"/><polygon class="cls-14" points="496.14 165.64 483.89 172.75 460.1 159.06 472.35 151.95 496.14 165.64"/><polygon class="cls-2" points="483.89 172.75 483.89 217.03 460.1 203.34 460.1 159.06 483.89 172.75"/><polygon class="cls-7" points="483.89 172.75 483.89 217.03 496.14 209.92 496.14 165.64 483.89 172.75"/><path class="cls-15" d="M566.3,103.91h-.69a7.82,7.82,0,0,0-3.3-3.67L540.21,87.4v18.45l2.18,1.27-99.61,57L305.32,84.69l-8,13.81L430,175.2a25.54,25.54,0,0,0,25.47.05l106.78-61.12a7.68,7.68,0,0,0,4-6.59C566.29,106.61,566.3,103.91,566.3,103.91Z"/><path class="cls-9" d="M297.33,98.5,430,175.2a25.58,25.58,0,0,0,12.76,3.43V164.14L305.32,84.69Z"/><path class="cls-3" d="M430,172.16,297.33,95.46l8-13.81L442.78,161.1l99.61-57-2.18-1.27V84.36l22.1,12.84a8,8,0,0,1,0,13.89L455.49,172.21A25.54,25.54,0,0,1,430,172.16Z"/><path class="cls-7" d="M387.36,136.75V135.6a3.51,3.51,0,0,0-.54-1.67c-1.39-2.53-2.92-4.62-5.38-8.37a8.53,8.53,0,0,0-3-2.85L302.79,79.76l-1.21,7.16L381.82,140Z"/><path class="cls-14" d="M302.79,79.76l75.69,42.95c.25.15.47.3.69.45l-7.72,4.06-45.38-24.94L301.58,86.92Z"/><path class="cls-3" d="M383.93,129.3l-6.29,3.3-2.79-3.43,6.68-3.47Z"/><path class="cls-2" d="M381.82,140v-1.14a2.74,2.74,0,0,0-.54-1.68c-1.55-2-6.43-8-6.43-8a10.22,10.22,0,0,0-2.83-2.26l-70.44-40v7.6Z"/><polygon class="cls-6" points="369.01 126.65 369.01 129.74 301.58 91.51 301.58 88.37 369.01 126.65"/><polygon class="cls-6" points="373.12 128.98 373.12 135.07 370.11 133.37 370.11 127.27 373.12 128.98"/><path class="cls-2" d="M305.54,153.15c0,3.83-2.48,7.66-7.51,10.58-10,5.84-26.41,5.84-36.53,0-5.06-2.92-7.6-6.75-7.62-10.58V77.44h51.66Z"/><path class="cls-7" d="M274.25,167.76c8.32,1.05,17.34-.29,23.78-4,5-2.92,7.53-6.75,7.51-10.58V77.44H274.25Z"/><ellipse class="cls-3" cx="279.71" cy="77.44" rx="14.96" ry="25.83" transform="translate(201.47 356.93) rotate(-89.84)"/><path class="cls-14" d="M279.79,90.68a35.54,35.54,0,0,1-17.43-4.15C258,84,255.6,80.77,255.6,77.4s2.36-6.55,6.65-9.05c4.6-2.67,10.77-4.15,17.37-4.15a35.52,35.52,0,0,1,17.43,4.15c4.36,2.52,6.76,5.76,6.76,9.13s-2.35,6.56-6.64,9C292.56,89.2,286.39,90.68,279.79,90.68Z"/><path class="cls-7" d="M262.25,70.08c4.6-2.68,10.77-4.15,17.37-4.15s12.79,1.47,17.43,4.15c4,2.3,6.33,5.21,6.7,8.27a6.36,6.36,0,0,0,.06-.87c0-3.37-2.4-6.61-6.76-9.13a35.52,35.52,0,0,0-17.43-4.15c-6.6,0-12.77,1.48-17.37,4.15-4.29,2.5-6.65,5.71-6.65,9.05a6.22,6.22,0,0,0,.06.86C256,75.23,258.33,72.35,262.25,70.08Z"/><path class="cls-2" d="M263.32,73.65c0,2.43,1.63,4.86,4.84,6.71,6.42,3.71,16.79,3.71,23.17,0,3.19-1.85,4.78-4.28,4.76-6.71V57.41H263.32Z"/><path class="cls-7" d="M276.16,82.9c5.3.69,11.06-.15,15.17-2.54,3.19-1.85,4.78-4.28,4.76-6.71V57.41H276.16Z"/><path class="cls-3" d="M291.26,50.7c6.41,3.71,6.45,9.72.07,13.43s-16.75,3.7-23.17,0-6.46-9.72-.08-13.43S284.83,47,291.26,50.7Z"/><path class="cls-14" d="M279.76,65.18A21.79,21.79,0,0,1,269,62.63c-2.56-1.48-4-3.34-4-5.24s1.38-3.73,3.9-5.19a23.81,23.81,0,0,1,21.44,0c2.56,1.48,4,3.34,4,5.24s-1.39,3.73-3.91,5.2A21.65,21.65,0,0,1,279.76,65.18Z"/><path class="cls-7" d="M269,53.92a23.81,23.81,0,0,1,21.44,0c2.18,1.26,3.52,2.79,3.88,4.39a4.3,4.3,0,0,0,.1-.87c0-1.9-1.42-3.76-4-5.24a23.81,23.81,0,0,0-21.44,0c-2.52,1.46-3.91,3.3-3.9,5.19a3.61,3.61,0,0,0,.1.86C265.5,56.67,266.82,55.16,269,53.92Z"/><polygon class="cls-14" points="358.36 133.52 346.11 140.63 312.84 121.51 325.09 114.4 358.36 133.52"/><polygon class="cls-7" points="346.11 140.63 346.11 174.03 312.84 154.91 312.84 121.51 346.11 140.63"/><polygon class="cls-7" points="346.11 140.63 346.11 174.03 358.36 166.91 358.36 133.52 346.11 140.63"/><polygon class="cls-14" points="346.13 116.78 333.88 123.9 300.61 104.78 312.86 97.66 346.13 116.78"/><polygon class="cls-2" points="333.88 123.9 333.88 181.14 300.61 162.02 300.61 104.78 333.88 123.9"/><polygon class="cls-7" points="333.88 123.9 333.88 181.14 346.13 174.03 346.13 116.78 333.88 123.9"/><path class="cls-9" d="M444.64,47.22A27.46,27.46,0,0,0,431,25.81a50.57,50.57,0,0,0-50.35-.43L331.57,53.13c-9.67,5.63-15.22,14.41-15.2,24.11s5.61,18.52,15.36,24.15c7,4.07,16.07,6.31,25.39,6.31a51.59,51.59,0,0,0,24.75-6L489.27,40.8V22ZM422.58,59.71,374.26,87.2c-9.45,5.49-24.82,5.48-34.33,0s-9.57-14.39-.12-19.89l48.94-27.65a34.12,34.12,0,0,1,34,.29,11.41,11.41,0,0,1-.16,19.77Z"/><path class="cls-16" d="M373.27,98.36v7a44.52,44.52,0,0,0,8.6-3.63L489.27,40.8V30.39Z"/><path class="cls-3" d="M444.64,44.81A27.44,27.44,0,0,0,431,23.41,50.54,50.54,0,0,0,380.69,23L331.57,50.73c-9.67,5.62-15.22,14.41-15.2,24.1S322,93.35,331.73,99c7,4.07,16.07,6.32,25.39,6.32a51.59,51.59,0,0,0,24.75-6l107.4-60.92V19.56ZM422.58,57.3,374.26,84.79c-9.45,5.49-24.82,5.49-34.33,0s-9.57-14.4-.12-19.89l48.94-27.66a34.19,34.19,0,0,1,34,.29,11.41,11.41,0,0,1-.16,19.77Z"/><path class="cls-9" d="M381.31,73c.07,3.64-2.27,7.29-7.05,10.07-9.45,5.49-24.82,5.48-34.33,0-4.76-2.74-7.15-6.34-7.17-9.94h0v1.83h0c.05,3.58,2.44,7.15,7.17,9.88,9.51,5.49,24.88,5.49,34.33,0,4.53-2.63,6.87-6.05,7-9.5l0,0V73Z"/><path class="cls-17" d="M374.26,83c-6.52,3.79-15.87,5-24.16,3.51v1.77c8.29,1.44,17.64.27,24.16-3.52,4.53-2.63,6.87-6.05,7-9.5l0,0V73h0C381.38,76.6,379,80.25,374.26,83Z"/><path class="cls-3" d="M374.15,63.13c9.51,5.49,9.56,14.4.11,19.9s-24.82,5.48-34.33,0-9.57-14.39-.12-19.89S364.63,57.64,374.15,63.13Z"/><line class="cls-18" x1="343.71" y1="64.9" x2="343.71" y2="70.28"/><path class="cls-2" d="M346.13,63.72a2.42,2.42,0,0,1-4.84,0c0-1.34,1.56-13.75,2.42-13.75S346.13,62.38,346.13,63.72Z"/><line class="cls-18" x1="349.19" y1="77.74" x2="349.19" y2="83.12"/><path class="cls-2" d="M351.61,76.56a2.42,2.42,0,1,1-4.83,0c0-1.34,1.56-13.76,2.41-13.76S351.61,75.22,351.61,76.56Z"/><line class="cls-18" x1="375.68" y1="65.14" x2="375.68" y2="70.51"/><path class="cls-2" d="M378.1,64a2.42,2.42,0,1,1-4.84,0c0-1.34,1.56-13.76,2.42-13.76S378.1,62.62,378.1,64Z"/><line class="cls-18" x1="370.06" y1="74.56" x2="370.06" y2="79.93"/><path class="cls-2" d="M372.48,73.38a2.42,2.42,0,0,1-4.84,0c0-1.34,1.56-13.76,2.42-13.76S372.48,72,372.48,73.38Z"/><line class="cls-18" x1="359.63" y1="64.4" x2="359.63" y2="69.78"/><path class="cls-2" d="M362,63.22a2.42,2.42,0,1,1-4.83,0c0-1.34,1.56-13.75,2.42-13.75S362,61.88,362,63.22Z"/><polygon class="cls-7" points="428.27 66.13 428.27 18.88 399.53 18.88 399.53 82.98 428.27 66.13"/><path class="cls-7" d="M400.73,91a9.78,9.78,0,0,0,3,2.58c5.63,3.25,14.73,3.26,20.33,0,2.77-1.62,4.16-3.72,4.17-5.84h0V75.39Z"/><path class="cls-2" d="M400.73,91a9.78,9.78,0,0,0,3,2.58A21.47,21.47,0,0,0,415.63,96V82.56Z"/><polygon class="cls-2" points="415.63 73.54 415.63 18.88 399.53 18.88 399.53 82.98 415.63 73.54"/><path class="cls-3" d="M424,13c5.63,3.25,5.66,8.53.07,11.78s-14.7,3.25-20.33,0-5.66-8.53-.07-11.78S418.4,9.74,424,13Z"/><path class="cls-14" d="M414,25.05a18.75,18.75,0,0,1-9.1-2.15c-2-1.16-3.16-2.63-3.17-4s1.13-2.86,3.11-4a18.53,18.53,0,0,1,9.06-2.15,18.72,18.72,0,0,1,9.1,2.15c2,1.16,3.17,2.63,3.17,4s-1.13,2.86-3.11,4A18.53,18.53,0,0,1,414,25.05Z"/><path class="cls-2" d="M404.79,17A20.29,20.29,0,0,1,423,17a6.52,6.52,0,0,1,2.95,3,3,3,0,0,0,.22-1.08c0-1.41-1.16-2.88-3.17-4a18.72,18.72,0,0,0-9.1-2.15,18.53,18.53,0,0,0-9.06,2.15c-2,1.14-3.11,2.6-3.11,4a3,3,0,0,0,.22,1.07A6.53,6.53,0,0,1,404.79,17Z"/><path class="cls-7" d="M415.59,12.79c-.57,0-1.15-.08-1.74-.08a18.53,18.53,0,0,0-9.06,2.15c-2,1.14-3.11,2.6-3.11,4a3,3,0,0,0,.22,1.07A6.53,6.53,0,0,1,404.79,17a18.64,18.64,0,0,1,9.06-2.14c.59,0,1.17,0,1.74.07Z"/><polygon class="cls-3" points="444.64 44.81 389.07 76.37 391.58 93.8 451.32 59.92 444.64 44.81"/><path class="cls-2" d="M416.74,70.09V68.94a3.47,3.47,0,0,1,.54-1.67c1.39-2.54,2.91-4.62,5.37-8.37a8.47,8.47,0,0,1,3-2.85l63.65-36.11v7.85l-67,45.54Z"/><path class="cls-14" d="M489.27,19.94,425.62,56.05q-.37.23-.69.45l7.72,4.06L478,35.62l11.24-7.83Z"/><path class="cls-3" d="M420.17,62.63l6.29,3.31,2.79-3.43L422.57,59C421.65,60.43,420.86,61.59,420.17,62.63Z"/><path class="cls-7" d="M422.27,73.33V72.18a2.78,2.78,0,0,1,.54-1.67c1.56-2,6.44-8,6.44-8a10,10,0,0,1,2.82-2.26l57.2-32.46v7.6Z"/><polygon class="cls-6" points="435.08 59.99 435.08 63.08 489.27 32.4 489.27 29.25 435.08 59.99"/><polygon class="cls-6" points="430.98 62.32 430.98 68.4 433.99 66.7 433.99 60.61 430.98 62.32"/><polygon class="cls-2" points="448.25 81.04 448.25 83.53 458.36 89.36 460.51 88.11 448.25 81.04"/></g></g></g></g></svg>