<?xml version="1.0" encoding="utf-8"?>
<!-- Generator: Adobe Illustrator 20.1.0, SVG Export Plug-In . SVG Version: 6.00 Build 0)  -->
<svg version="1.1" id="Layer_1" xmlns="http://www.w3.org/2000/svg" xmlns:xlink="http://www.w3.org/1999/xlink" x="0px" y="0px"
	 viewBox="0 0 22.1 16.1" style="enable-background:new 0 0 22.1 16.1;" xml:space="preserve">
<style type="text/css">
	.st0{fill:#000;}
</style>
<g>
	<g>
		<polygon class="st0" points="18.2,2.7 18.2,0 22.1,3.9 18.2,7.7 18.2,5.1 		"/>
	</g>
	<g>
		<g>
			<path class="st0" d="M12.4,10.6c0-0.5,0.1-1,0.2-1.5c0.6-3.1,3.1-5.4,6.2-5.9c0.5-0.1,1.1-0.1,1.6-0.1L20.3,4
				c-0.5,0-0.9,0-1.4,0.1c-2.7,0.4-4.9,2.5-5.5,5.2c-0.1,0.4-0.1,0.9-0.1,1.3C13.3,10.6,12.4,10.6,12.4,10.6z"/>
			<path class="st0" d="M13.8,11.1h-1.9v-0.5c0-0.5,0.1-1.1,0.2-1.6c0.6-3.3,3.2-5.8,6.6-6.3c0.5-0.1,1.2-0.1,1.7-0.1H21l-0.2,1.9
				h-0.4c-0.5,0-0.8,0-1.3,0.1c-2.5,0.4-4.6,2.3-5.1,4.8c-0.1,0.4-0.1,0.8-0.1,1.2V11.1z"/>
		</g>
	</g>
	<g>
		<polygon class="st0" points="20.4,16.1 0,16.1 0,0 10.5,0 10.5,2 2,2 2,14.1 18.4,14.1 18.4,10.9 20.4,10.9 		"/>
	</g>
</g>
</svg>
