<svg xmlns="http://www.w3.org/2000/svg" xmlns:xlink="http://www.w3.org/1999/xlink" viewBox="0 0 607.1 372.31"><defs><style>.cls-1,.cls-6,.cls-7{fill:none;}.cls-2{fill:#06b3bb;}.cls-3{fill:#516cb4;}.cls-4{fill:#2bbec5;}.cls-5{fill:#fff;}.cls-6{stroke:#fff;}.cls-6,.cls-7{stroke-miterlimit:10;stroke-width:1.3px;}.cls-7{stroke:#06b3bb;}.cls-8{fill:#f5f3f7;}.cls-9{clip-path:url(#clip-path);}</style><clipPath id="clip-path"><path class="cls-1" d="M169,271.23a2.88,2.88,0,0,1-1-2.47,8.73,8.73,0,0,1,4-6.89,2.83,2.83,0,0,1,2.83-.29L345.82,361.71l-5.63,9.73Z"/></clipPath></defs><title>tablet_with_boxes_light</title><g id="Layer_2" data-name="Layer 2"><g id="Layer_3" data-name="Layer 3"><path class="cls-2" d="M607.08,231.27h0v-6.64L578.32,219,227.11,16.51c-5.11-3-13.35-3-18.42,0l-194,112.72L0,126.37v7.21H0c0,1.93,1.29,3.86,3.84,5.34L380,355.81c5.1,2.95,13.35,2.95,18.42,0l204.9-119.06C605.91,235.24,607.16,233.25,607.08,231.27Z"/><path class="cls-3" d="M398.41,355.81l204.9-119.06c2.6-1.51,3.85-3.5,3.77-5.48h0v-6.64L578.32,219l-44.66-25.75L389.42,273.93V358A18.66,18.66,0,0,0,398.41,355.81Z"/><path class="cls-4" d="M603.25,219.1c5.11,3,5.13,7.72.06,10.67L398.41,348.83c-5.07,2.95-13.32,2.95-18.42,0L3.84,131.94c-5.1-2.95-5.12-7.72,0-10.67L208.69,2.21c5.07-2.95,13.31-2.95,18.42,0Z"/><polygon class="cls-5" points="573.99 210.6 365.1 331.98 25.17 135.92 234.06 14.55 573.99 210.6"/><polygon class="cls-3" points="154.65 135.63 119.52 156.04 84.17 135.63 119.29 115.21 154.65 135.63"/><polygon class="cls-3" points="218.82 98.79 183.69 119.21 148.34 98.79 183.47 78.38 218.82 98.79"/><polygon class="cls-3" points="276.09 65.81 240.96 86.22 205.6 65.81 240.73 45.4 276.09 65.81"/><polygon class="cls-3" points="208.5 166.87 173.38 187.28 138.02 166.87 173.15 146.45 208.5 166.87"/><polygon class="cls-3" points="272.67 130.03 237.55 150.45 202.19 130.03 237.32 109.62 272.67 130.03"/><polygon class="cls-3" points="329.94 97.05 294.81 117.47 259.46 97.05 294.58 76.64 329.94 97.05"/><polygon class="cls-3" points="262.36 198.11 227.23 218.52 191.87 198.11 227 177.69 262.36 198.11"/><polygon class="cls-3" points="326.53 161.28 291.4 181.69 256.05 161.28 291.17 140.86 326.53 161.28"/><polygon class="cls-3" points="383.79 128.29 348.67 148.71 313.31 128.29 348.44 107.88 383.79 128.29"/><ellipse class="cls-6" cx="489.44" cy="277.81" rx="7.4" ry="12.78" transform="matrix(0, -1, 1, 0, 210.24, 766.46)"/><path d="M116.48,70c1.79,1,1.82,2.71,0,3.76a7.2,7.2,0,0,1-6.49,0c-1.79-1-1.8-2.73,0-3.76A7.17,7.17,0,0,1,116.48,70Z"/><line class="cls-7" x1="171.3" y1="265.9" x2="154.19" y2="255.85"/><polygon class="cls-8" points="174.07 261.32 156.41 256.59 155.93 257.42 168.43 270.66 174.07 261.32"/><path class="cls-5" d="M345.82,361.72h0L174.75,261.58a2.83,2.83,0,0,0-2.83.29,8.73,8.73,0,0,0-4,6.89,2.88,2.88,0,0,0,1,2.47L340.19,371.44h0a5.53,5.53,0,0,0,3,.88,5.62,5.62,0,0,0,2.62-10.59Z"/><path class="cls-8" d="M168.38,266.44a6.94,6.94,0,0,0-.44,2.32,2.88,2.88,0,0,0,1,2.47L340.19,371.44h0a5.53,5.53,0,0,0,3,.88,5.61,5.61,0,0,0,3.71-1.4Z"/><g class="cls-9"><path class="cls-7" d="M331.88,367.1a3.1,3.1,0,0,1-1.11-2.67,9.49,9.49,0,0,1,4.31-7.47,3,3,0,0,1,3.06-.31"/></g></g></g></svg>