<svg xmlns="http://www.w3.org/2000/svg" viewBox="0 0 476.84 414.57"><defs><style>.cls-1{fill:#516cb4;}.cls-2{fill:#06b3bb;}.cls-3{fill:#f5f3f7;}.cls-4{fill:#38c2c9;}.cls-5{fill:#fff;}.cls-6{fill:#42145f;}.cls-7{fill:none;stroke:#fff;stroke-miterlimit:10;}</style></defs><title>van_light</title><g id="Layer_2" data-name="Layer 2"><g id="Layer_3" data-name="Layer 3"><path class="cls-1" d="M323.55,413s9.08-5.27,11.43-6.58c3.83-2.13,6.26-6.7,6.28-13.34,0-13.07-9.16-29-20.52-35.54-5.77-3.33-11-3.59-14.74-1.38-2.48,1.46-12.08,7-12.08,7Z"/><path class="cls-2" d="M308.78,364.45C320.14,371,329.33,386.92,329.3,400s-9.29,18.32-20.65,11.76-20.56-22.47-20.52-35.53S297.41,357.89,308.78,364.45Z"/><path class="cls-3" d="M317.88,407.54a11.79,11.79,0,0,1-5.72-1.88c-9.24-5.34-17-18.81-17-29.42,0-6.59,2.76-7.58,4.38-7.58a11.74,11.74,0,0,1,5.72,1.88c9.25,5.34,17,18.82,17,29.43C322.25,406.55,319.51,407.54,317.88,407.54Z"/><path class="cls-1" d="M85.48,275.4s9.07-5.27,11.42-6.58c3.83-2.13,6.26-6.7,6.28-13.34,0-13.07-9.15-29-20.52-35.54-5.77-3.33-11-3.59-14.74-1.38-2.48,1.46-12.08,7-12.08,7Z"/><path class="cls-2" d="M70.7,226.83c11.37,6.56,20.56,22.47,20.52,35.54s-9.29,18.32-20.65,11.76S50,251.66,50.05,238.6,59.33,220.27,70.7,226.83Z"/><path class="cls-3" d="M79.8,269.92A11.79,11.79,0,0,1,74.08,268c-9.24-5.34-17-18.81-17-29.42,0-6.6,2.75-7.58,4.38-7.58a11.79,11.79,0,0,1,5.72,1.88c9.24,5.34,17,18.81,17,29.43C84.17,268.93,81.43,269.92,79.8,269.92Z"/><path class="cls-4" d="M471.06,302.76,369.29,148.58,111.87,0,0,65.17V204.63l45.55,26.43c2.27-7.76,8.1-12.6,15.92-12.6a24.07,24.07,0,0,1,12,3.57C86.09,229.31,96,246,96.7,260.68L283.56,368.93c2.22-7.9,8.09-12.85,16-12.85a24.07,24.07,0,0,1,12,3.57c12.7,7.33,22.68,24.21,23.24,39l27.56,16,114.49-64.79V322A34.86,34.86,0,0,0,471.06,302.76Z"/><path class="cls-1" d="M307.56,357.72a30.29,30.29,0,0,1,4,1.93c12.7,7.33,22.68,24.21,23.24,39l18.56,10.75,123.49-70.74V322a34.86,34.86,0,0,0-5.78-19.23L369.29,148.58,257.17,214.09Z"/><path class="cls-1" d="M357.43,411.72l4.92,2.85,114.49-64.79V322a34.86,34.86,0,0,0-5.78-19.23L357.43,367.89Z"/><path class="cls-2" d="M357.43,367.89,257.17,214.09,0,65.17V204.63l45.55,26.43c2.27-7.76,8.1-12.6,15.92-12.6a24.07,24.07,0,0,1,12,3.57C86.09,229.31,96,246,96.7,260.68L283.56,368.93c2.22-7.9,8.09-12.85,16-12.85a24.07,24.07,0,0,1,12,3.57c12.7,7.33,22.68,24.21,23.24,39l27.56,16V384.44A30.31,30.31,0,0,0,357.43,367.89Z"/><polygon class="cls-5" points="287 253.77 394.31 192.53 444.55 268.63 337 330.45 287 253.77"/><path class="cls-6" d="M357.43,367.89,330.3,352v29.19a45.83,45.83,0,0,1,4.49,17.38l27.56,16V384.44A30.31,30.31,0,0,0,357.43,367.89Z"/><path class="cls-6" d="M79.08,226c9.84,8.39,17,22.23,17.62,34.64l167.61,97.1V333.34Z"/><path class="cls-6" d="M61.47,218.46a21.2,21.2,0,0,1,6.27,1L0,180.19v24.44l45.55,26.43C47.82,223.3,53.65,218.46,61.47,218.46Z"/><polygon class="cls-2" points="6.82 155.28 0 151.39 0 180.19 6.82 184.15 6.82 155.28"/><polygon class="cls-3" points="360.17 335.53 335.88 334.83 357.43 367.89 374.66 357.76 360.17 335.53"/><polygon class="cls-3" points="449.5 270.1 439.02 290.21 453.69 312.7 471.06 302.79 449.5 270.1"/><polygon class="cls-6" points="385.54 363.16 394.56 378.87 457.84 342.38 457.84 321.47 385.54 363.16"/><polygon class="cls-5" points="402.13 389.12 449.92 361.93 449.92 352.81 402.13 380 402.13 389.12"/><path class="cls-5" d="M248.28,279.79V239.06L270,251.54l44.44,68.18a4.21,4.21,0,0,1-5.63,5.94l-51.05-29.48A18.92,18.92,0,0,1,248.28,279.79Z"/><path class="cls-7" d="M139,221.41s7.6,13,5.7,26.07"/><path class="cls-3" d="M102.65,159.49s23.79,9.65,34.8,29.77S140.14,224,140.14,224s-15.86,5.48-28.13-16C102.08,190.66,102.65,159.49,102.65,159.49Z"/><path class="cls-7" d="M151.52,228.08s-6.86,9.7-6.86,19.4"/><path class="cls-3" d="M176.85,184.88s-16.9,4.63-26,18-.11,27.06-.11,27.06,11.6,3.28,22.22-10.32C181.32,208.82,176.85,184.88,176.85,184.88Z"/></g></g></svg>