<svg xmlns="http://www.w3.org/2000/svg" viewBox="0 0 321.3 739.14"><defs><style>.cls-1{fill:#fff;}.cls-2{fill:#c9c5c5;}.cls-3{fill:#06b3bb;}.cls-4{isolation:isolate;}</style></defs><title>wind_light</title><g id="Layer_2" data-name="Layer 2"><g id="Layer_3" data-name="Layer 3"><path class="cls-1" d="M212,194.83H192.69L174.38,722.94c0,4.15,2.68,8.29,8.13,11.46s12.64,4.75,19.83,4.74,14.36-1.57,19.82-4.74,8.16-7.31,8.14-11.46Z"/><path class="cls-2" d="M198.72,220.91l9.2,517.91a37.3,37.3,0,0,0,14.24-4.42c5.45-3.17,8.16-7.31,8.14-11.46L212.38,206.42Z"/><path class="cls-1" d="M234.8,136c14.51,8.38,26.24,28.7,26.2,45.38s-11.86,23.42-26.37,15-26.26-28.71-26.22-45.4S220.27,127.57,234.8,136Z"/><polygon class="cls-1" points="207.57 224.32 253.31 198.22 215.59 134.44 169.57 160.72 207.57 224.32"/><circle class="cls-1" cx="188.23" cy="192.73" r="37.07"/><path class="cls-3" d="M188.23,229.81a36.84,36.84,0,0,0,19.34-5.49h0l45.63-26,.07,0,0,0h0c4.73-2.74,7.66-8.57,7.69-16.87a43.71,43.71,0,0,0-1.5-11c-13.56,8-50.8,29.81-65.93,38.44-18.66,10.65-29.87,0-29.87,0l-4.37,7.1A37,37,0,0,0,188.23,229.81Z"/><g class="cls-4"><path class="cls-1" d="M156.91,204.68a68.71,68.71,0,0,1,7.09,4.61c-6.24,7.9-14.66,18-33.8,19.68S5.63,233.06,0,232.71c5-1.28,99.59-31.7,120.56-35.86C132.42,194.5,149.46,200.38,156.91,204.68Z"/><path class="cls-1" d="M171.09,212.87a115.59,115.59,0,0,1,31.74,27.82c19.06,23.74,113.5,157.44,118.47,164.47C315.69,399,209.07,282.35,190,258.61a146.9,146.9,0,0,1-26-49.32A54.67,54.67,0,0,1,171.09,212.87Z"/><path class="cls-1" d="M164.59,0c.62,7.41,12.32,148.13,12.24,173.49s-12.19,35.27-12.83,35.8c-.63-1.26-12.67-25.12-12.6-50.48S163.94,6.67,164.59,0Z"/></g><path class="cls-3" d="M173.1,214.24c0-6-4.17-13.23-9.36-16.22-2.68-1.55-5.1-1.65-6.82-.57h0c-13.78,9-13.61,20.49-12.07,22.83,1.36,2.07,12,6.29,25.5,0h0C172.05,219.3,173.1,217.21,173.1,214.24Z"/></g></g></svg>